<?xml version="1.0" encoding="UTF-8" standalone="no"?>
<svg width="45px" height="40px" viewBox="0 0 45 40" version="1.1" xmlns="http://www.w3.org/2000/svg" xmlns:xlink="http://www.w3.org/1999/xlink" xmlns:sketch="http://www.bohemiancoding.com/sketch/ns">
    <!-- Generator: Sketch 3.3.2 (12043) - http://www.bohemiancoding.com/sketch -->
    <title>Untitled</title>
    <desc>Created with Sketch.</desc>
    <defs></defs>
    <g id="Page-1" stroke="none" stroke-width="1" fill="none" fill-rule="evenodd" sketch:type="MSPage">
        <path d="M18.4604174,-7.10542736e-15 C14.368241,-7.10542736e-15 10.9490115,3.2538442 10.9490115,7.23259547 L10.9490115,10.0264025 L4.85446942,10.0264025 C2.19689929,10.0264025 -7.10542736e-15,12.2194998 -7.10542736e-15,14.8720007 L-7.10542736e-15,35.084488 C-7.10542736e-15,37.755365 2.19689929,39.9300862 4.85446942,39.9300862 L40.1284218,39.9300862 C42.8037344,39.9300862 45,37.7547313 45,35.084488 L45,14.8720007 C45,12.2194998 42.8031007,10.0264025 40.1284218,10.0264025 L34.0516222,10.0264025 L34.0516222,7.23259547 C34.0516222,3.2538442 30.6140166,-4.85421474e-15 26.5218401,-4.85421474e-15 L18.4604174,-4.85421474e-15 L18.4604174,-7.10542736e-15 Z M18.4604174,2.97123184 L26.5218401,2.97123184 C29.0374704,2.97123184 31.0569449,4.98690436 31.0569449,7.23322913 L31.0569449,10.0270362 L13.9253126,10.0270362 L13.9253126,7.23322913 C13.9253126,4.98690436 15.9631632,2.97123184 18.4604174,2.97123184 L18.4604174,2.97123184 L18.4604174,2.97123184 Z M4.85446942,12.9976343 L40.1284218,12.9976343 C41.1910696,12.9976343 42.0236989,13.8112538 42.0236989,14.8720007 L42.0236989,23.5018165 L27.5667455,23.5018165 L27.5667455,20.407021 C27.549003,19.6288864 26.8583136,18.9394643 26.0782781,18.9394643 L18.9210882,18.9394643 C18.8684944,18.9217219 18.815267,18.9217219 18.7620395,18.9394643 C18.0358652,19.0104343 17.415512,19.6827475 17.415512,20.407021 L17.415512,23.5018165 L2.97630112,23.5018165 L2.97630112,14.8720007 C2.97630112,13.8112538 3.79182156,12.9976343 4.85446942,12.9976343 L4.85446942,12.9976343 L4.85446942,12.9976343 Z M20.4095556,21.8929537 L24.5904444,21.8929537 L24.5904444,28.0641686 L20.4095556,28.0641686 L20.4095556,21.8929537 L20.4095556,21.8929537 Z M2.97630112,26.4553058 L17.4148783,26.4553058 L17.4148783,29.5317252 C17.4148783,30.3276022 18.1410527,31.0347668 18.9204545,31.0347668 L26.0782781,31.0347668 C26.85768,31.0347668 27.5667455,30.3098597 27.5667455,29.5317252 L27.5667455,26.4553058 L42.0230652,26.4553058 L42.0230652,35.084488 C42.0230652,36.1458685 41.190436,36.959488 40.1277881,36.959488 L4.85446942,36.959488 C3.79182156,36.959488 2.97693478,36.1458685 2.97693478,35.084488 L2.97693478,26.4553058 L2.97630112,26.4553058 Z" id="Shape" fill="#4A87EE" sketch:type="MSShapeGroup"></path>
    </g>
</svg>