<?xml version="1.0" encoding="UTF-8" standalone="no"?>
<svg width="45px" height="45px" viewBox="0 0 45 45" version="1.1" xmlns="http://www.w3.org/2000/svg" xmlns:xlink="http://www.w3.org/1999/xlink" xmlns:sketch="http://www.bohemiancoding.com/sketch/ns">
    <!-- Generator: Sketch 3.3.2 (12043) - http://www.bohemiancoding.com/sketch -->
    <title>Untitled</title>
    <desc>Created with Sketch.</desc>
    <defs></defs>
    <g id="Page-1" stroke="none" stroke-width="1" fill="none" fill-rule="evenodd" sketch:type="MSPage">
        <path d="M26.34075,27.71175 L21.54525,23.7885 C20.88,23.5275 20.25,23.0505 20.25,22.5 L20.26125,22.35975 C20.2425,22.17225 20.265,21.96525 20.30775,21.75525 L21,12.75 C21,11.922 21.672,11.25 22.5,11.25 C23.328,11.25 24,11.922 24,12.75 L24.62775,20.904 L28.4625,25.5915 C29.0475,26.17725 29.0475,27.12675 28.4625,27.7125 C27.87675,28.2975 26.9265,28.2975 26.34075,27.71175 L26.34075,27.71175 Z M45,22.5 C45,34.926 34.926,45 22.5,45 C10.074,45 0,34.926 0,22.5 C0,10.07325 10.074,0 22.5,0 C28.89975,0 34.66725,2.679 38.76375,6.969 C39.6015,6.48075 40.233,6.1125 40.30575,6.0705 C40.6005,5.89875 41.0085,6.075 41.022,6.4755 C41.034,6.7965 41.23425,13.23075 41.2515,13.7805 C41.26275,14.14125 40.88625,14.35425 40.5645,14.181 C40.206,13.9875 34.4055,10.791 33.99375,10.5555 C33.69225,10.383 33.64125,9.95475 33.966,9.76575 C34.0905,9.693 34.992,9.168 36.078,8.535 C32.56725,5.1165 27.78675,3 22.5,3 C11.73075,3 3,11.73075 3,22.5 C3,33.26925 11.73075,42 22.5,42 C33.26925,42 42,33.26925 42,22.5 C42,22.2465 41.97225,22.0005 41.96175,21.75 L42,21.75 C42,20.922 42.672,20.25 43.5,20.25 C44.328,20.25 45,20.922 45,21.75 C45,21.801 44.9895,21.8505 44.98425,21.9 C44.99175,22.0995 45,22.29825 45,22.5 L45,22.5 Z" id="Shape" fill="#4A87EE" sketch:type="MSShapeGroup"></path>
    </g>
</svg>