<?xml version="1.0" encoding="UTF-8" standalone="no"?>
<svg width="72px" height="45px" viewBox="0 0 72 45" version="1.1" xmlns="http://www.w3.org/2000/svg" xmlns:xlink="http://www.w3.org/1999/xlink" xmlns:sketch="http://www.bohemiancoding.com/sketch/ns">
    <!-- Generator: Sketch 3.3.2 (12043) - http://www.bohemiancoding.com/sketch -->
    <title>Untitled</title>
    <desc>Created with Sketch.</desc>
    <defs></defs>
    <g id="Page-1" stroke="none" stroke-width="1" fill="none" fill-rule="evenodd" sketch:type="MSPage">
        <path d="M34.4158213,0.240205555 L1.28369009,13.0190172 C0.549802257,13.292282 -7.10542736e-15,14.0670778 -7.10542736e-15,14.8418735 C-7.10542736e-15,15.6395777 0.549802257,16.4135553 1.28369009,16.6868201 L12.0375604,20.8324273 L12.0375604,37.0270491 C12.0375604,38.8040886 13.2525252,40.1025055 14.6286672,40.9910252 C15.9810826,41.9016352 17.7237594,42.5847972 19.8100626,43.1550534 C23.9605787,44.316838 29.4864187,45 35.6086959,45 C41.7301549,45 47.256813,44.316838 51.4294194,43.1550534 C53.4928142,42.5856154 55.235491,41.9024534 56.5887245,40.9910252 C57.9648665,40.1025055 59.1798313,38.8040886 59.1798313,37.0270491 L59.1798313,20.8553357 L67.250143,17.7348806 L67.250143,27.8014982 C67.250143,28.8266503 68.1902067,29.7830771 69.2219041,29.7830771 C70.2544196,29.7830771 71.1936652,28.8266503 71.1715749,27.8014982 L71.1715749,15.3196779 C71.1715749,14.3861595 70.6896798,13.3151905 69.9328835,13.0190172 L36.7999341,0.240205555 C35.883597,-0.123874808 35.1497092,-0.0330592569 34.4158213,0.240205555 L34.4158213,0.240205555 L34.4158213,0.240205555 Z M35.6086959,4.02173239 L63.7426992,14.8418735 L35.6086959,25.6841049 L7.49678286,14.8418735 L35.6086959,4.02173239 L35.6086959,4.02173239 Z M15.9810826,22.3353838 L34.8977165,29.6464447 C35.3567032,29.828894 35.8606886,29.828894 36.3196753,29.6464447 L55.2583994,22.3582922 L55.2583994,37.0041407 C54.1350683,38.1880155 51.8654977,38.9636294 50.3519052,39.3956169 C46.7061926,40.3986787 41.4552538,41.0818408 35.6086959,41.0818408 C29.7842282,41.0818408 24.4653823,40.4894943 20.8425781,39.3956169 C19.0999013,38.8490873 17.2426824,38.3483745 15.9819007,37.026231 L15.9819007,22.3353838 L15.9810826,22.3353838 Z" id="Shape" fill="#4A87EE" sketch:type="MSShapeGroup"></path>
    </g>
</svg>