<?xml version="1.0" encoding="UTF-8" standalone="no"?>
<svg width="12px" height="19px" viewBox="0 0 12 19" version="1.1" xmlns="http://www.w3.org/2000/svg" xmlns:xlink="http://www.w3.org/1999/xlink" xmlns:sketch="http://www.bohemiancoding.com/sketch/ns">
    <!-- Generator: Sketch 3.3.2 (12043) - http://www.bohemiancoding.com/sketch -->
    <title>Slice 1</title>
    <desc>Created with Sketch.</desc>
    <defs></defs>
    <g id="Page-1" stroke="none" stroke-width="1" fill="none" fill-rule="evenodd" sketch:type="MSPage">
        <path d="M9.6,8.3208125 C8.5962,7.57328125 7.353,7.125 6,7.125 C4.6476,7.125 3.4038,7.57328125 2.4,8.3208125 L2.4,4.75 C2.4,2.78290625 4.0122,1.1875 6,1.1875 C7.9878,1.1875 9.6,2.78290625 9.6,4.75 L9.6,8.3208125 L9.6,8.3208125 Z M6.6,14.84375 C6.6,15.1720937 6.3318,15.4375 6,15.4375 C5.6682,15.4375 5.4,15.1720937 5.4,14.84375 L5.4,12.46875 C5.4,12.141 5.6682,11.875 6,11.875 C6.3318,11.875 6.6,12.141 6.6,12.46875 L6.6,14.84375 L6.6,14.84375 Z M10.8,9.51128125 L10.8,4.75 C10.8,2.1268125 8.6508,0 6,0 C3.3492,0 1.2,2.1268125 1.2,4.75 L1.2,9.51128125 C0.45,10.50225 0,11.7289375 0,13.0625 C0,16.3417813 2.6868,19 6,19 C9.3132,19 12,16.3417813 12,13.0625 C12,11.7289375 11.55,10.50225 10.8,9.51128125 L10.8,9.51128125 Z" id="Fill-173" fill="#66CC33" sketch:type="MSShapeGroup"></path>
    </g>
</svg>