<?xml version="1.0" encoding="UTF-8" standalone="no"?>
<svg width="162px" height="56px" viewBox="0 0 162 56" version="1.1" xmlns="http://www.w3.org/2000/svg" xmlns:xlink="http://www.w3.org/1999/xlink" xmlns:sketch="http://www.bohemiancoding.com/sketch/ns">
    <!-- Generator: Sketch 3.3.2 (12043) - http://www.bohemiancoding.com/sketch -->
    <title>Untitled</title>
    <desc>Created with Sketch.</desc>
    <defs></defs>
    <g id="Page-1" stroke="none" stroke-width="1" fill="none" fill-rule="evenodd" sketch:type="MSPage">
        <g id="logo" sketch:type="MSLayerGroup">
            <path d="M117.430986,52.0380952 L118.38169,52.8761905 L118.952113,53.3333333 L119.560563,53.7142857 L120.207042,54.0190476 L120.701408,54.2095238 L121.233803,54.3238095 L121.766197,54.3238095 L122.146479,54.4 L122.260563,54.4761905 L122.33662,54.5904762 L122.374648,54.7047619 L122.33662,54.8190476 L122.260563,54.9333333 L122.146479,55.0095238 L121.766197,55.0857143 L119.598592,55.047619 L119.332394,54.9714286 L118.8,54.9714286 L118.267606,54.8571429 L117.773239,54.6666667 L117.126761,54.3619048 L116.51831,53.9809524 L115.947887,53.5238095 L114.997183,52.6857143 L114.084507,51.8095238 L113.209859,50.8952381 L110.928169,48.0380952 L113.856338,48.0380952 L115.643662,50.247619 L116.51831,51.1619048 L117.430986,52.0380952 L117.430986,52.0380952 Z M101.078873,39.3904762 L106.859155,39.3904762 C107.809859,40.6095238 106.707042,39.2 107.657746,40.4190476 L107.657746,44.0761905 L103.930986,39.4285714 L101.078873,39.3904762 L101.078873,39.3904762 Z M83.3957746,22.9333333 L82.8633803,23.4666667 L80.6957746,25.6380952 L80.6957746,35.3142857 L80.771831,36.3809524 L80.9239437,37.447619 L81.0380282,37.9428571 L81.228169,38.4 L81.4943662,38.8190476 L81.8366197,39.2 L82.2169014,39.5047619 L82.7112676,39.847619 L83.243662,40.1142857 L83.8140845,40.3047619 L84.384507,40.4190476 L85.1450704,40.5333333 L85.9056338,40.5714286 L86.2859155,40.647619 L86.4,40.7238095 L86.4760563,40.8380952 L86.5140845,40.952381 L86.4760563,41.0666667 L86.4,41.1809524 L86.2859155,41.2571429 L85.9056338,41.3333333 L83.7380282,41.2952381 L83.471831,41.2190476 L82.7112676,41.1809524 L81.9507042,41.0666667 L81.3802817,40.952381 L80.8098592,40.7619048 L80.2774648,40.4952381 L79.7830986,40.152381 L79.4028169,39.847619 L79.0605634,39.4666667 L78.7943662,39.047619 L78.6042254,38.5904762 L78.4901408,38.0952381 L78.3380282,37.0285714 L78.2619718,35.9619048 L78.2619718,26.2857143 L80.4295775,24.1142857 L82.5591549,21.9047619 L83.3957746,22.9333333 L83.3957746,22.9333333 Z M69.1732394,0.761904762 L69.0591549,0.723809524 L68.9450704,0.647619048 L68.8690141,0.533333333 L68.8309859,0.419047619 L68.8690141,0.304761905 L68.9450704,0.19047619 L69.0591549,0.114285714 L69.4394366,0.0380952381 L72.9380282,0.114285714 L75.3338028,0.19047619 L77.7295775,0.19047619 L80.1253521,0.19047619 L82.5211268,0.114285714 L86.0197183,0.0380952381 L86.2098592,0.0380952381 L86.4,0.114285714 L86.5140845,0.19047619 L86.5901408,0.304761905 L86.628169,0.419047619 L86.5901408,0.533333333 L86.5140845,0.647619048 L86.4,0.723809524 L86.0197183,0.8 L85.2591549,0.838095238 L84.4985915,0.952380952 L84.1943662,1.02857143 L84.1943662,0.952380952 L84.1183099,0.838095238 L84.0042254,0.761904762 L83.8140845,0.685714286 L83.6239437,0.685714286 L80.1253521,0.761904762 L77.7295775,0.838095238 L75.3338028,0.838095238 L72.9380282,0.838095238 L70.5422535,0.761904762 L69.1732394,0.761904762 L69.1732394,0.761904762 Z M82.9014085,1.48571429 L82.7873239,1.48571429 L82.0267606,1.6 L81.456338,1.71428571 L80.8859155,1.9047619 L80.3535211,2.17142857 L79.8591549,2.51428571 L79.4788732,2.81904762 L79.1366197,3.2 L78.8704225,3.61904762 L78.6802817,4.07619048 L78.5661972,4.57142857 L78.3760563,6.7047619 L78.3760563,24.3428571 L80.8098592,21.7904762 L80.8098592,6.05714286 L81,3.92380952 L81.1140845,3.42857143 L81.3042254,2.97142857 L81.5704225,2.55238095 L81.9126761,2.17142857 L82.2929577,1.86666667 L82.7873239,1.52380952 L82.9014085,1.48571429 L82.9014085,1.48571429 Z M92.0661972,0.761904762 L91.9521127,0.723809524 L91.8380282,0.647619048 L91.7619718,0.533333333 L91.7239437,0.419047619 L91.7619718,0.304761905 L91.8380282,0.19047619 L91.9521127,0.114285714 L92.3323944,0.0380952381 L95.8309859,0.114285714 L98.2267606,0.152380952 L100.622535,0.152380952 L101.421127,0.0761904762 L104.919718,2.1649349e-14 L105.3,0.0761904762 L105.414085,0.152380952 L105.490141,0.266666667 L105.528169,0.380952381 L105.490141,0.495238095 L105.414085,0.60952381 L105.3,0.685714286 L104.919718,0.761904762 L104.159155,0.8 L103.398592,0.914285714 L103.094366,0.99047619 L103.056338,0.876190476 L102.980282,0.761904762 L102.866197,0.685714286 L102.485915,0.60952381 L98.9873239,0.685714286 L98.1887324,0.761904762 L95.7929577,0.761904762 L93.3971831,0.723809524 L92.0661972,0.723809524 L92.0661972,0.761904762 L92.0661972,0.761904762 Z M102.219718,1.44761905 L101.725352,1.48571429 L100.964789,1.6 L100.470423,1.75238095 L99.9760563,1.98095238 L99.5197183,2.24761905 L98.7971831,2.85714286 L98.1126761,3.54285714 L97.4661972,4.26666667 L96.8577465,4.99047619 L94.8422535,7.58095238 L92.8267606,10.1714286 L90.7352113,12.7238095 L88.6056338,15.2380952 L86.4380282,17.7142857 L95.2605634,28.6857143 L95.2605634,25.0285714 C92.7507042,21.9428571 91.343662,20.1904762 88.871831,17.0666667 L91.0394366,14.5904762 L93.1690141,12.0761905 L95.2605634,9.52380952 L97.2760563,6.93333333 L99.2915493,4.34285714 L99.9,3.61904762 L100.546479,2.8952381 L101.230986,2.20952381 L101.953521,1.6 L102.219718,1.44761905 L102.219718,1.44761905 Z M99.5197183,30.2095238 L101.078873,32.152381 L101.078873,34.4 C101.078873,36.5333333 99.5197183,36.4571429 99.5197183,34.3619048 L99.5197183,30.2095238 L99.5197183,30.2095238 Z" id="Shape" fill="#70706E" sketch:type="MSShapeGroup"></path>
            <path d="M149.070423,11.0095238 L149.070423,11.0095238 L149.374648,11.3142857 L149.602817,11.6952381 L149.792958,12.1142857 L149.907042,12.5333333 L149.94507,12.8 L149.94507,12.9904762 L149.94507,35.7714286 L149.907042,36.2285714 L149.792958,36.6857143 L149.602817,37.1047619 L149.33662,37.4857143 L149.146479,37.6761905 L149.032394,37.7904762 L148.690141,38.0190476 L148.309859,38.2095238 L147.929577,38.3238095 L147.511268,38.4 L147.092958,38.4 L146.674648,38.3238095 L146.294366,38.2095238 L145.914085,38.0571429 L145.571831,37.8666667 L145.115493,37.5619048 L145.077465,37.5619048 L144.925352,37.4857143 L144.773239,37.4857143 L144.621127,37.5238095 L144.507042,37.6 L144.392958,37.7142857 L144.316901,37.8666667 L144.316901,45.8666667 L144.35493,46.0952381 L144.430986,46.3238095 L144.54507,46.5142857 L144.735211,46.6285714 L144.96338,46.7047619 L145.191549,46.7428571 L145.343662,46.7428571 L145.343662,47.0095238 L141.084507,47.0095238 L141.084507,46.7428571 L141.23662,46.7428571 L141.312676,46.7428571 L141.464789,46.7428571 L141.540845,46.7047619 L141.65493,46.6285714 L141.84507,46.5142857 L141.959155,46.3238095 L142.035211,46.0952381 L142.073239,45.8666667 L142.073239,11.4285714 L142.035211,11.2 L141.959155,11.0095238 L141.84507,10.8190476 L141.65493,10.6666667 L141.464789,10.5904762 L141.23662,10.552381 L141.084507,10.552381 L141.084507,10.2857143 L144.316901,10.2857143 L144.430986,10.9333333 L144.507042,11.0857143 L144.621127,11.2 L144.773239,11.2761905 L144.96338,11.3142857 L145.153521,11.2761905 L145.647887,10.9714286 L145.990141,10.7809524 L146.370423,10.6285714 L146.750704,10.5142857 L147.169014,10.4761905 L147.587324,10.4761905 L148.005634,10.552381 L148.385915,10.6666667 L148.766197,10.8571429 L149.070423,11.0095238 L149.070423,11.0095238 Z M147.66338,35.6571429 L147.739437,35.2380952 L147.739437,34.8190476 L147.739437,14.247619 L147.739437,14.0571429 L147.739437,13.8285714 L147.66338,13.4095238 L147.549296,12.9904762 L147.359155,12.6095238 L147.092958,12.2285714 L147.016901,12.152381 L146.864789,12 L146.598592,11.847619 L146.332394,11.7333333 L146.066197,11.6952381 L145.990141,11.6952381 L145.685915,11.7333333 L145.419718,11.847619 L145.153521,12 L144.96338,12.2285714 L144.659155,12.6857143 L144.430986,13.1809524 L144.316901,13.7142857 L144.278873,14.247619 L144.278873,34.7809524 L144.316901,35.3142857 L144.430986,35.847619 L144.659155,36.3428571 L144.96338,36.8 L145.153521,37.0285714 L145.419718,37.1809524 L145.685915,37.2952381 L145.990141,37.3333333 L146.066197,37.3333333 L146.256338,37.2952381 L146.522535,37.1809524 L146.788732,37.0285714 L146.978873,36.8 L147.092958,36.6095238 L147.207042,36.4190476 L147.397183,36.0380952 L147.66338,35.6571429 L147.66338,35.6571429 Z" id="Shape" fill="#000000" sketch:type="MSShapeGroup"></path>
            <path d="M160.859155,17.4095238 L160.859155,37.2952381 L160.897183,37.5238095 L160.973239,37.7142857 L161.125352,37.9047619 L161.315493,38.0571429 L161.505634,38.1333333 L161.733803,38.1714286 L161.885915,38.1714286 L161.885915,38.4380952 L158.653521,38.4380952 L158.539437,37.7904762 L158.46338,37.6380952 L158.349296,37.5238095 L158.197183,37.447619 L158.007042,37.4095238 L157.816901,37.447619 L157.322535,37.752381 L156.942254,37.9428571 L156.561972,38.0952381 L156.18169,38.2095238 L155.76338,38.247619 L155.34507,38.247619 L154.926761,38.1714286 L154.546479,38.0571429 L154.166197,37.8666667 L153.823944,37.6380952 L153.519718,37.3333333 L153.253521,36.952381 L153.06338,36.5333333 L152.949296,36.1142857 L152.911268,35.6571429 L152.911268,23.8095238 L152.949296,23.352381 L153.06338,22.8952381 L153.253521,22.4761905 L153.519718,22.0952381 L153.823944,21.752381 L154.166197,21.5238095 L154.546479,21.3333333 L154.926761,21.2190476 L155.34507,21.1428571 L155.76338,21.1428571 L156.18169,21.1809524 L156.561972,21.2952381 L156.942254,21.447619 L157.284507,21.6380952 L157.740845,21.9428571 L157.892958,21.9809524 L158.04507,21.9809524 L158.197183,21.9428571 L158.311268,21.8666667 L158.425352,21.752381 L158.501408,21.6 L158.501408,17.4095238 L158.501408,13.3714286 L158.425352,12.8380952 L158.311268,12.3047619 L158.083099,11.8095238 L157.778873,11.352381 L157.588732,11.1238095 L157.322535,10.9714286 L157.056338,10.8571429 L156.752113,10.8190476 L156.447887,10.8571429 L156.18169,10.9714286 L155.915493,11.1238095 L155.725352,11.352381 L155.459155,11.7333333 L155.269014,12.1142857 L155.15493,12.5333333 L155.078873,12.952381 L155.078873,13.3714286 L155.078873,17.4095238 L155.078873,18.0190476 L152.873239,18.0190476 L152.873239,17.4095238 L152.873239,14.9714286 L152.911268,14.3619048 L153.025352,13.752381 L153.177465,13.1809524 L153.405634,12.6095238 L153.709859,12.0761905 L153.976056,11.6952381 L154.280282,11.352381 L154.622535,11.047619 L155.002817,10.7809524 L155.421127,10.5904762 L155.877465,10.4380952 L156.333803,10.3238095 L156.790141,10.2857143 L157.246479,10.3238095 L157.702817,10.4380952 L158.159155,10.5904762 L158.577465,10.7809524 L158.957746,11.047619 L159.3,11.352381 L159.604225,11.6952381 L159.870423,12.0761905 L160.174648,12.6095238 L160.402817,13.1809524 L160.55493,13.752381 L160.669014,14.3619048 L160.707042,14.9714286 L160.707042,17.3714286 L160.859155,17.3714286 L160.859155,17.4095238 Z M158.577465,24.1904762 L158.46338,23.6571429 L158.235211,23.1619048 L157.930986,22.7047619 L157.740845,22.5142857 L157.474648,22.3238095 L157.208451,22.2095238 L156.904225,22.1714286 L156.6,22.2095238 L156.333803,22.3238095 L156.067606,22.5142857 L155.877465,22.7047619 L155.611268,23.1238095 L155.421127,23.5809524 L155.307042,24.0761905 L155.230986,24.5714286 L155.230986,34.4380952 L155.230986,34.8571429 L155.307042,35.2761905 L155.421127,35.6952381 L155.611268,36.0761905 L155.877465,36.4571429 L156.067606,36.6857143 L156.333803,36.8380952 L156.6,36.952381 L156.904225,36.9904762 L157.208451,36.952381 L157.474648,36.8380952 L157.740845,36.6857143 L157.930986,36.4571429 L158.235211,36 L158.46338,35.5047619 L158.577465,34.9714286 L158.653521,34.4380952 L158.653521,24.7238095 L158.577465,24.1904762 L158.577465,24.1904762 Z" id="Shape" fill="#000000" sketch:type="MSShapeGroup"></path>
            <path d="M137.966197,11.2761905 L138.232394,11.6571429 L138.53662,12.1904762 L138.764789,12.7619048 L138.916901,13.3333333 L139.030986,13.9428571 L139.069014,14.552381 L139.069014,23.6571429 L133.478873,23.6571429 L133.478873,34.3619048 L133.55493,34.8952381 L133.669014,35.4285714 L133.859155,35.9619048 L134.125352,36.4190476 L134.467606,36.8 L134.847887,37.1428571 L135.114085,37.2952381 L135.41831,37.3714286 L135.722535,37.4095238 L136.026761,37.3714286 L136.330986,37.2952381 L136.597183,37.1809524 L137.053521,36.8380952 L137.433803,36.4190476 L137.738028,35.9619048 L138.004225,35.4666667 L138.194366,34.9333333 L138.308451,34.3619048 L138.384507,33.5238095 L138.992958,33.5238095 L138.95493,34.0952381 L138.840845,34.6666667 L138.688732,35.2380952 L138.460563,35.7714286 L138.194366,36.2666667 L137.928169,36.647619 L137.623944,36.9904762 L137.28169,37.2952381 L136.901408,37.5619048 L136.483099,37.752381 L136.026761,37.9047619 L135.570423,38.0190476 L135.114085,38.0571429 L134.657746,38.0190476 L134.201408,37.9047619 L133.74507,37.752381 L133.326761,37.5619048 L132.946479,37.2952381 L132.604225,36.9904762 L132.3,36.647619 L132.033803,36.2666667 L131.729577,35.7333333 L131.501408,35.1619048 L131.349296,34.5904762 L131.235211,33.9809524 L131.197183,33.3714286 L131.197183,14.5904762 L131.235211,13.9809524 L131.349296,13.3714286 L131.501408,12.8 L131.729577,12.2285714 L132.033803,11.6952381 L132.3,11.3142857 L132.604225,10.9714286 L132.946479,10.6666667 L133.326761,10.4 L133.74507,10.2095238 L134.201408,10.0571429 L134.657746,9.94285714 L135.114085,9.9047619 L135.570423,9.94285714 L136.026761,10.0571429 L136.483099,10.2095238 L136.901408,10.4 L137.28169,10.6666667 L137.623944,10.9714286 L137.966197,11.2761905 L137.966197,11.2761905 Z M136.825352,12.5714286 L136.749296,12.152381 L136.635211,11.7333333 L136.44507,11.352381 L136.178873,10.9714286 L135.988732,10.7428571 L135.722535,10.5904762 L135.456338,10.4761905 L135.152113,10.4380952 L134.847887,10.4761905 L134.58169,10.5904762 L134.315493,10.7428571 L134.125352,10.9714286 L133.821127,11.4285714 L133.592958,11.9238095 L133.478873,12.4571429 L133.440845,12.9904762 L133.440845,23.2 L136.825352,23.2 L136.825352,12.9904762 L136.825352,12.5714286 L136.825352,12.5714286 Z" id="Shape" fill="#000000" sketch:type="MSShapeGroup"></path>
            <path d="M123.515493,17.1428571 L123.971831,16.8380952 L124.352113,16.647619 L124.732394,16.4952381 L125.112676,16.3809524 L125.530986,16.3428571 L125.949296,16.3428571 L126.367606,16.4190476 L126.747887,16.5333333 L127.128169,16.7238095 L127.470423,16.952381 L127.774648,17.2952381 L128.040845,17.6761905 L128.230986,18.0952381 L128.34507,18.552381 L128.383099,19.0095238 L128.383099,35.5428571 L128.34507,36 L128.230986,36.4571429 L128.040845,36.8761905 L127.774648,37.2571429 L127.470423,37.6380952 L127.128169,37.8666667 L126.747887,38.0571429 L126.367606,38.1714286 L125.949296,38.247619 L125.530986,38.247619 L125.112676,38.2095238 L124.732394,38.0952381 L124.352113,37.9428571 L123.971831,37.752381 L123.477465,37.447619 L123.287324,37.4095238 L123.097183,37.447619 L122.94507,37.5238095 L122.830986,37.6380952 L122.75493,37.7904762 L122.640845,38.4380952 L119.408451,38.4380952 L119.408451,38.1714286 L119.560563,38.1714286 L119.788732,38.1333333 L119.978873,38.0571429 L120.169014,37.9047619 L120.321127,37.7142857 L120.397183,37.5238095 L120.435211,37.2952381 L120.435211,11.6952381 L120.397183,11.4666667 L120.321127,11.2380952 L120.169014,11.047619 L119.978873,10.9333333 L119.788732,10.8571429 L119.560563,10.8190476 L119.408451,10.8190476 L119.408451,10.2857143 L123.667606,10.2857143 L123.667606,10.8190476 L123.515493,10.8190476 L123.287324,10.8571429 L123.097183,10.9333333 L122.907042,11.047619 L122.75493,11.2380952 L122.678873,11.4666667 L122.640845,11.6952381 L122.640845,16.8761905 L122.716901,17.0285714 L122.830986,17.1428571 L122.94507,17.2190476 L123.097183,17.2571429 L123.249296,17.2571429 L123.515493,17.1428571 L123.515493,17.1428571 Z M126.101408,19.5047619 L126.025352,19.0857143 L125.911268,18.6666667 L125.721127,18.2857143 L125.45493,17.9047619 L125.264789,17.6761905 L124.998592,17.5238095 L124.732394,17.4095238 L124.428169,17.3714286 L124.123944,17.4095238 L123.857746,17.5238095 L123.591549,17.6761905 L123.401408,17.9047619 L123.097183,18.3619048 L122.869014,18.8571429 L122.75493,19.3904762 L122.678873,19.9238095 L122.678873,34.3619048 L122.75493,34.8952381 L122.869014,35.4285714 L123.097183,35.9238095 L123.401408,36.3809524 L123.591549,36.6095238 L123.857746,36.7619048 L124.123944,36.8761905 L124.428169,36.9142857 L124.732394,36.8761905 L124.998592,36.7619048 L125.264789,36.6095238 L125.45493,36.3809524 L125.721127,36 L125.911268,35.6190476 L126.025352,35.2 L126.101408,34.7809524 L126.101408,34.3619048 L126.101408,19.9238095 L126.101408,19.5047619 L126.101408,19.5047619 Z" id="Shape" fill="#000000" sketch:type="MSShapeGroup"></path>
            <path d="M115.605634,10.8190476 L115.947887,11.047619 L116.252113,11.352381 L116.51831,11.7333333 L116.708451,12.152381 L116.822535,12.5714286 L116.860563,13.0285714 L116.860563,35.8095238 L116.822535,36.2666667 L116.708451,36.7238095 L116.51831,37.1428571 L116.252113,37.5238095 L115.947887,37.8666667 L115.605634,38.0952381 L115.225352,38.2857143 L114.84507,38.4 L114.426761,38.4761905 L114.008451,38.4761905 L113.590141,38.4 L113.209859,38.2857143 L112.829577,38.1333333 L112.449296,37.9428571 L111.992958,37.6380952 L111.840845,37.5619048 L111.688732,37.5619048 L111.53662,37.6 L111.422535,37.6761905 L111.308451,37.7904762 L111.232394,37.9428571 L111.232394,45.9047619 L111.270423,46.1333333 L111.346479,46.3619048 L111.498592,46.552381 L111.688732,46.6666667 L111.878873,46.7428571 L112.107042,46.7809524 L112.259155,46.7809524 L112.259155,47.047619 L108,47.047619 L108,46.7809524 L108.152113,46.7809524 L108.380282,46.7428571 L108.608451,46.6666667 L108.798592,46.552381 L108.950704,46.3619048 L109.026761,46.1333333 L109.064789,45.9047619 L109.064789,11.4285714 L109.026761,11.2 L108.950704,11.0095238 L108.798592,10.8190476 L108.608451,10.6666667 L108.380282,10.5904762 L108.152113,10.552381 L108,10.552381 L108,10.2857143 L111.232394,10.2857143 L111.346479,10.9333333 L111.422535,11.0857143 L111.53662,11.2 L111.688732,11.2761905 L111.878873,11.3142857 L112.030986,11.2761905 L112.525352,10.9714286 L112.905634,10.7809524 L113.285915,10.6285714 L113.666197,10.5142857 L114.084507,10.4761905 L114.502817,10.4761905 L114.921127,10.552381 L115.301408,10.6666667 L115.605634,10.8190476 L115.605634,10.8190476 Z M114.388732,36.1142857 L114.502817,35.6952381 L114.578873,35.2761905 L114.578873,34.8571429 L114.578873,14.2857143 L114.578873,13.8666667 L114.502817,13.447619 L114.388732,13.0285714 L114.198592,12.647619 L113.932394,12.2666667 L113.742254,12.0380952 L113.476056,11.8857143 L113.209859,11.7714286 L112.905634,11.7333333 L112.601408,11.7714286 L112.335211,11.8857143 L112.069014,12.0380952 L111.878873,12.2666667 L111.574648,12.7238095 L111.346479,13.2190476 L111.232394,13.752381 L111.194366,14.2857143 L111.194366,34.8190476 L111.270423,35.352381 L111.384507,35.8857143 L111.612676,36.3809524 L111.916901,36.8380952 L112.107042,37.0666667 L112.373239,37.2190476 L112.639437,37.3333333 L112.943662,37.3714286 L113.247887,37.3333333 L113.514085,37.2190476 L113.780282,37.0666667 L113.970423,36.8380952 L114.23662,36.4952381 L114.388732,36.1142857 L114.388732,36.1142857 Z" id="Shape" fill="#000000" sketch:type="MSShapeGroup"></path>
            <path d="M104.46338,17.4095238 L104.46338,37.0285714 L104.501408,37.2571429 L104.577465,37.4857143 L104.691549,37.6761905 L104.88169,37.7904762 L105.071831,37.8666667 L105.3,37.9047619 L105.452113,37.9047619 L105.452113,38.4380952 L102.219718,38.4380952 L102.105634,37.7904762 L102.029577,37.6380952 L101.915493,37.5238095 L101.76338,37.447619 L101.573239,37.4095238 L101.383099,37.447619 L100.888732,37.752381 L100.546479,37.9428571 L100.166197,38.0952381 L99.7859155,38.2095238 L99.4056338,38.247619 L98.9873239,38.247619 L98.5690141,38.1714286 L98.1887324,38.0571429 L97.8084507,37.8666667 L97.4661972,37.6380952 L97.1619718,37.3333333 L96.9338028,36.952381 L96.743662,36.5333333 L96.6295775,36.1142857 L96.5915493,35.6571429 L96.5915493,23.8095238 L96.6295775,23.352381 L96.743662,22.8952381 L96.9338028,22.4761905 L97.2,22.0952381 L97.5042254,21.752381 L97.8464789,21.5238095 L98.2267606,21.3333333 L98.6070423,21.2190476 L99.0253521,21.1428571 L99.443662,21.1428571 L99.8619718,21.1809524 L100.242254,21.2952381 L100.622535,21.447619 L100.964789,21.6380952 L101.459155,21.9428571 L101.611268,21.9809524 L101.76338,21.9809524 L101.915493,21.9428571 L102.029577,21.8666667 L102.143662,21.752381 L102.219718,21.6 L102.219718,17.4095238 L102.219718,13.3714286 L102.18169,12.8380952 L102.067606,12.3047619 L101.839437,11.8095238 L101.535211,11.352381 L101.34507,11.1238095 L101.078873,10.9714286 L100.812676,10.8571429 L100.508451,10.8190476 L100.204225,10.8571429 L99.9380282,10.9714286 L99.671831,11.1238095 L99.4816901,11.352381 L99.215493,11.7333333 L99.0253521,12.1142857 L98.9112676,12.5333333 L98.8352113,12.952381 L98.8352113,13.3714286 L98.8352113,17.4095238 L98.8352113,18.0190476 L96.6295775,18.0190476 L96.6295775,17.4095238 L96.6295775,14.9714286 L96.6676056,14.3619048 L96.7816901,13.752381 L96.971831,13.1809524 L97.2,12.6095238 L97.5042254,12.0761905 L97.7704225,11.6952381 L98.0746479,11.352381 L98.4169014,11.047619 L98.7971831,10.7809524 L99.215493,10.5904762 L99.671831,10.4380952 L100.128169,10.3238095 L100.584507,10.2857143 L101.040845,10.3238095 L101.497183,10.4380952 L101.953521,10.5904762 L102.371831,10.7809524 L102.752113,11.047619 L103.094366,11.352381 L103.398592,11.6952381 L103.664789,12.0761905 L103.969014,12.6095238 L104.197183,13.1809524 L104.387324,13.752381 L104.501408,14.3619048 L104.539437,14.9714286 L104.46338,17.4095238 L104.46338,17.4095238 Z M102.18169,24.1904762 L102.067606,23.6571429 L101.839437,23.1619048 L101.535211,22.7047619 L101.34507,22.5142857 L101.078873,22.3238095 L100.812676,22.2095238 L100.508451,22.1714286 L100.204225,22.2095238 L99.9380282,22.3238095 L99.671831,22.5142857 L99.4816901,22.7047619 L99.215493,23.1238095 L99.0253521,23.5809524 L98.9112676,24.0761905 L98.8352113,24.5714286 L98.8352113,34.4380952 L98.8352113,34.8571429 L98.9112676,35.2761905 L99.0253521,35.6952381 L99.215493,36.0761905 L99.4816901,36.4571429 L99.671831,36.6857143 L99.9380282,36.8380952 L100.204225,36.952381 L100.508451,36.9904762 L100.812676,36.952381 L101.078873,36.8380952 L101.34507,36.6857143 L101.535211,36.4571429 L101.839437,36 L102.067606,35.5047619 L102.18169,34.9714286 L102.219718,34.4380952 L102.219718,24.7238095 L102.18169,24.1904762 L102.18169,24.1904762 Z" id="Shape" fill="#000000" sketch:type="MSShapeGroup"></path>
            <path d="M115.111268,52.7619048 L116.023944,53.6 L116.594366,54.0571429 L117.240845,54.4380952 L117.887324,54.7809524 L118.38169,54.9714286 L118.876056,55.047619 L119.408451,55.0857143 L119.826761,55.1619048 L119.940845,55.2380952 L119.978873,55.3142857 L120.016901,55.4285714 L119.978873,55.5428571 L119.940845,55.6571429 L119.826761,55.7333333 L119.408451,55.8095238 L115.947887,55.7333333 L113.057746,55.6952381 L110.205634,55.6952381 L107.809859,55.6952381 L105.452113,55.7333333 L101.953521,55.8095238 L101.535211,55.7333333 L101.459155,55.6571429 L101.383099,55.5428571 L101.34507,55.4285714 L101.383099,55.3142857 L101.459155,55.2380952 L101.535211,55.1619048 L101.953521,55.0857143 L102.714085,55.047619 L103.474648,54.9333333 L103.969014,54.8571429 L104.425352,54.7047619 L104.843662,54.4761905 L105.261972,54.247619 L105.642254,53.9047619 L105.870423,53.5619048 L106.060563,53.1809524 L106.212676,52.7619048 L106.250704,52.3047619 L106.212676,51.8857143 L106.13662,51.4666667 L106.022535,51.0857143 L105.794366,50.7047619 L105.528169,50.3619048 L82.7112676,21.9809524 L80.5816901,24.1904762 L78.3760563,26.3619048 L78.3760563,36.0380952 L78.4521127,37.1047619 L78.6042254,38.1714286 L78.7183099,38.6666667 L78.9464789,39.1238095 L79.2126761,39.5428571 L79.5549296,39.9238095 L79.9352113,40.2666667 L80.4295775,40.6095238 L80.9619718,40.9142857 L81.5323944,41.1047619 L82.1028169,41.2190476 L82.9014085,41.3333333 L83.6619718,41.3714286 L84.0802817,41.447619 L84.156338,41.5238095 L84.2323944,41.6380952 L84.2323944,41.752381 L84.2323944,41.8666667 L84.156338,41.9809524 L84.0802817,42.0571429 L83.6619718,42.1333333 L80.1633803,42.0571429 L77.8056338,41.9809524 L75.4098592,41.9809524 L73.0140845,41.9809524 L70.656338,42.0571429 L67.1577465,42.1333333 L66.7394366,42.0571429 L66.6633803,41.9809524 L66.5873239,41.8666667 L66.5492958,41.752381 L66.5873239,41.6380952 L66.6633803,41.5238095 L66.7394366,41.447619 L67.1577465,41.3714286 L67.9183099,41.3333333 L68.6788732,41.2190476 L69.2873239,41.1047619 L69.8577465,40.9142857 L70.3901408,40.6095238 L70.884507,40.2666667 L71.2647887,39.9238095 L71.6070423,39.5428571 L71.8732394,39.1238095 L72.0633803,38.6666667 L72.215493,38.1714286 L72.3676056,37.1047619 L72.4056338,36.0380952 L72.4056338,6.81904762 L72.3676056,5.79047619 L72.215493,4.72380952 L72.0633803,4.22857143 L71.8732394,3.77142857 L71.6070423,3.35238095 L71.2647887,2.93333333 L70.884507,2.62857143 L70.3901408,2.24761905 L69.8577465,1.98095238 L69.2873239,1.79047619 L68.6788732,1.67619048 L67.9183099,1.56190476 L67.1577465,1.52380952 L66.7394366,1.40952381 L66.6633803,1.37142857 L66.5873239,1.25714286 L66.5492958,1.14285714 L66.5873239,1.02857143 L66.6633803,0.914285714 L66.7394366,0.838095238 L67.1577465,0.761904762 L70.656338,0.838095238 L73.0140845,0.914285714 L75.4098592,0.914285714 L77.8056338,0.914285714 L80.1633803,0.838095238 L83.6619718,0.761904762 L83.8521127,0.8 L84.0802817,0.838095238 L84.156338,0.914285714 L84.2323944,1.02857143 L84.2323944,1.14285714 L84.2323944,1.25714286 L84.156338,1.37142857 L84.0802817,1.40952381 L83.6619718,1.52380952 L82.9014085,1.56190476 L82.1028169,1.67619048 L81.5323944,1.79047619 L80.9619718,1.98095238 L80.4295775,2.24761905 L79.9352113,2.62857143 L79.5549296,2.93333333 L79.2126761,3.35238095 L78.9464789,3.77142857 L78.7183099,4.22857143 L78.6042254,4.72380952 L78.3760563,6.81904762 L78.3760563,24.4952381 L81.0380282,21.7142857 L83.6239437,18.8952381 L86.171831,16 L88.6816901,13.0666667 L91.0774648,10.0571429 L93.4352113,7.04761905 L93.7774648,6.59047619 L94.043662,6.05714286 L94.271831,5.56190476 L94.4239437,4.99047619 L94.5,4.41904762 L94.5380282,4 L94.4619718,3.61904762 L94.271831,3.23809524 L94.0816901,2.8952381 L93.7774648,2.62857143 L93.2830986,2.24761905 L92.7507042,1.98095238 L92.1802817,1.79047619 L91.571831,1.67619048 L90.8112676,1.56190476 L90.0507042,1.52380952 L89.6323944,1.40952381 L89.5183099,1.37142857 L89.4802817,1.25714286 L89.4422535,1.14285714 L89.4802817,1.02857143 L89.5183099,0.914285714 L89.6323944,0.838095238 L90.0507042,0.761904762 L93.5112676,0.838095238 L95.9070423,0.914285714 L98.3028169,0.914285714 L99.1014085,0.838095238 L102.6,0.761904762 L103.01831,0.838095238 L103.094366,0.914285714 L103.170423,1.02857143 L103.208451,1.14285714 L103.170423,1.25714286 L103.094366,1.37142857 L103.01831,1.40952381 L102.6,1.52380952 L101.839437,1.56190476 L101.078873,1.67619048 L100.584507,1.82857143 L100.090141,2.05714286 L99.6338028,2.32380952 L98.9112676,2.93333333 L98.2267606,3.61904762 L97.5802817,4.3047619 L97.0098592,5.06666667 L94.9943662,7.65714286 L92.9788732,10.247619 L90.8873239,12.7619048 L88.7577465,15.2761905 L86.5901408,17.752381 L95.4126761,28.7238095 L95.4126761,35.6571429 L95.4507042,36.1904762 L95.5647887,36.7238095 L95.7549296,37.2190476 L96.0211268,37.6761905 L96.3253521,38.0952381 L96.6676056,38.4761905 L97.1239437,38.7809524 L97.5802817,39.0095238 L98.0746479,39.1619048 L98.5690141,39.2761905 L99.1014085,39.3142857 L99.6338028,39.3142857 L100.128169,39.2 L100.622535,39.047619 L101.116901,38.8571429 L101.192958,39.4666667 L104.083099,39.4666667 L107.809859,44.152381 L107.809859,45.7142857 L106.783099,45.7142857 L106.783099,48.1142857 L111.042254,48.1142857 L113.323944,50.9714286 L114.198592,51.8857143 L115.111268,52.7619048 Z" id="Shape" fill="#000000" sketch:type="MSShapeGroup"></path>
            <rect id="Rectangle-path" fill="#891A1B" sketch:type="MSShapeGroup" x="-5.40412785e-15" y="41.1428571" width="64.4957746" height="0.8"></rect>
            <g id="Group" transform="translate(21.973577, 0.005695)" fill="#000000" sketch:type="MSShapeGroup">
                <path d="M1.2828169,2.83297959 L3.23492958,6.40043537 L5.18704225,2.83297959 L4.79661972,2.83297959 C4.51774648,2.83297959 4.40619718,2.78051701 4.40619718,2.62312925 C4.40619718,2.4657415 4.51774648,2.36081633 4.79661972,2.36081633 L5.96788732,2.36081633 C6.24676056,2.36081633 6.35830986,2.4657415 6.35830986,2.62312925 C6.35830986,2.78051701 6.24676056,2.83297959 5.96788732,2.83297959 L5.68901408,2.83297959 L3.01183099,7.76446259 C2.78873239,8.18416327 2.5656338,8.44647619 2.39830986,8.60386395 C2.17521127,8.7612517 1.95211268,8.86617687 1.72901408,8.86617687 C1.50591549,8.86617687 1.33859155,8.86617687 1.22704225,8.81371429 C1.05971831,8.7612517 0.948169014,8.70878912 0.892394366,8.65632653 C0.836619718,8.60386395 0.836619718,8.49893878 0.836619718,8.34155102 L0.836619718,7.712 C0.836619718,7.44968707 0.892394366,7.3447619 1.05971831,7.3447619 C1.22704225,7.3447619 1.2828169,7.44968707 1.2828169,7.712 L1.2828169,8.39401361 C1.3943662,8.44647619 1.56169014,8.44647619 1.67323944,8.44647619 C1.89633803,8.44647619 2.06366197,8.39401361 2.17521127,8.28908844 C2.28676056,8.18416327 2.45408451,7.97431293 2.6771831,7.60707483 L3.01183099,6.97752381 L0.836619718,2.93790476 L0.557746479,2.93790476 C0.278873239,2.93790476 0.167323944,2.88544218 0.167323944,2.72805442 C0.167323944,2.57066667 0.278873239,2.4657415 0.557746479,2.4657415 L1.78478873,2.4657415 C2.06366197,2.4657415 2.17521127,2.57066667 2.17521127,2.72805442 C2.17521127,2.88544218 2.06366197,2.93790476 1.78478873,2.93790476 L1.2828169,2.93790476 L1.2828169,2.83297959 Z" id="Shape"></path>
                <path d="M11.2664789,6.6627483 L11.2664789,4.93148299 C10.6529577,5.35118367 9.98366197,5.56103401 9.2028169,5.56103401 C8.81239437,5.56103401 8.42197183,5.45610884 8.14309859,5.29872109 C7.86422535,5.14133333 7.69690141,4.72163265 7.69690141,4.09208163 L7.69690141,2.78051701 L7.25070423,2.78051701 C6.97183099,2.78051701 6.86028169,2.72805442 6.86028169,2.57066667 C6.86028169,2.41327891 6.97183099,2.30835374 7.25070423,2.30835374 L8.75661972,2.30835374 C9.03549296,2.30835374 9.14704225,2.41327891 9.14704225,2.57066667 C9.14704225,2.72805442 9.03549296,2.78051701 8.75661972,2.78051701 L8.19887324,2.78051701 L8.19887324,4.09208163 C8.19887324,4.45931973 8.25464789,4.72163265 8.42197183,4.87902041 C8.58929577,5.03640816 8.86816901,5.08887075 9.25859155,5.08887075 C9.87211268,5.08887075 10.5414085,4.82655782 11.3222535,4.35439456 L11.3222535,2.78051701 L10.8202817,2.78051701 C10.5414085,2.78051701 10.4298592,2.72805442 10.4298592,2.57066667 C10.4298592,2.41327891 10.5414085,2.30835374 10.8202817,2.30835374 L12.2704225,2.30835374 C12.5492958,2.30835374 12.6608451,2.41327891 12.6608451,2.57066667 C12.6608451,2.72805442 12.5492958,2.78051701 12.2704225,2.78051701 L11.7684507,2.78051701 L11.7684507,6.6627483 L12.2704225,6.6627483 C12.5492958,6.6627483 12.6608451,6.71521088 12.6608451,6.87259864 C12.6608451,7.02998639 12.5492958,7.08244898 12.2704225,7.08244898 L10.0394366,7.08244898 C9.76056338,7.08244898 9.64901408,7.02998639 9.64901408,6.87259864 C9.64901408,6.71521088 9.76056338,6.6627483 10.0394366,6.6627483 L11.2664789,6.6627483 L11.2664789,6.6627483 Z" id="Shape"></path>
                <path d="M19.0749296,4.82655782 L14.3898592,4.82655782 C14.4456338,5.40364626 14.724507,5.92827211 15.1149296,6.2955102 C15.5053521,6.6627483 16.0630986,6.87259864 16.6766197,6.87259864 C17.0112676,6.87259864 17.4016901,6.82013605 17.736338,6.71521088 C18.1267606,6.61028571 18.4056338,6.45289796 18.6287324,6.24304762 C18.684507,6.19058503 18.7402817,6.13812245 18.7960563,6.13812245 C18.851831,6.13812245 18.9076056,6.13812245 18.9633803,6.19058503 C19.0191549,6.24304762 19.0191549,6.2955102 19.0191549,6.34797279 C19.0191549,6.40043537 18.9633803,6.45289796 18.9076056,6.50536054 C18.7402817,6.71521088 18.4056338,6.87259864 17.9594366,7.02998639 C17.5132394,7.18737415 17.0670423,7.29229932 16.5650704,7.29229932 C15.7842254,7.29229932 15.1149296,7.02998639 14.6129577,6.50536054 C14.1109859,5.98073469 13.8321127,5.35118367 13.8321127,4.61670748 C13.8321127,3.93469388 14.0552113,3.35760544 14.5571831,2.88544218 C15.0591549,2.41327891 15.6726761,2.15096599 16.3977465,2.15096599 C17.1228169,2.15096599 17.7921127,2.41327891 18.2383099,2.88544218 C18.7960563,3.41006803 19.0749296,4.03961905 19.0749296,4.82655782 L19.0749296,4.82655782 Z M18.5729577,4.40685714 C18.4614085,3.88223129 18.2383099,3.46253061 17.8478873,3.1477551 C17.4574648,2.83297959 17.0112676,2.67559184 16.4535211,2.67559184 C15.8957746,2.67559184 15.4495775,2.83297959 15.0591549,3.1477551 C14.6687324,3.46253061 14.4456338,3.88223129 14.3340845,4.40685714 L18.5729577,4.40685714 L18.5729577,4.40685714 Z" id="Shape"></path>
                <path d="M21.1385915,3.25268027 C21.696338,2.51820408 22.4214085,2.15096599 23.3695775,2.15096599 C24.2061972,2.15096599 24.8197183,2.41327891 25.3216901,2.88544218 C25.823662,3.35760544 26.0467606,3.98715646 26.0467606,4.72163265 C26.0467606,5.45610884 25.823662,6.03319728 25.3216901,6.55782313 C24.8197183,7.02998639 24.2061972,7.29229932 23.3695775,7.29229932 C22.811831,7.29229932 22.3098592,7.18737415 21.863662,6.92506122 C21.4732394,6.6627483 21.1385915,6.34797279 20.9712676,5.98073469 C20.8039437,5.6134966 20.6923944,5.03640816 20.6923944,4.30193197 C20.6923944,3.30514286 20.748169,2.57066667 20.8597183,2.20342857 C20.9712676,1.83619048 21.1943662,1.52141497 21.5290141,1.25910204 C21.8078873,1.0492517 22.2540845,0.944326531 22.811831,0.944326531 L23.8715493,0.944326531 C24.4292958,0.944326531 24.708169,0.839401361 24.8197183,0.62955102 C24.875493,0.52462585 24.875493,0.41970068 24.9312676,0.41970068 C24.9870423,0.367238095 24.9870423,0.367238095 25.0985915,0.367238095 C25.2659155,0.367238095 25.3774648,0.472163265 25.3774648,0.62955102 C25.3774648,0.839401361 25.2659155,0.996789116 25.0985915,1.20663946 C24.875493,1.36402721 24.5408451,1.46895238 24.0388732,1.46895238 L22.9233803,1.46895238 C22.5329577,1.46895238 22.2540845,1.52141497 22.0309859,1.67880272 C21.8078873,1.78372789 21.6405634,1.99357823 21.5290141,2.20342857 C21.2501408,2.36081633 21.1943662,2.72805442 21.1385915,3.25268027 L21.1385915,3.25268027 Z M21.1385915,4.72163265 C21.1385915,5.2462585 21.3059155,5.71842177 21.696338,6.19058503 C22.0867606,6.61028571 22.5887324,6.82013605 23.3138028,6.82013605 C23.9830986,6.82013605 24.4850704,6.61028571 24.875493,6.19058503 C25.2659155,5.77088435 25.4890141,5.29872109 25.4890141,4.72163265 C25.4890141,4.14454422 25.2659155,3.61991837 24.875493,3.25268027 C24.4850704,2.83297959 23.9273239,2.62312925 23.3138028,2.62312925 C22.644507,2.62312925 22.1425352,2.83297959 21.696338,3.25268027 C21.3059155,3.67238095 21.1385915,4.14454422 21.1385915,4.72163265 L21.1385915,4.72163265 Z" id="Shape"></path>
                <path d="M31.5126761,4.82655782 L28.5566197,4.82655782 L28.5566197,6.6627483 L29.0585915,6.6627483 C29.2816901,6.6627483 29.3374648,6.71521088 29.3374648,6.87259864 C29.3374648,7.02998639 29.2259155,7.08244898 29.0585915,7.08244898 L27.5526761,7.08244898 C27.3295775,7.08244898 27.2738028,7.02998639 27.2738028,6.87259864 C27.2738028,6.71521088 27.3853521,6.6627483 27.5526761,6.6627483 L28.0546479,6.6627483 L28.0546479,2.78051701 L27.72,2.78051701 C27.4969014,2.78051701 27.4411268,2.72805442 27.4411268,2.57066667 C27.4411268,2.41327891 27.5526761,2.30835374 27.72,2.30835374 L28.8912676,2.30835374 C29.1143662,2.30835374 29.1701408,2.41327891 29.1701408,2.57066667 C29.1701408,2.72805442 29.0585915,2.78051701 28.8912676,2.78051701 L28.5566197,2.78051701 L28.5566197,4.35439456 L31.5126761,4.35439456 L31.5126761,2.78051701 L31.1780282,2.78051701 C30.9549296,2.78051701 30.8433803,2.72805442 30.8433803,2.57066667 C30.8433803,2.41327891 30.9549296,2.30835374 31.1780282,2.30835374 L32.3492958,2.30835374 C32.5723944,2.30835374 32.628169,2.41327891 32.628169,2.57066667 C32.628169,2.72805442 32.5166197,2.78051701 32.3492958,2.78051701 L32.0146479,2.78051701 L32.0146479,6.6627483 L32.5166197,6.6627483 C32.7397183,6.6627483 32.795493,6.71521088 32.795493,6.87259864 C32.795493,7.02998639 32.6839437,7.08244898 32.5166197,7.08244898 L31.0107042,7.08244898 C30.7876056,7.08244898 30.731831,7.02998639 30.731831,6.87259864 C30.731831,6.71521088 30.8433803,6.6627483 31.0107042,6.6627483 L31.5126761,6.6627483 L31.5126761,4.82655782 L31.5126761,4.82655782 Z" id="Shape"></path>
                <path d="M39.3211268,4.77409524 C39.3211268,5.50857143 39.0980282,6.08565986 38.5960563,6.61028571 C38.0940845,7.13491156 37.4805634,7.3447619 36.755493,7.3447619 C36.0304225,7.3447619 35.4169014,7.08244898 34.9149296,6.61028571 C34.4129577,6.08565986 34.1898592,5.50857143 34.1898592,4.77409524 C34.1898592,4.03961905 34.4129577,3.46253061 34.9149296,2.93790476 C35.4169014,2.41327891 36.0304225,2.20342857 36.755493,2.20342857 C37.4805634,2.20342857 38.0940845,2.4657415 38.5960563,2.93790476 C39.0422535,3.41006803 39.3211268,4.03961905 39.3211268,4.77409524 L39.3211268,4.77409524 Z M38.8191549,4.77409524 C38.8191549,4.1970068 38.5960563,3.67238095 38.2056338,3.30514286 C37.8152113,2.88544218 37.3132394,2.67559184 36.6997183,2.67559184 C36.1419718,2.67559184 35.64,2.88544218 35.1938028,3.30514286 C34.8033803,3.72484354 34.5802817,4.1970068 34.5802817,4.77409524 C34.5802817,5.35118367 34.8033803,5.82334694 35.1938028,6.24304762 C35.5842254,6.6627483 36.0861972,6.87259864 36.6997183,6.87259864 C37.2574648,6.87259864 37.7594366,6.6627483 38.2056338,6.24304762 C38.651831,5.82334694 38.8191549,5.35118367 38.8191549,4.77409524 L38.8191549,4.77409524 Z" id="Shape"></path>
            </g>
            <g id="Group" transform="translate(8.587662, 13.645967)" fill="#000000" sketch:type="MSShapeGroup">
                <path d="M5.2428169,2.78051701 C4.96394366,2.78051701 4.79661972,2.83297959 4.62929577,2.88544218 C4.46197183,2.93790476 4.29464789,3.20021769 3.96,3.56745578 C3.56957746,4.03961905 3.29070423,4.35439456 3.06760563,4.45931973 C3.23492958,4.51178231 3.40225352,4.5642449 3.56957746,4.66917007 C3.73690141,4.77409524 3.96,5.03640816 4.29464789,5.50857143 L5.07549296,6.61028571 L5.74478873,6.61028571 C6.02366197,6.61028571 6.13521127,6.6627483 6.13521127,6.82013605 C6.13521127,6.97752381 6.02366197,7.02998639 5.74478873,7.02998639 L5.07549296,7.02998639 C4.90816901,7.02998639 4.74084507,6.97752381 4.68507042,6.87259864 C4.68507042,6.87259864 4.62929577,6.82013605 4.62929577,6.76767347 L3.8484507,5.6134966 C3.56957746,5.19379592 3.34647887,4.98394558 3.06760563,4.82655782 C2.78873239,4.72163265 2.45408451,4.66917007 2.06366197,4.66917007 L1.72901408,4.66917007 L1.72901408,6.55782313 L2.28676056,6.55782313 C2.5656338,6.55782313 2.6771831,6.61028571 2.6771831,6.76767347 C2.6771831,6.92506122 2.5656338,6.97752381 2.28676056,6.97752381 L0.725070423,6.97752381 C0.446197183,6.97752381 0.334647887,6.92506122 0.334647887,6.76767347 C0.334647887,6.61028571 0.446197183,6.55782313 0.725070423,6.55782313 L1.2828169,6.55782313 L1.2828169,2.67559184 L0.725070423,2.67559184 C0.446197183,2.67559184 0.334647887,2.62312925 0.334647887,2.4657415 C0.334647887,2.30835374 0.446197183,2.20342857 0.725070423,2.20342857 L2.28676056,2.20342857 C2.5656338,2.20342857 2.6771831,2.30835374 2.6771831,2.4657415 C2.6771831,2.62312925 2.5656338,2.67559184 2.28676056,2.67559184 L1.72901408,2.67559184 L1.72901408,4.1970068 L2.06366197,4.1970068 C2.34253521,4.1970068 2.5656338,4.14454422 2.73295775,4.03961905 C2.90028169,3.93469388 3.12338028,3.72484354 3.34647887,3.41006803 C3.79267606,2.83297959 4.12732394,2.51820408 4.29464789,2.36081633 C4.51774648,2.20342857 4.79661972,2.15096599 5.18704225,2.15096599 C5.3543662,2.15096599 5.52169014,2.15096599 5.57746479,2.20342857 C5.63323944,2.25589116 5.68901408,2.36081633 5.68901408,2.51820408 L5.68901408,3.1477551 C5.68901408,3.35760544 5.63323944,3.46253061 5.46591549,3.46253061 C5.29859155,3.46253061 5.2428169,3.35760544 5.2428169,3.1477551 L5.2428169,2.78051701 L5.2428169,2.78051701 Z" id="Shape"></path>
                <path d="M11.0991549,7.08244898 L11.0991549,6.40043537 C10.4298592,6.97752381 9.70478873,7.23983673 8.97971831,7.23983673 C8.42197183,7.23983673 7.97577465,7.08244898 7.69690141,6.82013605 C7.36225352,6.55782313 7.25070423,6.19058503 7.25070423,5.77088435 C7.25070423,5.29872109 7.47380282,4.93148299 7.86422535,4.61670748 C8.25464789,4.30193197 8.86816901,4.09208163 9.64901408,4.09208163 C9.87211268,4.09208163 10.0952113,4.09208163 10.3183099,4.14454422 C10.5414085,4.1970068 10.8202817,4.1970068 11.0991549,4.24946939 L11.0991549,3.5149932 C11.0991549,3.25268027 10.9876056,3.04282993 10.764507,2.83297959 C10.5414085,2.62312925 10.2067606,2.57066667 9.70478873,2.57066667 C9.37014085,2.57066667 8.86816901,2.67559184 8.19887324,2.88544218 C8.08732394,2.93790476 8.0315493,2.93790476 7.97577465,2.93790476 C7.92,2.93790476 7.86422535,2.93790476 7.8084507,2.88544218 C7.75267606,2.83297959 7.75267606,2.78051701 7.75267606,2.72805442 C7.75267606,2.67559184 7.75267606,2.62312925 7.8084507,2.57066667 C7.86422535,2.51820408 8.08732394,2.4657415 8.42197183,2.36081633 C8.97971831,2.20342857 9.42591549,2.15096599 9.70478873,2.15096599 C10.2625352,2.15096599 10.7087324,2.30835374 11.0433803,2.57066667 C11.3780282,2.83297959 11.5453521,3.20021769 11.5453521,3.56745578 L11.5453521,6.6627483 L12.1588732,6.6627483 C12.2704225,6.6627483 12.3261972,6.6627483 12.3819718,6.71521088 C12.4377465,6.76767347 12.4377465,6.82013605 12.4377465,6.87259864 C12.4377465,6.92506122 12.4377465,6.97752381 12.3819718,7.02998639 C12.3261972,7.08244898 12.2704225,7.08244898 12.1588732,7.08244898 L11.0991549,7.08244898 L11.0991549,7.08244898 Z M11.0991549,4.77409524 C10.8760563,4.72163265 10.6529577,4.66917007 10.4298592,4.61670748 C10.2067606,4.5642449 9.92788732,4.5642449 9.64901408,4.5642449 C8.97971831,4.5642449 8.47774648,4.72163265 8.08732394,4.98394558 C7.8084507,5.19379592 7.64112676,5.45610884 7.64112676,5.77088435 C7.64112676,6.03319728 7.75267606,6.2955102 7.97577465,6.50536054 C8.19887324,6.71521088 8.53352113,6.76767347 8.92394366,6.76767347 C9.3143662,6.76767347 9.70478873,6.6627483 10.0394366,6.50536054 C10.3740845,6.34797279 10.7087324,6.08565986 11.0991549,5.71842177 L11.0991549,4.77409524 L11.0991549,4.77409524 Z" id="Shape"></path>
                <path d="M18.9076056,7.08244898 L14.1109859,7.08244898 L14.1109859,7.92185034 C14.1109859,8.13170068 14.0552113,8.28908844 13.8878873,8.28908844 C13.7205634,8.28908844 13.6647887,8.18416327 13.6647887,7.92185034 L13.6647887,7.02998639 C13.6647887,6.82013605 13.6647887,6.71521088 13.7205634,6.71521088 C13.776338,6.6627483 13.8321127,6.6627483 13.943662,6.6627483 C14.2225352,6.6627483 14.5014085,6.50536054 14.8360563,6.2955102 C15.1707042,6.03319728 15.3380282,5.56103401 15.3380282,4.82655782 L15.3380282,2.83297959 L14.724507,2.83297959 C14.4456338,2.83297959 14.3340845,2.78051701 14.3340845,2.62312925 C14.3340845,2.4657415 14.4456338,2.36081633 14.724507,2.36081633 L18.9633803,2.36081633 C19.2422535,2.36081633 19.3538028,2.4657415 19.3538028,2.62312925 C19.3538028,2.78051701 19.2422535,2.83297959 18.9633803,2.83297959 L18.5171831,2.83297959 L18.5171831,6.71521088 L18.9633803,6.71521088 C19.1307042,6.71521088 19.2422535,6.71521088 19.2980282,6.76767347 C19.3538028,6.82013605 19.3538028,6.92506122 19.3538028,7.08244898 L19.3538028,7.97431293 C19.3538028,8.23662585 19.2980282,8.34155102 19.1307042,8.34155102 C18.9633803,8.34155102 18.9076056,8.23662585 18.9076056,7.97431293 L18.9076056,7.08244898 L18.9076056,7.08244898 Z M15.84,2.78051701 L15.84,4.77409524 C15.84,5.66595918 15.5611268,6.2955102 15.0591549,6.6627483 L18.0709859,6.6627483 L18.0709859,2.78051701 L15.84,2.78051701 L15.84,2.78051701 Z" id="Shape"></path>
                <path d="M21.5290141,2.30835374 L21.5290141,3.1477551 C21.8078873,2.83297959 22.0867606,2.57066667 22.4214085,2.41327891 C22.7560563,2.25589116 23.0907042,2.15096599 23.5369014,2.15096599 C23.9830986,2.15096599 24.4292958,2.25589116 24.7639437,2.4657415 C25.1543662,2.67559184 25.4332394,2.99036735 25.656338,3.35760544 C25.8794366,3.72484354 25.9909859,4.14454422 25.9909859,4.5642449 C25.9909859,5.2462585 25.7678873,5.82334694 25.2659155,6.2955102 C24.8197183,6.76767347 24.2061972,7.02998639 23.5369014,7.02998639 C22.7002817,7.02998639 22.0309859,6.71521088 21.5290141,6.03319728 L21.5290141,8.81371429 L22.644507,8.81371429 C22.7560563,8.81371429 22.811831,8.81371429 22.8676056,8.86617687 C22.9233803,8.91863946 22.9233803,8.97110204 22.9233803,9.02356463 C22.9233803,9.07602721 22.9233803,9.1284898 22.8676056,9.18095238 C22.811831,9.23341497 22.7560563,9.23341497 22.644507,9.23341497 L20.4692958,9.23341497 C20.3577465,9.23341497 20.3019718,9.23341497 20.2461972,9.18095238 C20.1904225,9.1284898 20.1904225,9.07602721 20.1904225,9.02356463 C20.1904225,8.97110204 20.1904225,8.91863946 20.2461972,8.86617687 C20.3019718,8.81371429 20.3577465,8.81371429 20.4692958,8.81371429 L21.0828169,8.81371429 L21.0828169,2.83297959 L20.4692958,2.83297959 C20.3577465,2.83297959 20.3019718,2.83297959 20.2461972,2.78051701 C20.1904225,2.72805442 20.1904225,2.67559184 20.1904225,2.62312925 C20.1904225,2.57066667 20.1904225,2.51820408 20.2461972,2.4657415 C20.3019718,2.41327891 20.3577465,2.41327891 20.4692958,2.41327891 L21.5290141,2.41327891 L21.5290141,2.30835374 Z M25.4890141,4.5642449 C25.4890141,4.03961905 25.3216901,3.56745578 24.9312676,3.20021769 C24.5408451,2.83297959 24.0946479,2.62312925 23.5369014,2.62312925 C22.9791549,2.62312925 22.5329577,2.83297959 22.1425352,3.20021769 C21.7521127,3.56745578 21.5847887,4.03961905 21.5847887,4.5642449 C21.5847887,5.08887075 21.7521127,5.56103401 22.1425352,5.92827211 C22.5329577,6.2955102 22.9791549,6.50536054 23.5369014,6.50536054 C24.0946479,6.50536054 24.5408451,6.2955102 24.9312676,5.92827211 C25.3216901,5.56103401 25.4890141,5.08887075 25.4890141,4.5642449 L25.4890141,4.5642449 Z" id="Shape"></path>
                <path d="M32.5166197,4.72163265 C32.5166197,5.45610884 32.2935211,6.03319728 31.7915493,6.55782313 C31.2895775,7.08244898 30.6760563,7.29229932 29.9509859,7.29229932 C29.2259155,7.29229932 28.6123944,7.02998639 28.1104225,6.55782313 C27.6084507,6.03319728 27.3853521,5.45610884 27.3853521,4.72163265 C27.3853521,3.98715646 27.6084507,3.41006803 28.1104225,2.88544218 C28.6123944,2.36081633 29.2259155,2.15096599 29.9509859,2.15096599 C30.6760563,2.15096599 31.2895775,2.41327891 31.7915493,2.88544218 C32.2935211,3.41006803 32.5166197,3.98715646 32.5166197,4.72163265 L32.5166197,4.72163265 Z M32.0704225,4.72163265 C32.0704225,4.14454422 31.8473239,3.61991837 31.4569014,3.25268027 C31.0664789,2.83297959 30.564507,2.62312925 29.9509859,2.62312925 C29.3374648,2.62312925 28.8912676,2.83297959 28.4450704,3.25268027 C28.0546479,3.67238095 27.8315493,4.14454422 27.8315493,4.72163265 C27.8315493,5.29872109 28.0546479,5.77088435 28.4450704,6.19058503 C28.835493,6.61028571 29.3374648,6.82013605 29.9509859,6.82013605 C30.564507,6.82013605 31.0107042,6.61028571 31.4569014,6.19058503 C31.8473239,5.77088435 32.0704225,5.29872109 32.0704225,4.72163265 L32.0704225,4.72163265 Z" id="Shape"></path>
                <path d="M34.9149296,6.6627483 L34.9149296,2.78051701 L34.3014085,2.78051701 C34.0783099,2.78051701 34.0225352,2.72805442 34.0225352,2.57066667 C34.0225352,2.41327891 34.1340845,2.30835374 34.3014085,2.30835374 L36.8112676,2.30835374 C38.0383099,2.30835374 38.651831,2.72805442 38.651831,3.5149932 C38.651831,4.03961905 38.3171831,4.35439456 37.703662,4.45931973 C38.651831,4.5642449 39.1538028,5.03640816 39.1538028,5.71842177 C39.1538028,6.61028571 38.5402817,7.08244898 37.3690141,7.08244898 L34.3014085,7.08244898 C34.0783099,7.08244898 34.0225352,7.02998639 34.0225352,6.87259864 C34.0225352,6.71521088 34.1340845,6.6627483 34.3014085,6.6627483 L34.9149296,6.6627483 L34.9149296,6.6627483 Z M35.3611268,4.24946939 L36.588169,4.24946939 C37.6478873,4.24946939 38.2056338,3.98715646 38.2056338,3.46253061 C38.2056338,3.25268027 38.0940845,3.09529252 37.9267606,2.93790476 C37.7594366,2.83297959 37.3690141,2.72805442 36.8112676,2.72805442 L35.4169014,2.72805442 L35.4169014,4.24946939 L35.3611268,4.24946939 Z M35.3611268,6.6627483 L37.3132394,6.6627483 C38.2056338,6.6627483 38.7076056,6.34797279 38.7076056,5.77088435 C38.7076056,5.45610884 38.5960563,5.2462585 38.3729577,5.03640816 C38.1498592,4.82655782 37.5921127,4.72163265 36.6997183,4.72163265 L35.4169014,4.72163265 L35.4169014,6.6627483 L35.3611268,6.6627483 Z" id="Shape"></path>
                <path d="M41.2174648,2.78051701 L41.2174648,4.35439456 L42.2771831,4.35439456 C43.6715493,4.35439456 44.3966197,4.77409524 44.3966197,5.66595918 C44.3966197,6.03319728 44.2850704,6.40043537 44.0619718,6.6627483 C43.8388732,6.97752381 43.2253521,7.08244898 42.2771831,7.08244898 L40.4923944,7.08244898 C40.2692958,7.08244898 40.2135211,7.02998639 40.2135211,6.87259864 C40.2135211,6.71521088 40.3250704,6.6627483 40.4923944,6.6627483 L40.7712676,6.6627483 L40.7712676,2.78051701 L40.548169,2.78051701 C40.3250704,2.78051701 40.2135211,2.72805442 40.2135211,2.57066667 C40.2135211,2.41327891 40.3250704,2.30835374 40.548169,2.30835374 L41.8867606,2.30835374 C42.1098592,2.30835374 42.1656338,2.41327891 42.1656338,2.57066667 C42.1656338,2.72805442 42.0540845,2.78051701 41.8867606,2.78051701 L41.2174648,2.78051701 L41.2174648,2.78051701 Z M41.2174648,6.6627483 L42.2771831,6.6627483 C42.8907042,6.6627483 43.3369014,6.61028571 43.6157746,6.45289796 C43.8388732,6.2955102 43.9504225,6.08565986 43.9504225,5.71842177 C43.9504225,5.40364626 43.8388732,5.14133333 43.56,5.03640816 C43.2811268,4.93148299 42.8907042,4.82655782 42.2771831,4.82655782 L41.2174648,4.82655782 L41.2174648,6.6627483 L41.2174648,6.6627483 Z M45.7909859,2.78051701 L45.7909859,6.6627483 L46.404507,6.6627483 C46.6276056,6.6627483 46.7391549,6.71521088 46.7391549,6.87259864 C46.7391549,7.02998639 46.6276056,7.08244898 46.404507,7.08244898 L44.7312676,7.08244898 C44.508169,7.08244898 44.4523944,7.02998639 44.4523944,6.87259864 C44.4523944,6.71521088 44.5639437,6.6627483 44.7312676,6.6627483 L45.3447887,6.6627483 L45.3447887,2.78051701 L44.7312676,2.78051701 C44.508169,2.78051701 44.4523944,2.72805442 44.4523944,2.57066667 C44.4523944,2.41327891 44.5639437,2.30835374 44.7312676,2.30835374 L46.404507,2.30835374 C46.6276056,2.30835374 46.7391549,2.41327891 46.7391549,2.57066667 C46.7391549,2.72805442 46.6276056,2.78051701 46.404507,2.78051701 L45.7909859,2.78051701 L45.7909859,2.78051701 Z" id="Shape"></path>
                <path d="M48.468169,7.08244898 L47.3526761,7.08244898 C47.1295775,7.08244898 47.0738028,7.02998639 47.0738028,6.87259864 C47.0738028,6.71521088 47.1853521,6.6627483 47.3526761,6.6627483 L47.9104225,6.6627483 L47.9104225,2.78051701 L47.3526761,2.78051701 C47.1295775,2.78051701 47.0738028,2.72805442 47.0738028,2.57066667 C47.0738028,2.41327891 47.1853521,2.30835374 47.3526761,2.30835374 L48.9701408,2.30835374 C49.1932394,2.30835374 49.2490141,2.41327891 49.2490141,2.57066667 C49.2490141,2.72805442 49.1374648,2.78051701 48.9701408,2.78051701 L48.3566197,2.78051701 L48.3566197,6.45289796 L51.6473239,2.30835374 L52.8185915,2.30835374 C53.0416901,2.30835374 53.0974648,2.41327891 53.0974648,2.57066667 C53.0974648,2.72805442 52.9859155,2.78051701 52.8185915,2.78051701 L52.2050704,2.78051701 L52.2050704,6.6627483 L52.8185915,6.6627483 C53.0416901,6.6627483 53.0974648,6.71521088 53.0974648,6.87259864 C53.0974648,7.02998639 52.9859155,7.08244898 52.8185915,7.08244898 L51.1453521,7.08244898 C50.9222535,7.08244898 50.8664789,7.02998639 50.8664789,6.87259864 C50.8664789,6.71521088 50.9780282,6.6627483 51.1453521,6.6627483 L51.7588732,6.6627483 L51.7588732,2.99036735 L48.468169,7.08244898 L48.468169,7.08244898 Z M48.8028169,0.157387755 C48.8585915,0.157387755 48.9143662,0.157387755 48.9701408,0.20985034 C49.0259155,0.262312925 49.0259155,0.31477551 49.0259155,0.41970068 C49.0259155,0.62955102 49.1932394,0.839401361 49.3605634,0.996789116 C49.583662,1.15417687 49.8625352,1.25910204 50.1971831,1.25910204 C50.531831,1.25910204 50.8107042,1.15417687 51.0338028,0.996789116 C51.2569014,0.839401361 51.3684507,0.62955102 51.3684507,0.41970068 C51.3684507,0.31477551 51.4242254,0.262312925 51.4242254,0.20985034 C51.48,0.157387755 51.5357746,0.157387755 51.5915493,0.157387755 C51.6473239,0.157387755 51.7030986,0.157387755 51.7588732,0.20985034 C51.8146479,0.262312925 51.8146479,0.31477551 51.8146479,0.41970068 C51.8146479,0.73447619 51.6473239,1.0492517 51.3684507,1.31156463 C51.0895775,1.57387755 50.6991549,1.73126531 50.1414085,1.73126531 C49.6394366,1.73126531 49.2490141,1.57387755 48.9143662,1.31156463 C48.635493,1.0492517 48.468169,0.73447619 48.468169,0.41970068 C48.468169,0.367238095 48.468169,0.262312925 48.5239437,0.20985034 C48.6912676,0.157387755 48.7470423,0.157387755 48.8028169,0.157387755 L48.8028169,0.157387755 Z" id="Shape"></path>
            </g>
            <g id="Group" transform="translate(28.666535, 28.860117)" fill="#000000" sketch:type="MSShapeGroup">
                <path d="M5.57746479,5.50857143 L0.557746479,5.50857143 C0.334647887,5.50857143 0.278873239,5.45610884 0.278873239,5.29872109 C0.278873239,5.14133333 0.390422535,5.08887075 0.557746479,5.08887075 L1.05971831,5.08887075 L1.05971831,1.20663946 L0.725070423,1.20663946 C0.501971831,1.20663946 0.446197183,1.15417687 0.446197183,0.996789116 C0.446197183,0.839401361 0.557746479,0.73447619 0.725070423,0.73447619 L1.89633803,0.73447619 C2.11943662,0.73447619 2.17521127,0.839401361 2.17521127,0.996789116 C2.17521127,1.15417687 2.06366197,1.20663946 1.89633803,1.20663946 L1.56169014,1.20663946 L1.56169014,5.08887075 L4.51774648,5.08887075 L4.51774648,1.20663946 L4.18309859,1.20663946 C3.96,1.20663946 3.8484507,1.15417687 3.8484507,0.996789116 C3.8484507,0.839401361 3.96,0.73447619 4.18309859,0.73447619 L5.3543662,0.73447619 C5.57746479,0.73447619 5.63323944,0.839401361 5.63323944,0.996789116 C5.63323944,1.15417687 5.52169014,1.20663946 5.3543662,1.20663946 L5.01971831,1.20663946 L5.01971831,5.08887075 L5.68901408,5.08887075 C5.85633803,5.08887075 5.96788732,5.08887075 6.02366197,5.14133333 C6.07943662,5.19379592 6.07943662,5.29872109 6.07943662,5.45610884 L6.07943662,6.34797279 C6.07943662,6.61028571 6.02366197,6.71521088 5.85633803,6.71521088 C5.68901408,6.71521088 5.63323944,6.61028571 5.63323944,6.34797279 L5.63323944,5.50857143 L5.57746479,5.50857143 Z" id="Shape"></path>
                <path d="M12.3819718,3.20021769 L7.69690141,3.20021769 C7.75267606,3.77730612 8.0315493,4.30193197 8.42197183,4.66917007 C8.81239437,5.03640816 9.37014085,5.19379592 9.98366197,5.19379592 C10.3183099,5.19379592 10.7087324,5.14133333 11.0433803,5.03640816 C11.4338028,4.93148299 11.7126761,4.77409524 11.9357746,4.5642449 C11.9915493,4.51178231 12.0473239,4.45931973 12.1030986,4.45931973 C12.1588732,4.45931973 12.2146479,4.45931973 12.2704225,4.51178231 C12.3261972,4.5642449 12.3261972,4.61670748 12.3261972,4.66917007 C12.3261972,4.72163265 12.2704225,4.77409524 12.2146479,4.82655782 C12.0473239,5.03640816 11.7126761,5.19379592 11.2664789,5.35118367 C10.8202817,5.50857143 10.3740845,5.6134966 9.87211268,5.6134966 C9.09126761,5.6134966 8.42197183,5.35118367 7.92,4.82655782 C7.41802817,4.30193197 7.13915493,3.67238095 7.13915493,2.93790476 C7.13915493,2.25589116 7.36225352,1.67880272 7.86422535,1.20663946 C8.36619718,0.73447619 8.97971831,0.472163265 9.70478873,0.472163265 C10.4298592,0.472163265 11.0991549,0.73447619 11.5453521,1.20663946 C12.1030986,1.78372789 12.3819718,2.41327891 12.3819718,3.20021769 L12.3819718,3.20021769 Z M11.88,2.72805442 C11.7684507,2.20342857 11.5453521,1.78372789 11.1549296,1.46895238 C10.764507,1.15417687 10.3183099,0.996789116 9.76056338,0.996789116 C9.2028169,0.996789116 8.75661972,1.15417687 8.36619718,1.46895238 C7.97577465,1.78372789 7.75267606,2.20342857 7.64112676,2.72805442 L11.88,2.72805442 L11.88,2.72805442 Z" id="Shape"></path>
                <path d="M18.0709859,3.20021769 L15.1149296,3.20021769 L15.1149296,5.03640816 L15.6169014,5.03640816 C15.84,5.03640816 15.8957746,5.08887075 15.8957746,5.2462585 C15.8957746,5.40364626 15.7842254,5.45610884 15.6169014,5.45610884 L14.1109859,5.45610884 C13.8878873,5.45610884 13.8321127,5.40364626 13.8321127,5.2462585 C13.8321127,5.08887075 13.943662,5.03640816 14.1109859,5.03640816 L14.6129577,5.03640816 L14.6129577,1.15417687 L14.2783099,1.15417687 C14.0552113,1.15417687 13.9994366,1.10171429 13.9994366,0.944326531 C13.9994366,0.786938776 14.1109859,0.682013605 14.2783099,0.682013605 L15.4495775,0.682013605 C15.6726761,0.682013605 15.7284507,0.786938776 15.7284507,0.944326531 C15.7284507,1.10171429 15.6169014,1.15417687 15.4495775,1.15417687 L15.1149296,1.15417687 L15.1149296,2.72805442 L18.0709859,2.72805442 L18.0709859,1.15417687 L17.736338,1.15417687 C17.5132394,1.15417687 17.4016901,1.10171429 17.4016901,0.944326531 C17.4016901,0.786938776 17.5132394,0.682013605 17.736338,0.682013605 L18.9076056,0.682013605 C19.1307042,0.682013605 19.1864789,0.786938776 19.1864789,0.944326531 C19.1864789,1.10171429 19.0749296,1.15417687 18.9076056,1.15417687 L18.5729577,1.15417687 L18.5729577,5.03640816 L19.0749296,5.03640816 C19.2980282,5.03640816 19.3538028,5.08887075 19.3538028,5.2462585 C19.3538028,5.40364626 19.2422535,5.45610884 19.0749296,5.45610884 L17.5690141,5.45610884 C17.3459155,5.45610884 17.2901408,5.40364626 17.2901408,5.2462585 C17.2901408,5.08887075 17.4016901,5.03640816 17.5690141,5.03640816 L18.0709859,5.03640816 L18.0709859,3.20021769 L18.0709859,3.20021769 Z" id="Shape"></path>
                <path d="M23.5369014,1.15417687 L23.5369014,5.03640816 L24.708169,5.03640816 C24.9312676,5.03640816 25.0428169,5.08887075 25.0428169,5.2462585 C25.0428169,5.40364626 24.9312676,5.45610884 24.708169,5.45610884 L21.863662,5.45610884 C21.6405634,5.45610884 21.5290141,5.40364626 21.5290141,5.2462585 C21.5290141,5.08887075 21.6405634,5.03640816 21.863662,5.03640816 L23.0349296,5.03640816 L23.0349296,1.15417687 L21.2501408,1.15417687 L21.2501408,2.78051701 C21.2501408,2.99036735 21.1943662,3.09529252 21.0270423,3.09529252 C20.8597183,3.09529252 20.8039437,2.99036735 20.8039437,2.78051701 L20.8039437,0.682013605 L25.7121127,0.682013605 L25.7121127,2.78051701 C25.7121127,2.99036735 25.656338,3.09529252 25.4890141,3.09529252 C25.3216901,3.09529252 25.2659155,2.99036735 25.2659155,2.78051701 L25.2659155,1.15417687 L23.5369014,1.15417687 L23.5369014,1.15417687 Z" id="Shape"></path>
                <path d="M28.3335211,0.682013605 L28.3335211,1.52141497 C28.6123944,1.20663946 28.8912676,0.944326531 29.2259155,0.786938776 C29.5605634,0.62955102 29.8952113,0.52462585 30.3414085,0.52462585 C30.7876056,0.52462585 31.2338028,0.62955102 31.5684507,0.839401361 C31.9030986,1.0492517 32.2377465,1.36402721 32.4608451,1.73126531 C32.6839437,2.0985034 32.795493,2.51820408 32.795493,2.93790476 C32.795493,3.61991837 32.5723944,4.1970068 32.0704225,4.66917007 C31.6242254,5.14133333 31.0107042,5.40364626 30.3414085,5.40364626 C29.5047887,5.40364626 28.835493,5.08887075 28.3335211,4.40685714 L28.3335211,7.18737415 L29.4490141,7.18737415 C29.5605634,7.18737415 29.616338,7.18737415 29.6721127,7.23983673 C29.7278873,7.29229932 29.7278873,7.3447619 29.7278873,7.39722449 C29.7278873,7.44968707 29.7278873,7.50214966 29.6721127,7.55461224 C29.616338,7.60707483 29.5605634,7.60707483 29.4490141,7.60707483 L27.2738028,7.60707483 C27.1622535,7.60707483 27.1064789,7.60707483 27.0507042,7.55461224 C26.9949296,7.50214966 26.9949296,7.44968707 26.9949296,7.39722449 C26.9949296,7.3447619 26.9949296,7.29229932 27.0507042,7.23983673 C27.1064789,7.18737415 27.1622535,7.18737415 27.2738028,7.18737415 L27.8873239,7.18737415 L27.8873239,1.20663946 L27.2738028,1.20663946 C27.1622535,1.20663946 27.1064789,1.20663946 27.0507042,1.15417687 C26.9949296,1.10171429 26.9949296,1.0492517 26.9949296,0.996789116 C26.9949296,0.944326531 26.9949296,0.891863946 27.0507042,0.839401361 C27.1064789,0.786938776 27.1622535,0.786938776 27.2738028,0.786938776 L28.3335211,0.786938776 L28.3335211,0.682013605 Z M32.2935211,2.93790476 C32.2935211,2.41327891 32.1261972,1.94111565 31.7357746,1.57387755 C31.3453521,1.20663946 30.8991549,0.996789116 30.3414085,0.996789116 C29.783662,0.996789116 29.3374648,1.20663946 28.9470423,1.57387755 C28.5566197,1.94111565 28.3892958,2.41327891 28.3892958,2.93790476 C28.3892958,3.46253061 28.5566197,3.93469388 28.9470423,4.30193197 C29.3374648,4.66917007 29.783662,4.87902041 30.3414085,4.87902041 C30.8991549,4.87902041 31.3453521,4.66917007 31.7357746,4.30193197 C32.0704225,3.98715646 32.2935211,3.5149932 32.2935211,2.93790476 L32.2935211,2.93790476 Z" id="Shape"></path>
            </g>
        </g>
    </g>
</svg>