<?xml version="1.0" encoding="UTF-8" standalone="no"?>
<svg width="128px" height="44px" viewBox="0 0 128 44" version="1.1" xmlns="http://www.w3.org/2000/svg" xmlns:xlink="http://www.w3.org/1999/xlink" xmlns:sketch="http://www.bohemiancoding.com/sketch/ns">
    <!-- Generator: Sketch 3.3.2 (12043) - http://www.bohemiancoding.com/sketch -->
    <title>Untitled</title>
    <desc>Created with Sketch.</desc>
    <defs></defs>
    <g id="Page-1" stroke="none" stroke-width="1" fill="none" fill-rule="evenodd" sketch:type="MSPage">
        <g id="logo-copy" sketch:type="MSLayerGroup">
            <path d="M92.2001973,40.8870748 L92.9466367,41.5455782 L93.3945003,41.9047619 L93.8722216,42.2040816 L94.3798004,42.4435374 L94.7679489,42.5931973 L95.1859549,42.6829932 L95.603961,42.6829932 L95.9025368,42.7428571 L95.9921095,42.8027211 L96.0518247,42.892517 L96.0816823,42.9823129 L96.0518247,43.0721088 L95.9921095,43.1619048 L95.9025368,43.2217687 L95.603961,43.2816327 L93.9020791,43.2517007 L93.6930761,43.1918367 L93.27507,43.1918367 L92.857064,43.1020408 L92.4689155,42.952381 L91.9613366,42.7129252 L91.4836154,42.4136054 L91.0357518,42.0544218 L90.2893123,41.3959184 L89.5727305,40.707483 L88.8860062,39.9891156 L87.0945516,37.7442177 L89.393585,37.7442177 L90.7968912,39.4802721 L91.4836154,40.1986395 L92.2001973,40.8870748 L92.2001973,40.8870748 Z M79.3614392,30.9496599 L83.8997909,30.9496599 C84.6462303,31.907483 83.7803606,30.8 84.5268,31.7578231 L84.5268,34.6312925 L81.6007575,30.9795918 L79.3614392,30.9496599 L79.3614392,30.9496599 Z M65.477666,18.0190476 L65.0596599,18.4380952 L63.357778,20.1442177 L63.357778,27.7469388 L63.4174932,28.585034 L63.5369235,29.4231293 L63.6264962,29.8122449 L63.7757841,30.1714286 L63.9847872,30.5006803 L64.2535053,30.8 L64.5520811,31.0394558 L64.9402296,31.3088435 L65.3582357,31.5183673 L65.8060993,31.6680272 L66.253963,31.7578231 L66.8511145,31.847619 L67.4482661,31.877551 L67.7468418,31.937415 L67.8364146,31.9972789 L67.8961297,32.0870748 L67.9259873,32.1768707 L67.8961297,32.2666667 L67.8364146,32.3564626 L67.7468418,32.4163265 L67.4482661,32.4761905 L65.7463842,32.4462585 L65.5373811,32.3863946 L64.9402296,32.3564626 L64.3430781,32.2666667 L63.8952144,32.1768707 L63.4473508,32.0272109 L63.0293447,31.8176871 L62.6411962,31.5482993 L62.3426204,31.3088435 L62.0739022,31.0095238 L61.8648992,30.6802721 L61.7156113,30.3210884 L61.6260386,29.9319728 L61.5066083,29.0938776 L61.4468931,28.2557823 L61.4468931,20.6530612 L63.148775,18.9469388 L64.8207993,17.2108844 L65.477666,18.0190476 L65.477666,18.0190476 Z M54.3109323,0.598639456 L54.2213595,0.568707483 L54.1317868,0.508843537 L54.0720716,0.419047619 L54.0422141,0.329251701 L54.0720716,0.239455782 L54.1317868,0.149659864 L54.2213595,0.0897959184 L54.5199353,0.0299319728 L57.2668324,0.0897959184 L59.1478597,0.149659864 L61.028887,0.149659864 L62.9099144,0.149659864 L64.7909417,0.0897959184 L67.5378388,0.0299319728 L67.6871267,0.0299319728 L67.8364146,0.0897959184 L67.9259873,0.149659864 L67.9857024,0.239455782 L68.01556,0.329251701 L67.9857024,0.419047619 L67.9259873,0.508843537 L67.8364146,0.568707483 L67.5378388,0.628571429 L66.9406873,0.658503401 L66.3435357,0.74829932 L66.1046751,0.808163265 L66.1046751,0.74829932 L66.04496,0.658503401 L65.9553872,0.598639456 L65.8060993,0.53877551 L65.6568115,0.53877551 L62.9099144,0.598639456 L61.028887,0.658503401 L59.1478597,0.658503401 L57.2668324,0.658503401 L55.385805,0.598639456 L54.3109323,0.598639456 L54.3109323,0.598639456 Z M65.0895175,1.16734694 L64.9999448,1.16734694 L64.4027932,1.25714286 L63.9549296,1.34693878 L63.5070659,1.49659864 L63.0890598,1.70612245 L62.7009114,1.9755102 L62.4023356,2.21496599 L62.1336174,2.51428571 L61.9246144,2.84353741 L61.7753265,3.20272109 L61.6857537,3.59183673 L61.5364659,5.26802721 L61.5364659,19.1265306 L63.4473508,17.1210884 L63.4473508,4.75918367 L63.5966387,3.0829932 L63.6862114,2.69387755 L63.8354993,2.33469388 L64.0445023,2.00544218 L64.3132205,1.70612245 L64.6117963,1.46666667 L64.9999448,1.19727891 L65.0895175,1.16734694 L65.0895175,1.16734694 Z M72.2851935,0.598639456 L72.1956208,0.568707483 L72.1060481,0.508843537 L72.0463329,0.419047619 L72.0164753,0.329251701 L72.0463329,0.239455782 L72.1060481,0.149659864 L72.1956208,0.0897959184 L72.4941966,0.0299319728 L75.2410936,0.0897959184 L77.122121,0.119727891 L79.0031483,0.119727891 L79.6301574,0.0598639456 L82.3770545,1.70419234e-14 L82.6756303,0.0598639456 L82.765203,0.119727891 L82.8249181,0.20952381 L82.8547757,0.299319728 L82.8249181,0.389115646 L82.765203,0.478911565 L82.6756303,0.53877551 L82.3770545,0.598639456 L81.7799029,0.628571429 L81.1827514,0.718367347 L80.9438908,0.778231293 L80.9140332,0.688435374 L80.8543181,0.598639456 L80.7647453,0.53877551 L80.4661696,0.478911565 L77.7192725,0.53877551 L77.0922634,0.598639456 L75.211236,0.598639456 L73.3302087,0.568707483 L72.2851935,0.568707483 L72.2851935,0.598639456 L72.2851935,0.598639456 Z M80.2571665,1.13741497 L79.869018,1.16734694 L79.2718665,1.25714286 L78.883718,1.37687075 L78.4955695,1.55646259 L78.1372786,1.76598639 L77.5699846,2.24489796 L77.0325482,2.78367347 L76.5249694,3.35238095 L76.0472482,3.92108844 L74.4647966,5.95646259 L72.8823451,7.99183673 L71.2401783,9.99727891 L69.568154,11.9727891 L67.8662721,13.9183673 L74.79323,22.5387755 L74.79323,19.6653061 C72.8226299,17.2408163 71.7178996,15.8639456 69.7771571,13.4095238 L71.4790389,11.4639456 L73.1510632,9.48843537 L74.79323,7.4829932 L76.3756815,5.44761905 L77.9581331,3.4122449 L78.4358543,2.84353741 L78.9434331,2.27482993 L79.4808695,1.73605442 L80.0481635,1.25714286 L80.2571665,1.13741497 L80.2571665,1.13741497 Z M78.1372786,23.7360544 L79.3614392,25.262585 L79.3614392,27.0285714 C79.3614392,28.7047619 78.1372786,28.644898 78.1372786,26.9986395 L78.1372786,23.7360544 L78.1372786,23.7360544 Z" id="Shape" fill="#70706E" sketch:type="MSShapeGroup"></path>
            <path d="M117.041701,8.65034014 L117.041701,8.65034014 L117.280562,8.88979592 L117.459707,9.18911565 L117.608995,9.51836735 L117.698568,9.84761905 L117.728425,10.0571429 L117.728425,10.2068027 L117.728425,28.1061224 L117.698568,28.4653061 L117.608995,28.8244898 L117.459707,29.1537415 L117.250704,29.4530612 L117.101416,29.6027211 L117.011844,29.692517 L116.743125,29.8721088 L116.44455,30.0217687 L116.145974,30.1115646 L115.817541,30.1714286 L115.489107,30.1714286 L115.160674,30.1115646 L114.862098,30.0217687 L114.563522,29.9020408 L114.294804,29.752381 L113.936513,29.5129252 L113.906656,29.5129252 L113.787225,29.4530612 L113.667795,29.4530612 L113.548365,29.4829932 L113.458792,29.5428571 L113.369219,29.6326531 L113.309504,29.752381 L113.309504,36.0380952 L113.339362,36.2176871 L113.399077,36.3972789 L113.48865,36.5469388 L113.637937,36.6367347 L113.817083,36.6965986 L113.996228,36.7265306 L114.115659,36.7265306 L114.115659,36.9360544 L110.77161,36.9360544 L110.77161,36.7265306 L110.89104,36.7265306 L110.950756,36.7265306 L111.070186,36.7265306 L111.129901,36.6965986 L111.219474,36.6367347 L111.368762,36.5469388 L111.458334,36.3972789 L111.518049,36.2176871 L111.547907,36.0380952 L111.547907,8.97959184 L111.518049,8.8 L111.458334,8.65034014 L111.368762,8.50068027 L111.219474,8.38095238 L111.070186,8.32108844 L110.89104,8.29115646 L110.77161,8.29115646 L110.77161,8.08163265 L113.309504,8.08163265 L113.399077,8.59047619 L113.458792,8.71020408 L113.548365,8.8 L113.667795,8.85986395 L113.817083,8.88979592 L113.966371,8.85986395 L114.354519,8.62040816 L114.623237,8.4707483 L114.921813,8.35102041 L115.220389,8.26122449 L115.548822,8.23129252 L115.877256,8.23129252 L116.205689,8.29115646 L116.504265,8.38095238 L116.802841,8.53061224 L117.041701,8.65034014 L117.041701,8.65034014 Z M115.936971,28.0163265 L115.996686,27.6870748 L115.996686,27.3578231 L115.996686,11.1945578 L115.996686,11.044898 L115.996686,10.8653061 L115.936971,10.5360544 L115.847398,10.2068027 L115.69811,9.90748299 L115.489107,9.60816327 L115.429392,9.54829932 L115.309962,9.42857143 L115.100959,9.30884354 L114.891956,9.21904762 L114.682953,9.18911565 L114.623237,9.18911565 L114.384377,9.21904762 L114.175374,9.30884354 L113.966371,9.42857143 L113.817083,9.60816327 L113.578222,9.96734694 L113.399077,10.3564626 L113.309504,10.7755102 L113.279647,11.1945578 L113.279647,27.3278912 L113.309504,27.7469388 L113.399077,28.1659864 L113.578222,28.555102 L113.817083,28.9142857 L113.966371,29.0938776 L114.175374,29.2136054 L114.384377,29.3034014 L114.623237,29.3333333 L114.682953,29.3333333 L114.832241,29.3034014 L115.041244,29.2136054 L115.250247,29.0938776 L115.399534,28.9142857 L115.489107,28.7646259 L115.57868,28.614966 L115.727968,28.3156463 L115.936971,28.0163265 L115.936971,28.0163265 Z" id="Shape" fill="#70706E" sketch:type="MSShapeGroup"></path>
            <path d="M126.29755,13.6789116 L126.29755,29.3034014 L126.327408,29.4829932 L126.387123,29.6326531 L126.506553,29.7823129 L126.655841,29.9020408 L126.805129,29.9619048 L126.984274,29.9918367 L127.103705,29.9918367 L127.103705,30.2013605 L124.565811,30.2013605 L124.476238,29.692517 L124.416523,29.5727891 L124.32695,29.4829932 L124.20752,29.4231293 L124.058232,29.3931973 L123.908944,29.4231293 L123.520795,29.662585 L123.22222,29.8122449 L122.923644,29.9319728 L122.625068,30.0217687 L122.296635,30.0517007 L121.968201,30.0517007 L121.639768,29.9918367 L121.341192,29.9020408 L121.042616,29.752381 L120.773898,29.5727891 L120.535038,29.3333333 L120.326035,29.0340136 L120.176747,28.7047619 L120.087174,28.3755102 L120.057316,28.0163265 L120.057316,18.707483 L120.087174,18.3482993 L120.176747,17.9891156 L120.326035,17.6598639 L120.535038,17.3605442 L120.773898,17.0911565 L121.042616,16.9115646 L121.341192,16.7619048 L121.639768,16.6721088 L121.968201,16.6122449 L122.296635,16.6122449 L122.625068,16.6421769 L122.923644,16.7319728 L123.22222,16.8517007 L123.490938,17.0013605 L123.849229,17.2408163 L123.968659,17.2707483 L124.088089,17.2707483 L124.20752,17.2408163 L124.297092,17.1809524 L124.386665,17.0911565 L124.44638,16.9714286 L124.44638,13.6789116 L124.44638,10.5061224 L124.386665,10.0870748 L124.297092,9.66802721 L124.117947,9.27891156 L123.879086,8.91972789 L123.729798,8.74013605 L123.520795,8.62040816 L123.311792,8.53061224 L123.072932,8.50068027 L122.834071,8.53061224 L122.625068,8.62040816 L122.416065,8.74013605 L122.266777,8.91972789 L122.057774,9.21904762 L121.908486,9.51836735 L121.818913,9.84761905 L121.759198,10.1768707 L121.759198,10.5061224 L121.759198,13.6789116 L121.759198,14.1578231 L120.027459,14.1578231 L120.027459,13.6789116 L120.027459,11.7632653 L120.057316,11.2843537 L120.146889,10.8054422 L120.266319,10.3564626 L120.445465,9.90748299 L120.684326,9.48843537 L120.893329,9.18911565 L121.132189,8.91972789 L121.400907,8.68027211 L121.699483,8.4707483 L122.027917,8.32108844 L122.386207,8.20136054 L122.744498,8.11156463 L123.102789,8.08163265 L123.46108,8.11156463 L123.819371,8.20136054 L124.177662,8.32108844 L124.506095,8.4707483 L124.804671,8.68027211 L125.073389,8.91972789 L125.31225,9.18911565 L125.521253,9.48843537 L125.760114,9.90748299 L125.939259,10.3564626 L126.058689,10.8054422 L126.148262,11.2843537 L126.17812,11.7632653 L126.17812,13.6489796 L126.29755,13.6489796 L126.29755,13.6789116 Z M124.506095,19.0068027 L124.416523,18.5877551 L124.237377,18.1986395 L123.998517,17.8394558 L123.849229,17.6897959 L123.640226,17.5401361 L123.431223,17.4503401 L123.192362,17.4204082 L122.953501,17.4503401 L122.744498,17.5401361 L122.535495,17.6897959 L122.386207,17.8394558 L122.177204,18.1687075 L122.027917,18.5278912 L121.938344,18.9170068 L121.878629,19.3061224 L121.878629,27.0585034 L121.878629,27.3877551 L121.938344,27.7170068 L122.027917,28.0462585 L122.177204,28.3455782 L122.386207,28.644898 L122.535495,28.8244898 L122.744498,28.9442177 L122.953501,29.0340136 L123.192362,29.0639456 L123.431223,29.0340136 L123.640226,28.9442177 L123.849229,28.8244898 L123.998517,28.644898 L124.237377,28.2857143 L124.416523,27.8965986 L124.506095,27.477551 L124.565811,27.0585034 L124.565811,19.4258503 L124.506095,19.0068027 L124.506095,19.0068027 Z" id="Shape" fill="#70706E" sketch:type="MSShapeGroup"></path>
            <path d="M108.323289,8.85986395 L108.532292,9.15918367 L108.771152,9.57823129 L108.950298,10.0272109 L109.069728,10.4761905 L109.159301,10.955102 L109.189158,11.4340136 L109.189158,18.5877551 L104.800095,18.5877551 L104.800095,26.9986395 L104.85981,27.4176871 L104.949383,27.8367347 L105.09867,28.2557823 L105.307673,28.614966 L105.576392,28.9142857 L105.874967,29.1836735 L106.08397,29.3034014 L106.322831,29.3632653 L106.561692,29.3931973 L106.800552,29.3632653 L107.039413,29.3034014 L107.248416,29.2136054 L107.606707,28.9442177 L107.905283,28.614966 L108.144143,28.2557823 L108.353146,27.8666667 L108.502434,27.447619 L108.592007,26.9986395 L108.651722,26.3401361 L109.129443,26.3401361 L109.099586,26.7891156 L109.010013,27.2380952 L108.890583,27.6870748 L108.711437,28.1061224 L108.502434,28.4952381 L108.293431,28.7945578 L108.054571,29.0639456 L107.785852,29.3034014 L107.487277,29.5129252 L107.158843,29.662585 L106.800552,29.7823129 L106.442261,29.8721088 L106.08397,29.9020408 L105.72568,29.8721088 L105.367389,29.7823129 L105.009098,29.662585 L104.680664,29.5129252 L104.382089,29.3034014 L104.11337,29.0639456 L103.87451,28.7945578 L103.665507,28.4952381 L103.426646,28.0761905 L103.247501,27.6272109 L103.12807,27.1782313 L103.038498,26.6993197 L103.00864,26.2204082 L103.00864,11.4639456 L103.038498,10.985034 L103.12807,10.5061224 L103.247501,10.0571429 L103.426646,9.60816327 L103.665507,9.18911565 L103.87451,8.88979592 L104.11337,8.62040816 L104.382089,8.38095238 L104.680664,8.17142857 L105.009098,8.02176871 L105.367389,7.90204082 L105.72568,7.8122449 L106.08397,7.78231293 L106.442261,7.8122449 L106.800552,7.90204082 L107.158843,8.02176871 L107.487277,8.17142857 L107.785852,8.38095238 L108.054571,8.62040816 L108.323289,8.85986395 L108.323289,8.85986395 Z M107.427561,9.87755102 L107.367846,9.54829932 L107.278274,9.21904762 L107.128986,8.91972789 L106.919983,8.62040816 L106.770695,8.44081633 L106.561692,8.32108844 L106.352689,8.23129252 L106.113828,8.20136054 L105.874967,8.23129252 L105.665964,8.32108844 L105.456961,8.44081633 L105.307673,8.62040816 L105.068813,8.97959184 L104.889667,9.36870748 L104.800095,9.7877551 L104.770237,10.2068027 L104.770237,18.2285714 L107.427561,18.2285714 L107.427561,10.2068027 L107.427561,9.87755102 L107.427561,9.87755102 Z" id="Shape" fill="#70706E" sketch:type="MSShapeGroup"></path>
            <path d="M96.9774096,13.4693878 L97.3357005,13.229932 L97.6342762,13.0802721 L97.932852,12.9605442 L98.2314278,12.8707483 L98.5598611,12.8408163 L98.8882945,12.8408163 L99.2167278,12.9006803 L99.5153036,12.9904762 L99.8138794,13.1401361 L100.082598,13.3197279 L100.321458,13.5891156 L100.530461,13.8884354 L100.679749,14.2176871 L100.769322,14.5768707 L100.799179,14.9360544 L100.799179,27.9265306 L100.769322,28.2857143 L100.679749,28.644898 L100.530461,28.9741497 L100.321458,29.2734694 L100.082598,29.5727891 L99.8138794,29.752381 L99.5153036,29.9020408 L99.2167278,29.9918367 L98.8882945,30.0517007 L98.5598611,30.0517007 L98.2314278,30.0217687 L97.932852,29.9319728 L97.6342762,29.8122449 L97.3357005,29.662585 L96.947552,29.4231293 L96.7982641,29.3931973 L96.6489762,29.4231293 L96.5295459,29.4829932 L96.4399732,29.5727891 L96.380258,29.692517 L96.2906853,30.2013605 L93.7527913,30.2013605 L93.7527913,29.9918367 L93.8722216,29.9918367 L94.051367,29.9619048 L94.2006549,29.9020408 L94.3499428,29.7823129 L94.4693731,29.6326531 L94.5290883,29.4829932 L94.5589458,29.3034014 L94.5589458,9.18911565 L94.5290883,9.00952381 L94.4693731,8.82993197 L94.3499428,8.68027211 L94.2006549,8.59047619 L94.051367,8.53061224 L93.8722216,8.50068027 L93.7527913,8.50068027 L93.7527913,8.08163265 L97.0968399,8.08163265 L97.0968399,8.50068027 L96.9774096,8.50068027 L96.7982641,8.53061224 L96.6489762,8.59047619 L96.4996883,8.68027211 L96.380258,8.82993197 L96.3205429,9.00952381 L96.2906853,9.18911565 L96.2906853,13.2598639 L96.3504004,13.3795918 L96.4399732,13.4693878 L96.5295459,13.5292517 L96.6489762,13.5591837 L96.7684065,13.5591837 L96.9774096,13.4693878 L96.9774096,13.4693878 Z M99.0077248,15.3251701 L98.9480096,14.9959184 L98.8584369,14.6666667 L98.709149,14.3673469 L98.500146,14.0680272 L98.3508581,13.8884354 L98.1418551,13.7687075 L97.932852,13.6789116 L97.6939914,13.6489796 L97.4551308,13.6789116 L97.2461277,13.7687075 L97.0371247,13.8884354 L96.8878368,14.0680272 L96.6489762,14.4272109 L96.4698307,14.8163265 L96.380258,15.2353741 L96.3205429,15.6544218 L96.3205429,26.9986395 L96.380258,27.4176871 L96.4698307,27.8367347 L96.6489762,28.2258503 L96.8878368,28.585034 L97.0371247,28.7646259 L97.2461277,28.8843537 L97.4551308,28.9741497 L97.6939914,29.0040816 L97.932852,28.9741497 L98.1418551,28.8843537 L98.3508581,28.7646259 L98.500146,28.585034 L98.709149,28.2857143 L98.8584369,27.9863946 L98.9480096,27.6571429 L99.0077248,27.3278912 L99.0077248,26.9986395 L99.0077248,15.6544218 L99.0077248,15.3251701 L99.0077248,15.3251701 Z" id="Shape" fill="#70706E" sketch:type="MSShapeGroup"></path>
            <path d="M90.7670336,8.50068027 L91.0357518,8.68027211 L91.2746124,8.91972789 L91.4836154,9.21904762 L91.6329033,9.54829932 L91.722476,9.87755102 L91.7523336,10.2367347 L91.7523336,28.1360544 L91.722476,28.4952381 L91.6329033,28.8544218 L91.4836154,29.1836735 L91.2746124,29.4829932 L91.0357518,29.752381 L90.7670336,29.9319728 L90.4684578,30.0816327 L90.169882,30.1714286 L89.8414487,30.2312925 L89.5130153,30.2312925 L89.184582,30.1714286 L88.8860062,30.0816327 L88.5874305,29.9619048 L88.2888547,29.8122449 L87.9305638,29.5727891 L87.8111335,29.5129252 L87.6917032,29.5129252 L87.5722729,29.5428571 L87.4827001,29.6027211 L87.3931274,29.692517 L87.3334122,29.8122449 L87.3334122,36.0680272 L87.3632698,36.247619 L87.422985,36.4272109 L87.5424153,36.5768707 L87.6917032,36.6666667 L87.840991,36.7265306 L88.0201365,36.7564626 L88.1395668,36.7564626 L88.1395668,36.9659864 L84.7955182,36.9659864 L84.7955182,36.7564626 L84.9149485,36.7564626 L85.094094,36.7265306 L85.2732394,36.6666667 L85.4225273,36.5768707 L85.5419576,36.4272109 L85.6016728,36.247619 L85.6315304,36.0680272 L85.6315304,8.97959184 L85.6016728,8.8 L85.5419576,8.65034014 L85.4225273,8.50068027 L85.2732394,8.38095238 L85.094094,8.32108844 L84.9149485,8.29115646 L84.7955182,8.29115646 L84.7955182,8.08163265 L87.3334122,8.08163265 L87.422985,8.59047619 L87.4827001,8.71020408 L87.5722729,8.8 L87.6917032,8.85986395 L87.840991,8.88979592 L87.9604214,8.85986395 L88.3485699,8.62040816 L88.6471456,8.4707483 L88.9457214,8.35102041 L89.2442972,8.26122449 L89.5727305,8.23129252 L89.9011638,8.23129252 L90.2295972,8.29115646 L90.528173,8.38095238 L90.7670336,8.50068027 L90.7670336,8.50068027 Z M89.8115911,28.3755102 L89.9011638,28.0462585 L89.960879,27.7170068 L89.960879,27.3877551 L89.960879,11.2244898 L89.960879,10.8952381 L89.9011638,10.5659864 L89.8115911,10.2367347 L89.6623032,9.93741497 L89.4533002,9.63809524 L89.3040123,9.4585034 L89.0950093,9.33877551 L88.8860062,9.24897959 L88.6471456,9.21904762 L88.408285,9.24897959 L88.199282,9.33877551 L87.9902789,9.4585034 L87.840991,9.63809524 L87.6021304,9.99727891 L87.422985,10.3863946 L87.3334122,10.8054422 L87.3035547,11.2244898 L87.3035547,27.3578231 L87.3632698,27.7768707 L87.4528425,28.1959184 L87.631988,28.585034 L87.8708486,28.9442177 L88.0201365,29.1238095 L88.2291395,29.2435374 L88.4381426,29.3333333 L88.6770032,29.3632653 L88.9158638,29.3333333 L89.1248668,29.2435374 L89.3338699,29.1238095 L89.4831578,28.9442177 L89.6921608,28.6748299 L89.8115911,28.3755102 L89.8115911,28.3755102 Z" id="Shape" fill="#70706E" sketch:type="MSShapeGroup"></path>
            <path d="M82.0187636,13.6789116 L82.0187636,29.0938776 L82.0486211,29.2734694 L82.1083363,29.4530612 L82.197909,29.6027211 L82.3471969,29.692517 L82.4964848,29.752381 L82.6756303,29.7823129 L82.7950606,29.7823129 L82.7950606,30.2013605 L80.2571665,30.2013605 L80.1675938,29.692517 L80.1078786,29.5727891 L80.0183059,29.4829932 L79.8988756,29.4231293 L79.7495877,29.3931973 L79.6002998,29.4231293 L79.2121513,29.662585 L78.9434331,29.8122449 L78.6448574,29.9319728 L78.3462816,30.0217687 L78.0477058,30.0517007 L77.7192725,30.0517007 L77.3908392,29.9918367 L77.0922634,29.9020408 L76.7936876,29.752381 L76.5249694,29.5727891 L76.2861088,29.3333333 L76.1069633,29.0340136 L75.9576755,28.7047619 L75.8681027,28.3755102 L75.8382452,28.0163265 L75.8382452,18.707483 L75.8681027,18.3482993 L75.9576755,17.9891156 L76.1069633,17.6598639 L76.3159664,17.3605442 L76.554827,17.0911565 L76.8235452,16.9115646 L77.122121,16.7619048 L77.4206967,16.6721088 L77.7491301,16.6122449 L78.0775634,16.6122449 L78.4059968,16.6421769 L78.7045725,16.7319728 L79.0031483,16.8517007 L79.2718665,17.0013605 L79.660015,17.2408163 L79.7794453,17.2707483 L79.8988756,17.2707483 L80.0183059,17.2408163 L80.1078786,17.1809524 L80.1974514,17.0911565 L80.2571665,16.9714286 L80.2571665,13.6789116 L80.2571665,10.5061224 L80.227309,10.0870748 L80.1377362,9.66802721 L79.9585908,9.27891156 L79.7197301,8.91972789 L79.5704423,8.74013605 L79.3614392,8.62040816 L79.1524362,8.53061224 L78.9135756,8.50068027 L78.674715,8.53061224 L78.4657119,8.62040816 L78.2567089,8.74013605 L78.107421,8.91972789 L77.898418,9.21904762 L77.7491301,9.51836735 L77.6595573,9.84761905 L77.5998422,10.1768707 L77.5998422,10.5061224 L77.5998422,13.6789116 L77.5998422,14.1578231 L75.8681027,14.1578231 L75.8681027,13.6789116 L75.8681027,11.7632653 L75.8979603,11.2843537 L75.987533,10.8054422 L76.1368209,10.3564626 L76.3159664,9.90748299 L76.554827,9.48843537 L76.76383,9.18911565 L77.0026907,8.91972789 L77.2714088,8.68027211 L77.5699846,8.4707483 L77.898418,8.32108844 L78.2567089,8.20136054 L78.6149998,8.11156463 L78.9732907,8.08163265 L79.3315816,8.11156463 L79.6898726,8.20136054 L80.0481635,8.32108844 L80.3765968,8.4707483 L80.6751726,8.68027211 L80.9438908,8.91972789 L81.1827514,9.18911565 L81.3917544,9.48843537 L81.6306151,9.90748299 L81.8097605,10.3564626 L81.9590484,10.8054422 L82.0486211,11.2843537 L82.0784787,11.7632653 L82.0187636,13.6789116 L82.0187636,13.6789116 Z M80.227309,19.0068027 L80.1377362,18.5877551 L79.9585908,18.1986395 L79.7197301,17.8394558 L79.5704423,17.6897959 L79.3614392,17.5401361 L79.1524362,17.4503401 L78.9135756,17.4204082 L78.674715,17.4503401 L78.4657119,17.5401361 L78.2567089,17.6897959 L78.107421,17.8394558 L77.898418,18.1687075 L77.7491301,18.5278912 L77.6595573,18.9170068 L77.5998422,19.3061224 L77.5998422,27.0585034 L77.5998422,27.3877551 L77.6595573,27.7170068 L77.7491301,28.0462585 L77.898418,28.3455782 L78.107421,28.644898 L78.2567089,28.8244898 L78.4657119,28.9442177 L78.674715,29.0340136 L78.9135756,29.0639456 L79.1524362,29.0340136 L79.3614392,28.9442177 L79.5704423,28.8244898 L79.7197301,28.644898 L79.9585908,28.2857143 L80.1377362,27.8965986 L80.227309,27.477551 L80.2571665,27.0585034 L80.2571665,19.4258503 L80.227309,19.0068027 L80.227309,19.0068027 Z" id="Shape" fill="#70706E" sketch:type="MSShapeGroup"></path>
            <path d="M90.3788851,41.4557823 L91.0954669,42.1142857 L91.5433306,42.4734694 L92.0509094,42.7727891 L92.5584882,43.0421769 L92.9466367,43.1918367 L93.3347852,43.2517007 L93.7527913,43.2816327 L94.0812246,43.3414966 L94.1707973,43.4013605 L94.2006549,43.4612245 L94.2305125,43.5510204 L94.2006549,43.6408163 L94.1707973,43.7306122 L94.0812246,43.7904762 L93.7527913,43.8503401 L91.0357518,43.7904762 L88.7665759,43.7605442 L86.5272577,43.7605442 L84.6462303,43.7605442 L82.7950606,43.7904762 L80.0481635,43.8503401 L79.7197301,43.7904762 L79.660015,43.7306122 L79.6002998,43.6408163 L79.5704423,43.5510204 L79.6002998,43.4612245 L79.660015,43.4013605 L79.7197301,43.3414966 L80.0481635,43.2816327 L80.645315,43.2517007 L81.2424666,43.1619048 L81.6306151,43.1020408 L81.988906,42.9823129 L82.3173393,42.8027211 L82.6457727,42.6231293 L82.9443484,42.3537415 L83.1234939,42.0843537 L83.2727818,41.785034 L83.3922121,41.4557823 L83.4220697,41.0965986 L83.3922121,40.7673469 L83.3324969,40.4380952 L83.2429242,40.1387755 L83.0637788,39.8394558 L82.8547757,39.570068 L64.9402296,17.2707483 L63.2682053,19.0068027 L61.5364659,20.7129252 L61.5364659,28.3156463 L61.596181,29.1537415 L61.7156113,29.9918367 L61.805184,30.3809524 L61.9843295,30.7401361 L62.1933325,31.0693878 L62.4620507,31.3687075 L62.7606265,31.6380952 L63.148775,31.907483 L63.5667811,32.1469388 L64.0146447,32.2965986 L64.4625084,32.3863946 L65.0895175,32.4761905 L65.686669,32.5061224 L66.0151024,32.5659864 L66.0748175,32.6258503 L66.1345327,32.7156463 L66.1345327,32.8054422 L66.1345327,32.8952381 L66.0748175,32.985034 L66.0151024,33.044898 L65.686669,33.1047619 L62.939772,33.044898 L61.0886022,32.985034 L59.2075749,32.985034 L57.3265475,32.985034 L55.4753778,33.044898 L52.7284807,33.1047619 L52.4000473,33.044898 L52.3403322,32.985034 L52.280617,32.8952381 L52.2507595,32.8054422 L52.280617,32.7156463 L52.3403322,32.6258503 L52.4000473,32.5659864 L52.7284807,32.5061224 L53.3256322,32.4761905 L53.9227838,32.3863946 L54.400505,32.2965986 L54.8483686,32.1469388 L55.2663747,31.907483 L55.6545232,31.6380952 L55.953099,31.3687075 L56.2218172,31.0693878 L56.4308202,30.7401361 L56.5801081,30.3809524 L56.6995384,29.9918367 L56.8189687,29.1537415 L56.8488263,28.3156463 L56.8488263,5.35782313 L56.8189687,4.54965986 L56.6995384,3.71156463 L56.5801081,3.32244898 L56.4308202,2.96326531 L56.2218172,2.63401361 L55.953099,2.3047619 L55.6545232,2.06530612 L55.2663747,1.76598639 L54.8483686,1.55646259 L54.400505,1.40680272 L53.9227838,1.3170068 L53.3256322,1.22721088 L52.7284807,1.19727891 L52.4000473,1.10748299 L52.3403322,1.07755102 L52.280617,0.987755102 L52.2507595,0.897959184 L52.280617,0.808163265 L52.3403322,0.718367347 L52.4000473,0.658503401 L52.7284807,0.598639456 L55.4753778,0.658503401 L57.3265475,0.718367347 L59.2075749,0.718367347 L61.0886022,0.718367347 L62.939772,0.658503401 L65.686669,0.598639456 L65.8359569,0.628571429 L66.0151024,0.658503401 L66.0748175,0.718367347 L66.1345327,0.808163265 L66.1345327,0.897959184 L66.1345327,0.987755102 L66.0748175,1.07755102 L66.0151024,1.10748299 L65.686669,1.19727891 L65.0895175,1.22721088 L64.4625084,1.3170068 L64.0146447,1.40680272 L63.5667811,1.55646259 L63.148775,1.76598639 L62.7606265,2.06530612 L62.4620507,2.3047619 L62.1933325,2.63401361 L61.9843295,2.96326531 L61.805184,3.32244898 L61.7156113,3.71156463 L61.5364659,5.35782313 L61.5364659,19.2462585 L63.6264962,17.0612245 L65.6568115,14.8462585 L67.6572691,12.5714286 L69.6278692,10.2666667 L71.5088965,7.90204082 L73.3600663,5.53741497 L73.6287845,5.17823129 L73.8377875,4.75918367 L74.016933,4.37006803 L74.1363633,3.92108844 L74.1960784,3.47210884 L74.225936,3.14285714 L74.1662209,2.84353741 L74.016933,2.54421769 L73.8676451,2.27482993 L73.6287845,2.06530612 L73.240636,1.76598639 L72.8226299,1.55646259 L72.3747662,1.40680272 L71.897045,1.3170068 L71.2998935,1.22721088 L70.7027419,1.19727891 L70.3743086,1.10748299 L70.2847359,1.07755102 L70.2548783,0.987755102 L70.2250207,0.897959184 L70.2548783,0.808163265 L70.2847359,0.718367347 L70.3743086,0.658503401 L70.7027419,0.598639456 L73.4197814,0.658503401 L75.3008088,0.718367347 L77.1818361,0.718367347 L77.8088452,0.658503401 L80.5557423,0.598639456 L80.8841756,0.658503401 L80.9438908,0.718367347 L81.0036059,0.808163265 L81.0334635,0.897959184 L81.0036059,0.987755102 L80.9438908,1.07755102 L80.8841756,1.10748299 L80.5557423,1.19727891 L79.9585908,1.22721088 L79.3614392,1.3170068 L78.9732907,1.43673469 L78.5851422,1.61632653 L78.2268513,1.82585034 L77.6595573,2.3047619 L77.122121,2.84353741 L76.6145422,3.38231293 L76.1666785,3.98095238 L74.5842269,6.01632653 L73.0017754,8.05170068 L71.3596086,10.0272109 L69.6875843,12.0027211 L67.9857024,13.9482993 L74.9126603,22.5687075 L74.9126603,28.0163265 L74.9425179,28.4353741 L75.0320906,28.8544218 L75.1813785,29.2435374 L75.3903815,29.6027211 L75.6292421,29.9319728 L75.8979603,30.2312925 L76.2562512,30.4707483 L76.6145422,30.6503401 L77.0026907,30.770068 L77.3908392,30.8598639 L77.8088452,30.8897959 L78.2268513,30.8897959 L78.6149998,30.8 L79.0031483,30.6802721 L79.3912968,30.5306122 L79.451012,31.0095238 L81.7201878,31.0095238 L84.6462303,34.6911565 L84.6462303,35.9183673 L83.8400757,35.9183673 L83.8400757,37.8040816 L87.1841244,37.8040816 L88.975579,40.0489796 L89.6623032,40.7673469 L90.3788851,41.4557823 Z" id="Shape" fill="#000000" sketch:type="MSShapeGroup"></path>
            <rect id="Rectangle-path" fill="#891A1B" sketch:type="MSShapeGroup" x="-4.24301687e-15" y="32.3265306" width="50.6384503" height="0.628571429"></rect>
            <g id="Group" transform="translate(29.260425, 9.278912)" fill="#000000" sketch:type="MSShapeGroup">
                <path d="M0.686724267,1.61632653 L1.73173946,3.65170068 L2.77675465,1.61632653 L2.56775161,1.61632653 C2.41846372,1.61632653 2.35874857,1.58639456 2.35874857,1.49659864 C2.35874857,1.40680272 2.41846372,1.34693878 2.56775161,1.34693878 L3.19476072,1.34693878 C3.34404861,1.34693878 3.40376376,1.40680272 3.40376376,1.49659864 C3.40376376,1.58639456 3.34404861,1.61632653 3.19476072,1.61632653 L3.04547284,1.61632653 L1.61230915,4.42993197 C1.49287884,4.66938776 1.37344853,4.81904762 1.2838758,4.90884354 C1.1644455,4.99863946 1.04501519,5.0585034 0.925584882,5.0585034 C0.806154575,5.0585034 0.716581844,5.0585034 0.65686669,5.02857143 C0.56729396,4.99863946 0.507578806,4.96870748 0.477721229,4.93877551 C0.447863653,4.90884354 0.447863653,4.84897959 0.447863653,4.75918367 L0.447863653,4.4 C0.447863653,4.25034014 0.477721229,4.19047619 0.56729396,4.19047619 C0.65686669,4.19047619 0.686724267,4.25034014 0.686724267,4.4 L0.686724267,4.78911565 C0.746439421,4.81904762 0.836012151,4.81904762 0.895727305,4.81904762 C1.01515761,4.81904762 1.10473034,4.78911565 1.1644455,4.7292517 C1.22416065,4.66938776 1.31373338,4.54965986 1.43316369,4.34013605 L1.61230915,3.98095238 L0.447863653,1.67619048 L0.298575768,1.67619048 C0.149287884,1.67619048 0.0895727305,1.6462585 0.0895727305,1.55646259 C0.0895727305,1.46666667 0.149287884,1.40680272 0.298575768,1.40680272 L0.955442459,1.40680272 C1.10473034,1.40680272 1.1644455,1.46666667 1.1644455,1.55646259 C1.1644455,1.6462585 1.10473034,1.67619048 0.955442459,1.67619048 L0.686724267,1.67619048 L0.686724267,1.61632653 Z" id="Shape"></path>
                <path d="M6.03123052,3.80136054 L6.03123052,2.81360544 C5.70279718,3.05306122 5.34450625,3.17278912 4.92650018,3.17278912 C4.71749714,3.17278912 4.5084941,3.11292517 4.35920622,3.02312925 C4.20991833,2.93333333 4.1203456,2.69387755 4.1203456,2.33469388 L4.1203456,1.58639456 L3.88148499,1.58639456 C3.7321971,1.58639456 3.67248195,1.55646259 3.67248195,1.46666667 C3.67248195,1.37687075 3.7321971,1.3170068 3.88148499,1.3170068 L4.68763956,1.3170068 C4.83692745,1.3170068 4.8966426,1.37687075 4.8966426,1.46666667 C4.8966426,1.55646259 4.83692745,1.58639456 4.68763956,1.58639456 L4.38906379,1.58639456 L4.38906379,2.33469388 C4.38906379,2.54421769 4.41892137,2.69387755 4.5084941,2.78367347 C4.59806683,2.87346939 4.74735472,2.90340136 4.95635775,2.90340136 C5.2847911,2.90340136 5.64308202,2.7537415 6.0610881,2.48435374 L6.0610881,1.58639456 L5.79236991,1.58639456 C5.64308202,1.58639456 5.58336687,1.55646259 5.58336687,1.46666667 C5.58336687,1.37687075 5.64308202,1.3170068 5.79236991,1.3170068 L6.5686669,1.3170068 C6.71795479,1.3170068 6.77766994,1.37687075 6.77766994,1.46666667 C6.77766994,1.55646259 6.71795479,1.58639456 6.5686669,1.58639456 L6.29994871,1.58639456 L6.29994871,3.80136054 L6.5686669,3.80136054 C6.71795479,3.80136054 6.77766994,3.83129252 6.77766994,3.92108844 C6.77766994,4.01088435 6.71795479,4.04081633 6.5686669,4.04081633 L5.37436383,4.04081633 C5.22507595,4.04081633 5.16536079,4.01088435 5.16536079,3.92108844 C5.16536079,3.83129252 5.22507595,3.80136054 5.37436383,3.80136054 L6.03123052,3.80136054 L6.03123052,3.80136054 Z" id="Shape"></path>
                <path d="M10.2112913,2.7537415 L7.70325482,2.7537415 C7.7331124,3.0829932 7.88240028,3.38231293 8.09140332,3.59183673 C8.30040636,3.80136054 8.59898213,3.92108844 8.92741547,3.92108844 C9.10656093,3.92108844 9.31556397,3.89115646 9.49470943,3.83129252 C9.70371247,3.77142857 9.85300036,3.68163265 9.97243066,3.56190476 C10.0022882,3.53197279 10.0321458,3.50204082 10.0620034,3.50204082 C10.091861,3.50204082 10.1217185,3.50204082 10.1515761,3.53197279 C10.1814337,3.56190476 10.1814337,3.59183673 10.1814337,3.62176871 C10.1814337,3.65170068 10.1515761,3.68163265 10.1217185,3.71156463 C10.0321458,3.83129252 9.85300036,3.92108844 9.61413974,4.01088435 C9.37527913,4.10068027 9.13641851,4.16054422 8.86770032,4.16054422 C8.44969424,4.16054422 8.09140332,4.01088435 7.82268513,3.71156463 C7.55396694,3.4122449 7.40467905,3.05306122 7.40467905,2.63401361 C7.40467905,2.24489796 7.52410936,1.91564626 7.79282755,1.6462585 C8.06154575,1.37687075 8.38997909,1.22721088 8.77812759,1.22721088 C9.16627609,1.22721088 9.52456701,1.37687075 9.76342762,1.6462585 C10.0620034,1.94557823 10.2112913,2.3047619 10.2112913,2.7537415 L10.2112913,2.7537415 Z M9.94257309,2.51428571 C9.88285793,2.21496599 9.76342762,1.9755102 9.55442459,1.79591837 C9.34542155,1.61632653 9.10656093,1.52653061 8.80798517,1.52653061 C8.5094094,1.52653061 8.27054878,1.61632653 8.06154575,1.79591837 C7.85254271,1.9755102 7.7331124,2.21496599 7.67339725,2.51428571 L9.94257309,2.51428571 L9.94257309,2.51428571 Z" id="Shape"></path>
                <path d="M11.3160216,1.85578231 C11.6145974,1.43673469 12.0027459,1.22721088 12.5103247,1.22721088 C12.9581883,1.22721088 13.2866217,1.37687075 13.5553399,1.6462585 C13.8240581,1.91564626 13.9434884,2.27482993 13.9434884,2.69387755 C13.9434884,3.11292517 13.8240581,3.44217687 13.5553399,3.7414966 C13.2866217,4.01088435 12.9581883,4.16054422 12.5103247,4.16054422 C12.2117489,4.16054422 11.9430307,4.10068027 11.7041701,3.95102041 C11.4951671,3.80136054 11.3160216,3.62176871 11.2264489,3.4122449 C11.1368762,3.20272109 11.077161,2.87346939 11.077161,2.45442177 C11.077161,1.88571429 11.1070186,1.46666667 11.1667337,1.25714286 C11.2264489,1.04761905 11.3458792,0.868027211 11.5250247,0.718367347 C11.6743125,0.598639456 11.9131732,0.53877551 12.2117489,0.53877551 L12.7790429,0.53877551 C13.0776187,0.53877551 13.2269065,0.478911565 13.2866217,0.359183673 C13.3164793,0.299319728 13.3164793,0.239455782 13.3463368,0.239455782 C13.3761944,0.20952381 13.3761944,0.20952381 13.4359096,0.20952381 C13.5254823,0.20952381 13.5851975,0.269387755 13.5851975,0.359183673 C13.5851975,0.478911565 13.5254823,0.568707483 13.4359096,0.688435374 C13.3164793,0.778231293 13.1373338,0.838095238 12.8686156,0.838095238 L12.2714641,0.838095238 C12.062461,0.838095238 11.9131732,0.868027211 11.7937428,0.957823129 C11.6743125,1.01768707 11.5847398,1.13741497 11.5250247,1.25714286 C11.3757368,1.34693878 11.3458792,1.55646259 11.3160216,1.85578231 L11.3160216,1.85578231 Z M11.3160216,2.69387755 C11.3160216,2.99319728 11.4055944,3.26258503 11.6145974,3.53197279 C11.8236004,3.77142857 12.0923186,3.89115646 12.4804671,3.89115646 C12.838758,3.89115646 13.1074762,3.77142857 13.3164793,3.53197279 C13.5254823,3.29251701 13.6449126,3.02312925 13.6449126,2.69387755 C13.6449126,2.36462585 13.5254823,2.06530612 13.3164793,1.85578231 C13.1074762,1.61632653 12.8089005,1.49659864 12.4804671,1.49659864 C12.1221762,1.49659864 11.853458,1.61632653 11.6145974,1.85578231 C11.4055944,2.0952381 11.3160216,2.36462585 11.3160216,2.69387755 L11.3160216,2.69387755 Z" id="Shape"></path>
                <path d="M16.8695309,2.7537415 L15.2870793,2.7537415 L15.2870793,3.80136054 L15.5557975,3.80136054 C15.6752278,3.80136054 15.7050854,3.83129252 15.7050854,3.92108844 C15.7050854,4.01088435 15.6453703,4.04081633 15.5557975,4.04081633 L14.749643,4.04081633 C14.6302126,4.04081633 14.6003551,4.01088435 14.6003551,3.92108844 C14.6003551,3.83129252 14.6600702,3.80136054 14.749643,3.80136054 L15.0183611,3.80136054 L15.0183611,1.58639456 L14.8392157,1.58639456 C14.7197854,1.58639456 14.6899278,1.55646259 14.6899278,1.46666667 C14.6899278,1.37687075 14.749643,1.3170068 14.8392157,1.3170068 L15.4662248,1.3170068 C15.5856551,1.3170068 15.6155127,1.37687075 15.6155127,1.46666667 C15.6155127,1.55646259 15.5557975,1.58639456 15.4662248,1.58639456 L15.2870793,1.58639456 L15.2870793,2.48435374 L16.8695309,2.48435374 L16.8695309,1.58639456 L16.6903854,1.58639456 C16.5709551,1.58639456 16.51124,1.55646259 16.51124,1.46666667 C16.51124,1.37687075 16.5709551,1.3170068 16.6903854,1.3170068 L17.3173946,1.3170068 C17.4368249,1.3170068 17.4666824,1.37687075 17.4666824,1.46666667 C17.4666824,1.55646259 17.4069673,1.58639456 17.3173946,1.58639456 L17.1382491,1.58639456 L17.1382491,3.80136054 L17.4069673,3.80136054 C17.5263976,3.80136054 17.5562552,3.83129252 17.5562552,3.92108844 C17.5562552,4.01088435 17.49654,4.04081633 17.4069673,4.04081633 L16.6008127,4.04081633 C16.4813824,4.04081633 16.4515248,4.01088435 16.4515248,3.92108844 C16.4515248,3.83129252 16.51124,3.80136054 16.6008127,3.80136054 L16.8695309,3.80136054 L16.8695309,2.7537415 L16.8695309,2.7537415 Z" id="Shape"></path>
                <path d="M21.0495917,2.72380952 C21.0495917,3.14285714 20.9301614,3.47210884 20.6614432,3.77142857 C20.392725,4.0707483 20.0642916,4.19047619 19.6761431,4.19047619 C19.2879946,4.19047619 18.9595613,4.04081633 18.6908431,3.77142857 C18.4221249,3.47210884 18.3026946,3.14285714 18.3026946,2.72380952 C18.3026946,2.3047619 18.4221249,1.9755102 18.6908431,1.67619048 C18.9595613,1.37687075 19.2879946,1.25714286 19.6761431,1.25714286 C20.0642916,1.25714286 20.392725,1.40680272 20.6614432,1.67619048 C20.9003038,1.94557823 21.0495917,2.3047619 21.0495917,2.72380952 L21.0495917,2.72380952 Z M20.7808735,2.72380952 C20.7808735,2.39455782 20.6614432,2.0952381 20.4524401,1.88571429 C20.2434371,1.6462585 19.9747189,1.52653061 19.6462856,1.52653061 C19.3477098,1.52653061 19.0789916,1.6462585 18.840131,1.88571429 C18.6311279,2.12517007 18.5116976,2.39455782 18.5116976,2.72380952 C18.5116976,3.05306122 18.6311279,3.32244898 18.840131,3.56190476 C19.049134,3.80136054 19.3178522,3.92108844 19.6462856,3.92108844 C19.9448613,3.92108844 20.2135795,3.80136054 20.4524401,3.56190476 C20.6913007,3.32244898 20.7808735,3.05306122 20.7808735,2.72380952 L20.7808735,2.72380952 Z" id="Shape"></path>
            </g>
            <g id="Group" transform="translate(22.094607, 17.061224)" fill="#000000" sketch:type="MSShapeGroup">
                <path d="M2.80661222,1.58639456 C2.65732434,1.58639456 2.56775161,1.61632653 2.47817888,1.6462585 C2.38860615,1.67619048 2.29903342,1.82585034 2.11988796,2.03537415 C1.91088492,2.3047619 1.76159703,2.48435374 1.64216673,2.54421769 C1.73173946,2.57414966 1.82131219,2.60408163 1.91088492,2.66394558 C2.00045765,2.72380952 2.11988796,2.87346939 2.29903342,3.14285714 L2.71703949,3.77142857 L3.07533041,3.77142857 C3.2246183,3.77142857 3.28433345,3.80136054 3.28433345,3.89115646 C3.28433345,3.98095238 3.2246183,4.01088435 3.07533041,4.01088435 L2.71703949,4.01088435 C2.62746676,4.01088435 2.53789403,3.98095238 2.50803645,3.92108844 C2.50803645,3.92108844 2.47817888,3.89115646 2.47817888,3.86122449 L2.0601728,3.20272109 C1.91088492,2.96326531 1.79145461,2.84353741 1.64216673,2.7537415 C1.49287884,2.69387755 1.31373338,2.66394558 1.10473034,2.66394558 L0.925584882,2.66394558 L0.925584882,3.7414966 L1.22416065,3.7414966 C1.37344853,3.7414966 1.43316369,3.77142857 1.43316369,3.86122449 C1.43316369,3.95102041 1.37344853,3.98095238 1.22416065,3.98095238 L0.388148499,3.98095238 C0.238860615,3.98095238 0.179145461,3.95102041 0.179145461,3.86122449 C0.179145461,3.77142857 0.238860615,3.7414966 0.388148499,3.7414966 L0.686724267,3.7414966 L0.686724267,1.52653061 L0.388148499,1.52653061 C0.238860615,1.52653061 0.179145461,1.49659864 0.179145461,1.40680272 C0.179145461,1.3170068 0.238860615,1.25714286 0.388148499,1.25714286 L1.22416065,1.25714286 C1.37344853,1.25714286 1.43316369,1.3170068 1.43316369,1.40680272 C1.43316369,1.49659864 1.37344853,1.52653061 1.22416065,1.52653061 L0.925584882,1.52653061 L0.925584882,2.39455782 L1.10473034,2.39455782 C1.25401823,2.39455782 1.37344853,2.36462585 1.46302126,2.3047619 C1.552594,2.24489796 1.6720243,2.12517007 1.79145461,1.94557823 C2.03031522,1.61632653 2.20946069,1.43673469 2.29903342,1.34693878 C2.41846372,1.25714286 2.56775161,1.22721088 2.77675465,1.22721088 C2.86632738,1.22721088 2.95590011,1.22721088 2.98575768,1.25714286 C3.01561526,1.28707483 3.04547284,1.34693878 3.04547284,1.43673469 L3.04547284,1.79591837 C3.04547284,1.91564626 3.01561526,1.9755102 2.92604253,1.9755102 C2.8364698,1.9755102 2.80661222,1.91564626 2.80661222,1.79591837 L2.80661222,1.58639456 L2.80661222,1.58639456 Z" id="Shape"></path>
                <path d="M5.94165779,4.04081633 L5.94165779,3.65170068 C5.58336687,3.98095238 5.19521837,4.13061224 4.80706987,4.13061224 C4.5084941,4.13061224 4.26963349,4.04081633 4.1203456,3.89115646 C3.94120014,3.7414966 3.88148499,3.53197279 3.88148499,3.29251701 C3.88148499,3.02312925 4.0009153,2.81360544 4.20991833,2.63401361 C4.41892137,2.45442177 4.74735472,2.33469388 5.16536079,2.33469388 C5.2847911,2.33469388 5.40422141,2.33469388 5.52365171,2.36462585 C5.64308202,2.39455782 5.79236991,2.39455782 5.94165779,2.4244898 L5.94165779,2.00544218 C5.94165779,1.85578231 5.88194264,1.73605442 5.76251233,1.61632653 C5.64308202,1.49659864 5.46393656,1.46666667 5.19521837,1.46666667 C5.01607291,1.46666667 4.74735472,1.52653061 4.38906379,1.6462585 C4.32934864,1.67619048 4.29949106,1.67619048 4.26963349,1.67619048 C4.23977591,1.67619048 4.20991833,1.67619048 4.18006076,1.6462585 C4.15020318,1.61632653 4.15020318,1.58639456 4.15020318,1.55646259 C4.15020318,1.52653061 4.15020318,1.49659864 4.18006076,1.46666667 C4.20991833,1.43673469 4.32934864,1.40680272 4.5084941,1.34693878 C4.80706987,1.25714286 5.04593048,1.22721088 5.19521837,1.22721088 C5.49379414,1.22721088 5.73265475,1.3170068 5.91180021,1.46666667 C6.09094567,1.61632653 6.1805184,1.82585034 6.1805184,2.03537415 L6.1805184,3.80136054 L6.50895175,3.80136054 C6.5686669,3.80136054 6.59852448,3.80136054 6.62838206,3.83129252 C6.65823963,3.86122449 6.65823963,3.89115646 6.65823963,3.92108844 C6.65823963,3.95102041 6.65823963,3.98095238 6.62838206,4.01088435 C6.59852448,4.04081633 6.5686669,4.04081633 6.50895175,4.04081633 L5.94165779,4.04081633 L5.94165779,4.04081633 Z M5.94165779,2.72380952 C5.82222748,2.69387755 5.70279718,2.66394558 5.58336687,2.63401361 C5.46393656,2.60408163 5.31464868,2.60408163 5.16536079,2.60408163 C4.80706987,2.60408163 4.53835168,2.69387755 4.32934864,2.84353741 C4.18006076,2.96326531 4.09048803,3.11292517 4.09048803,3.29251701 C4.09048803,3.44217687 4.15020318,3.59183673 4.26963349,3.71156463 C4.38906379,3.83129252 4.56820926,3.86122449 4.77721229,3.86122449 C4.98621533,3.86122449 5.19521837,3.80136054 5.37436383,3.71156463 C5.55350929,3.62176871 5.73265475,3.47210884 5.94165779,3.26258503 L5.94165779,2.72380952 L5.94165779,2.72380952 Z" id="Shape"></path>
                <path d="M10.1217185,4.04081633 L7.55396694,4.04081633 L7.55396694,4.51972789 C7.55396694,4.63945578 7.52410936,4.7292517 7.43453663,4.7292517 C7.3449639,4.7292517 7.31510632,4.66938776 7.31510632,4.51972789 L7.31510632,4.01088435 C7.31510632,3.89115646 7.31510632,3.83129252 7.3449639,3.83129252 C7.37482148,3.80136054 7.40467905,3.80136054 7.46439421,3.80136054 C7.61368209,3.80136054 7.76296998,3.71156463 7.94211544,3.59183673 C8.1212609,3.44217687 8.21083363,3.17278912 8.21083363,2.7537415 L8.21083363,1.61632653 L7.88240028,1.61632653 C7.7331124,1.61632653 7.67339725,1.58639456 7.67339725,1.49659864 C7.67339725,1.40680272 7.7331124,1.34693878 7.88240028,1.34693878 L10.1515761,1.34693878 C10.300864,1.34693878 10.3605792,1.40680272 10.3605792,1.49659864 C10.3605792,1.58639456 10.300864,1.61632653 10.1515761,1.61632653 L9.91271551,1.61632653 L9.91271551,3.83129252 L10.1515761,3.83129252 C10.2411489,3.83129252 10.300864,3.83129252 10.3307216,3.86122449 C10.3605792,3.89115646 10.3605792,3.95102041 10.3605792,4.04081633 L10.3605792,4.54965986 C10.3605792,4.69931973 10.3307216,4.75918367 10.2411489,4.75918367 C10.1515761,4.75918367 10.1217185,4.69931973 10.1217185,4.54965986 L10.1217185,4.04081633 L10.1217185,4.04081633 Z M8.47955182,1.58639456 L8.47955182,2.72380952 C8.47955182,3.23265306 8.33026394,3.59183673 8.06154575,3.80136054 L9.67385489,3.80136054 L9.67385489,1.58639456 L8.47955182,1.58639456 L8.47955182,1.58639456 Z" id="Shape"></path>
                <path d="M11.5250247,1.3170068 L11.5250247,1.79591837 C11.6743125,1.61632653 11.8236004,1.46666667 12.0027459,1.37687075 C12.1818913,1.28707483 12.3610368,1.22721088 12.5998974,1.22721088 C12.838758,1.22721088 13.0776187,1.28707483 13.2567641,1.40680272 C13.4657672,1.52653061 13.615055,1.70612245 13.7344853,1.91564626 C13.8539157,2.12517007 13.9136308,2.36462585 13.9136308,2.60408163 C13.9136308,2.99319728 13.7942005,3.32244898 13.5254823,3.59183673 C13.2866217,3.86122449 12.9581883,4.01088435 12.5998974,4.01088435 C12.1520338,4.01088435 11.7937428,3.83129252 11.5250247,3.44217687 L11.5250247,5.02857143 L12.1221762,5.02857143 C12.1818913,5.02857143 12.2117489,5.02857143 12.2416065,5.0585034 C12.2714641,5.08843537 12.2714641,5.11836735 12.2714641,5.14829932 C12.2714641,5.17823129 12.2714641,5.20816327 12.2416065,5.23809524 C12.2117489,5.26802721 12.1818913,5.26802721 12.1221762,5.26802721 L10.9577307,5.26802721 C10.8980155,5.26802721 10.868158,5.26802721 10.8383004,5.23809524 C10.8084428,5.20816327 10.8084428,5.17823129 10.8084428,5.14829932 C10.8084428,5.11836735 10.8084428,5.08843537 10.8383004,5.0585034 C10.868158,5.02857143 10.8980155,5.02857143 10.9577307,5.02857143 L11.286164,5.02857143 L11.286164,1.61632653 L10.9577307,1.61632653 C10.8980155,1.61632653 10.868158,1.61632653 10.8383004,1.58639456 C10.8084428,1.55646259 10.8084428,1.52653061 10.8084428,1.49659864 C10.8084428,1.46666667 10.8084428,1.43673469 10.8383004,1.40680272 C10.868158,1.37687075 10.8980155,1.37687075 10.9577307,1.37687075 L11.5250247,1.37687075 L11.5250247,1.3170068 Z M13.6449126,2.60408163 C13.6449126,2.3047619 13.5553399,2.03537415 13.3463368,1.82585034 C13.1373338,1.61632653 12.8984732,1.49659864 12.5998974,1.49659864 C12.3013217,1.49659864 12.062461,1.61632653 11.853458,1.82585034 C11.644455,2.03537415 11.5548822,2.3047619 11.5548822,2.60408163 C11.5548822,2.90340136 11.644455,3.17278912 11.853458,3.38231293 C12.062461,3.59183673 12.3013217,3.71156463 12.5998974,3.71156463 C12.8984732,3.71156463 13.1373338,3.59183673 13.3463368,3.38231293 C13.5553399,3.17278912 13.6449126,2.90340136 13.6449126,2.60408163 L13.6449126,2.60408163 Z" id="Shape"></path>
                <path d="M17.4069673,2.69387755 C17.4069673,3.11292517 17.287537,3.44217687 17.0188188,3.7414966 C16.7501006,4.04081633 16.4216673,4.16054422 16.0335188,4.16054422 C15.6453703,4.16054422 15.3169369,4.01088435 15.0482187,3.7414966 C14.7795005,3.44217687 14.6600702,3.11292517 14.6600702,2.69387755 C14.6600702,2.27482993 14.7795005,1.94557823 15.0482187,1.6462585 C15.3169369,1.34693878 15.6453703,1.22721088 16.0335188,1.22721088 C16.4216673,1.22721088 16.7501006,1.37687075 17.0188188,1.6462585 C17.287537,1.94557823 17.4069673,2.27482993 17.4069673,2.69387755 L17.4069673,2.69387755 Z M17.1681067,2.69387755 C17.1681067,2.36462585 17.0486764,2.06530612 16.8396733,1.85578231 C16.6306703,1.61632653 16.3619521,1.49659864 16.0335188,1.49659864 C15.7050854,1.49659864 15.4662248,1.61632653 15.2273642,1.85578231 C15.0183611,2.0952381 14.8989308,2.36462585 14.8989308,2.69387755 C14.8989308,3.02312925 15.0183611,3.29251701 15.2273642,3.53197279 C15.4363672,3.77142857 15.7050854,3.89115646 16.0335188,3.89115646 C16.3619521,3.89115646 16.6008127,3.77142857 16.8396733,3.53197279 C17.0486764,3.29251701 17.1681067,3.02312925 17.1681067,2.69387755 L17.1681067,2.69387755 Z" id="Shape"></path>
                <path d="M18.6908431,3.80136054 L18.6908431,1.58639456 L18.3624098,1.58639456 C18.2429794,1.58639456 18.2131219,1.55646259 18.2131219,1.46666667 C18.2131219,1.37687075 18.272837,1.3170068 18.3624098,1.3170068 L19.7060007,1.3170068 C20.3628674,1.3170068 20.6913007,1.55646259 20.6913007,2.00544218 C20.6913007,2.3047619 20.5121553,2.48435374 20.1837219,2.54421769 C20.6913007,2.60408163 20.9600189,2.87346939 20.9600189,3.26258503 C20.9600189,3.77142857 20.6315856,4.04081633 20.0045765,4.04081633 L18.3624098,4.04081633 C18.2429794,4.04081633 18.2131219,4.01088435 18.2131219,3.92108844 C18.2131219,3.83129252 18.272837,3.80136054 18.3624098,3.80136054 L18.6908431,3.80136054 L18.6908431,3.80136054 Z M18.9297037,2.4244898 L19.5865704,2.4244898 C20.1538644,2.4244898 20.4524401,2.27482993 20.4524401,1.9755102 C20.4524401,1.85578231 20.392725,1.76598639 20.3031522,1.67619048 C20.2135795,1.61632653 20.0045765,1.55646259 19.7060007,1.55646259 L18.9595613,1.55646259 L18.9595613,2.4244898 L18.9297037,2.4244898 Z M18.9297037,3.80136054 L19.9747189,3.80136054 C20.4524401,3.80136054 20.7211583,3.62176871 20.7211583,3.29251701 C20.7211583,3.11292517 20.6614432,2.99319728 20.5420129,2.87346939 C20.4225826,2.7537415 20.1240068,2.69387755 19.6462856,2.69387755 L18.9595613,2.69387755 L18.9595613,3.80136054 L18.9297037,3.80136054 Z" id="Shape"></path>
                <path d="M22.0647493,1.58639456 L22.0647493,2.48435374 L22.6320432,2.48435374 C23.3784827,2.48435374 23.7666312,2.72380952 23.7666312,3.23265306 C23.7666312,3.44217687 23.706916,3.65170068 23.5874857,3.80136054 C23.4680554,3.98095238 23.139622,4.04081633 22.6320432,4.04081633 L21.6766008,4.04081633 C21.5571705,4.04081633 21.5273129,4.01088435 21.5273129,3.92108844 C21.5273129,3.83129252 21.5870281,3.80136054 21.6766008,3.80136054 L21.8258887,3.80136054 L21.8258887,1.58639456 L21.7064584,1.58639456 C21.5870281,1.58639456 21.5273129,1.55646259 21.5273129,1.46666667 C21.5273129,1.37687075 21.5870281,1.3170068 21.7064584,1.3170068 L22.4230402,1.3170068 C22.5424705,1.3170068 22.5723281,1.37687075 22.5723281,1.46666667 C22.5723281,1.55646259 22.5126129,1.58639456 22.4230402,1.58639456 L22.0647493,1.58639456 L22.0647493,1.58639456 Z M22.0647493,3.80136054 L22.6320432,3.80136054 C22.9604766,3.80136054 23.1993372,3.77142857 23.3486251,3.68163265 C23.4680554,3.59183673 23.5277705,3.47210884 23.5277705,3.26258503 C23.5277705,3.0829932 23.4680554,2.93333333 23.3187675,2.87346939 C23.1694796,2.81360544 22.9604766,2.7537415 22.6320432,2.7537415 L22.0647493,2.7537415 L22.0647493,3.80136054 L22.0647493,3.80136054 Z M24.5130706,1.58639456 L24.5130706,3.80136054 L24.8415039,3.80136054 C24.9609342,3.80136054 25.0206494,3.83129252 25.0206494,3.92108844 C25.0206494,4.01088435 24.9609342,4.04081633 24.8415039,4.04081633 L23.9457766,4.04081633 C23.8263463,4.04081633 23.7964887,4.01088435 23.7964887,3.92108844 C23.7964887,3.83129252 23.8562039,3.80136054 23.9457766,3.80136054 L24.27421,3.80136054 L24.27421,1.58639456 L23.9457766,1.58639456 C23.8263463,1.58639456 23.7964887,1.55646259 23.7964887,1.46666667 C23.7964887,1.37687075 23.8562039,1.3170068 23.9457766,1.3170068 L24.8415039,1.3170068 C24.9609342,1.3170068 25.0206494,1.37687075 25.0206494,1.46666667 C25.0206494,1.55646259 24.9609342,1.58639456 24.8415039,1.58639456 L24.5130706,1.58639456 L24.5130706,1.58639456 Z" id="Shape"></path>
                <path d="M25.9462343,4.04081633 L25.3490827,4.04081633 C25.2296524,4.04081633 25.1997948,4.01088435 25.1997948,3.92108844 C25.1997948,3.83129252 25.25951,3.80136054 25.3490827,3.80136054 L25.6476585,3.80136054 L25.6476585,1.58639456 L25.3490827,1.58639456 C25.2296524,1.58639456 25.1997948,1.55646259 25.1997948,1.46666667 C25.1997948,1.37687075 25.25951,1.3170068 25.3490827,1.3170068 L26.2149525,1.3170068 C26.3343828,1.3170068 26.3642403,1.37687075 26.3642403,1.46666667 C26.3642403,1.55646259 26.3045252,1.58639456 26.2149525,1.58639456 L25.8865191,1.58639456 L25.8865191,3.68163265 L27.6481161,1.3170068 L28.2751253,1.3170068 C28.3945556,1.3170068 28.4244131,1.37687075 28.4244131,1.46666667 C28.4244131,1.55646259 28.364698,1.58639456 28.2751253,1.58639456 L27.9466919,1.58639456 L27.9466919,3.80136054 L28.2751253,3.80136054 C28.3945556,3.80136054 28.4244131,3.83129252 28.4244131,3.92108844 C28.4244131,4.01088435 28.364698,4.04081633 28.2751253,4.04081633 L27.379398,4.04081633 C27.2599676,4.04081633 27.2301101,4.01088435 27.2301101,3.92108844 C27.2301101,3.83129252 27.2898252,3.80136054 27.379398,3.80136054 L27.7078313,3.80136054 L27.7078313,1.70612245 L25.9462343,4.04081633 L25.9462343,4.04081633 Z M26.1253797,0.0897959184 C26.1552373,0.0897959184 26.1850949,0.0897959184 26.2149525,0.119727891 C26.24481,0.149659864 26.24481,0.179591837 26.24481,0.239455782 C26.24481,0.359183673 26.3343828,0.478911565 26.4239555,0.568707483 C26.5433858,0.658503401 26.6926737,0.718367347 26.8718192,0.718367347 C27.0509646,0.718367347 27.2002525,0.658503401 27.3196828,0.568707483 C27.4391131,0.478911565 27.4988283,0.359183673 27.4988283,0.239455782 C27.4988283,0.179591837 27.5286858,0.149659864 27.5286858,0.119727891 C27.5585434,0.0897959184 27.588401,0.0897959184 27.6182586,0.0897959184 C27.6481161,0.0897959184 27.6779737,0.0897959184 27.7078313,0.119727891 C27.7376889,0.149659864 27.7376889,0.179591837 27.7376889,0.239455782 C27.7376889,0.419047619 27.6481161,0.598639456 27.4988283,0.74829932 C27.3495404,0.897959184 27.1405373,0.987755102 26.8419616,0.987755102 C26.5732434,0.987755102 26.3642403,0.897959184 26.1850949,0.74829932 C26.035807,0.598639456 25.9462343,0.419047619 25.9462343,0.239455782 C25.9462343,0.20952381 25.9462343,0.149659864 25.9760918,0.119727891 C26.0656646,0.0897959184 26.0955222,0.0897959184 26.1253797,0.0897959184 L26.1253797,0.0897959184 Z" id="Shape"></path>
            </g>
            <g id="Group" transform="translate(32.843335, 25.741497)" fill="#000000" sketch:type="MSShapeGroup">
                <path d="M2.98575768,3.14285714 L0.298575768,3.14285714 C0.179145461,3.14285714 0.149287884,3.11292517 0.149287884,3.02312925 C0.149287884,2.93333333 0.209003038,2.90340136 0.298575768,2.90340136 L0.56729396,2.90340136 L0.56729396,0.688435374 L0.388148499,0.688435374 C0.268718192,0.688435374 0.238860615,0.658503401 0.238860615,0.568707483 C0.238860615,0.478911565 0.298575768,0.419047619 0.388148499,0.419047619 L1.01515761,0.419047619 C1.13458792,0.419047619 1.1644455,0.478911565 1.1644455,0.568707483 C1.1644455,0.658503401 1.10473034,0.688435374 1.01515761,0.688435374 L0.836012151,0.688435374 L0.836012151,2.90340136 L2.41846372,2.90340136 L2.41846372,0.688435374 L2.23931826,0.688435374 C2.11988796,0.688435374 2.0601728,0.658503401 2.0601728,0.568707483 C2.0601728,0.478911565 2.11988796,0.419047619 2.23931826,0.419047619 L2.86632738,0.419047619 C2.98575768,0.419047619 3.01561526,0.478911565 3.01561526,0.568707483 C3.01561526,0.658503401 2.95590011,0.688435374 2.86632738,0.688435374 L2.68718192,0.688435374 L2.68718192,2.90340136 L3.04547284,2.90340136 C3.13504557,2.90340136 3.19476072,2.90340136 3.2246183,2.93333333 C3.25447587,2.96326531 3.25447587,3.02312925 3.25447587,3.11292517 L3.25447587,3.62176871 C3.25447587,3.77142857 3.2246183,3.83129252 3.13504557,3.83129252 C3.04547284,3.83129252 3.01561526,3.77142857 3.01561526,3.62176871 L3.01561526,3.14285714 L2.98575768,3.14285714 Z" id="Shape"></path>
                <path d="M6.62838206,1.82585034 L4.1203456,1.82585034 C4.15020318,2.15510204 4.29949106,2.45442177 4.5084941,2.66394558 C4.71749714,2.87346939 5.01607291,2.96326531 5.34450625,2.96326531 C5.52365171,2.96326531 5.73265475,2.93333333 5.91180021,2.87346939 C6.12080325,2.81360544 6.27009114,2.72380952 6.38952144,2.60408163 C6.41937902,2.57414966 6.4492366,2.54421769 6.47909417,2.54421769 C6.50895175,2.54421769 6.53880933,2.54421769 6.5686669,2.57414966 C6.59852448,2.60408163 6.59852448,2.63401361 6.59852448,2.66394558 C6.59852448,2.69387755 6.5686669,2.72380952 6.53880933,2.7537415 C6.4492366,2.87346939 6.27009114,2.96326531 6.03123052,3.05306122 C5.79236991,3.14285714 5.55350929,3.20272109 5.2847911,3.20272109 C4.86678502,3.20272109 4.5084941,3.05306122 4.23977591,2.7537415 C3.97105772,2.45442177 3.82176983,2.0952381 3.82176983,1.67619048 C3.82176983,1.28707483 3.94120014,0.957823129 4.20991833,0.688435374 C4.47863653,0.419047619 4.80706987,0.269387755 5.19521837,0.269387755 C5.58336687,0.269387755 5.94165779,0.419047619 6.1805184,0.688435374 C6.47909417,1.01768707 6.62838206,1.37687075 6.62838206,1.82585034 L6.62838206,1.82585034 Z M6.35966387,1.55646259 C6.29994871,1.25714286 6.1805184,1.01768707 5.97151537,0.838095238 C5.76251233,0.658503401 5.52365171,0.568707483 5.22507595,0.568707483 C4.92650018,0.568707483 4.68763956,0.658503401 4.47863653,0.838095238 C4.26963349,1.01768707 4.15020318,1.25714286 4.09048803,1.55646259 L6.35966387,1.55646259 L6.35966387,1.55646259 Z" id="Shape"></path>
                <path d="M9.67385489,1.82585034 L8.09140332,1.82585034 L8.09140332,2.87346939 L8.36012151,2.87346939 C8.47955182,2.87346939 8.5094094,2.90340136 8.5094094,2.99319728 C8.5094094,3.0829932 8.44969424,3.11292517 8.36012151,3.11292517 L7.55396694,3.11292517 C7.43453663,3.11292517 7.40467905,3.0829932 7.40467905,2.99319728 C7.40467905,2.90340136 7.46439421,2.87346939 7.55396694,2.87346939 L7.82268513,2.87346939 L7.82268513,0.658503401 L7.64353967,0.658503401 C7.52410936,0.658503401 7.49425179,0.628571429 7.49425179,0.53877551 C7.49425179,0.448979592 7.55396694,0.389115646 7.64353967,0.389115646 L8.27054878,0.389115646 C8.38997909,0.389115646 8.41983667,0.448979592 8.41983667,0.53877551 C8.41983667,0.628571429 8.36012151,0.658503401 8.27054878,0.658503401 L8.09140332,0.658503401 L8.09140332,1.55646259 L9.67385489,1.55646259 L9.67385489,0.658503401 L9.49470943,0.658503401 C9.37527913,0.658503401 9.31556397,0.628571429 9.31556397,0.53877551 C9.31556397,0.448979592 9.37527913,0.389115646 9.49470943,0.389115646 L10.1217185,0.389115646 C10.2411489,0.389115646 10.2710064,0.448979592 10.2710064,0.53877551 C10.2710064,0.628571429 10.2112913,0.658503401 10.1217185,0.658503401 L9.94257309,0.658503401 L9.94257309,2.87346939 L10.2112913,2.87346939 C10.3307216,2.87346939 10.3605792,2.90340136 10.3605792,2.99319728 C10.3605792,3.0829932 10.300864,3.11292517 10.2112913,3.11292517 L9.4051367,3.11292517 C9.2857064,3.11292517 9.25584882,3.0829932 9.25584882,2.99319728 C9.25584882,2.90340136 9.31556397,2.87346939 9.4051367,2.87346939 L9.67385489,2.87346939 L9.67385489,1.82585034 L9.67385489,1.82585034 Z" id="Shape"></path>
                <path d="M12.5998974,0.658503401 L12.5998974,2.87346939 L13.2269065,2.87346939 C13.3463368,2.87346939 13.406052,2.90340136 13.406052,2.99319728 C13.406052,3.0829932 13.3463368,3.11292517 13.2269065,3.11292517 L11.7041701,3.11292517 C11.5847398,3.11292517 11.5250247,3.0829932 11.5250247,2.99319728 C11.5250247,2.90340136 11.5847398,2.87346939 11.7041701,2.87346939 L12.3311792,2.87346939 L12.3311792,0.658503401 L11.3757368,0.658503401 L11.3757368,1.58639456 C11.3757368,1.70612245 11.3458792,1.76598639 11.2563065,1.76598639 C11.1667337,1.76598639 11.1368762,1.70612245 11.1368762,1.58639456 L11.1368762,0.389115646 L13.7643429,0.389115646 L13.7643429,1.58639456 C13.7643429,1.70612245 13.7344853,1.76598639 13.6449126,1.76598639 C13.5553399,1.76598639 13.5254823,1.70612245 13.5254823,1.58639456 L13.5254823,0.658503401 L12.5998974,0.658503401 L12.5998974,0.658503401 Z" id="Shape"></path>
                <path d="M15.167649,0.389115646 L15.167649,0.868027211 C15.3169369,0.688435374 15.4662248,0.53877551 15.6453703,0.448979592 C15.8245157,0.359183673 16.0036612,0.299319728 16.2425218,0.299319728 C16.4813824,0.299319728 16.720243,0.359183673 16.8993885,0.478911565 C17.0785339,0.598639456 17.2576794,0.778231293 17.3771097,0.987755102 C17.49654,1.19727891 17.5562552,1.43673469 17.5562552,1.67619048 C17.5562552,2.06530612 17.4368249,2.39455782 17.1681067,2.66394558 C16.9292461,2.93333333 16.6008127,3.0829932 16.2425218,3.0829932 C15.7946581,3.0829932 15.4363672,2.90340136 15.167649,2.51428571 L15.167649,4.10068027 L15.7648006,4.10068027 C15.8245157,4.10068027 15.8543733,4.10068027 15.8842309,4.13061224 C15.9140885,4.16054422 15.9140885,4.19047619 15.9140885,4.22040816 C15.9140885,4.25034014 15.9140885,4.28027211 15.8842309,4.31020408 C15.8543733,4.34013605 15.8245157,4.34013605 15.7648006,4.34013605 L14.6003551,4.34013605 C14.5406399,4.34013605 14.5107823,4.34013605 14.4809248,4.31020408 C14.4510672,4.28027211 14.4510672,4.25034014 14.4510672,4.22040816 C14.4510672,4.19047619 14.4510672,4.16054422 14.4809248,4.13061224 C14.5107823,4.10068027 14.5406399,4.10068027 14.6003551,4.10068027 L14.9287884,4.10068027 L14.9287884,0.688435374 L14.6003551,0.688435374 C14.5406399,0.688435374 14.5107823,0.688435374 14.4809248,0.658503401 C14.4510672,0.628571429 14.4510672,0.598639456 14.4510672,0.568707483 C14.4510672,0.53877551 14.4510672,0.508843537 14.4809248,0.478911565 C14.5107823,0.448979592 14.5406399,0.448979592 14.6003551,0.448979592 L15.167649,0.448979592 L15.167649,0.389115646 Z M17.287537,1.67619048 C17.287537,1.37687075 17.1979643,1.10748299 16.9889612,0.897959184 C16.7799582,0.688435374 16.5410976,0.568707483 16.2425218,0.568707483 C15.943946,0.568707483 15.7050854,0.688435374 15.4960824,0.897959184 C15.2870793,1.10748299 15.1975066,1.37687075 15.1975066,1.67619048 C15.1975066,1.9755102 15.2870793,2.24489796 15.4960824,2.45442177 C15.7050854,2.66394558 15.943946,2.78367347 16.2425218,2.78367347 C16.5410976,2.78367347 16.7799582,2.66394558 16.9889612,2.45442177 C17.1681067,2.27482993 17.287537,2.00544218 17.287537,1.67619048 L17.287537,1.67619048 Z" id="Shape"></path>
            </g>
        </g>
    </g>
</svg>