<?xml version="1.0" encoding="UTF-8" standalone="no"?>
<svg width="22px" height="17px" viewBox="0 0 22 17" version="1.1" xmlns="http://www.w3.org/2000/svg" xmlns:xlink="http://www.w3.org/1999/xlink" xmlns:sketch="http://www.bohemiancoding.com/sketch/ns">
    <!-- Generator: Sketch 3.3.2 (12043) - http://www.bohemiancoding.com/sketch -->
    <title>Slice 1</title>
    <desc>Created with Sketch.</desc>
    <defs></defs>
    <g id="Page-1" stroke="none" stroke-width="1" fill="none" fill-rule="evenodd" sketch:type="MSPage">
        <path d="M9.63856703,11.3192521 L9.625,11.3333333 L11,12.75 L12.375,11.3333333 L11.335312,10.2699282 L12.3779938,11.2438399 L13.7183766,9.93042513 L15.7310701,12.0255839 L17.142325,10.6302745 L15.1384607,8.53891263 L17.3002706,6.42059767 L15.8997981,5.06131558 L10.943797,9.86273039 L6.19731903,4.96343486 L4.83734131,6.41944379 L6.91385462,8.53859371 L4.74704743,10.6147469 L6.20305636,11.9747246 L8.3035918,9.95686606 L9.63856703,11.3192521 Z M1.991155,0 C0.891470458,0 0,0.890058413 0,2.00010618 L0,14.9998938 C0,16.104522 0.889673948,17 1.991155,17 L20.008845,17 C21.1085295,17 22,16.1099416 22,14.9998938 L22,2.00010618 C22,0.895478039 21.1103261,0 20.008845,0 L1.991155,0 Z M3.75731095,2.83333333 C3.20098847,2.83333333 2.75,3.27761343 2.75,3.83909106 L2.75,13.1609089 C2.75,13.7163736 3.19133514,14.1666667 3.75731095,14.1666667 L18.2426891,14.1666667 C18.7990115,14.1666667 19.25,13.7223866 19.25,13.1609089 L19.25,3.83909106 C19.25,3.28362641 18.8086649,2.83333333 18.2426891,2.83333333 L3.75731095,2.83333333 Z" id="envelope" fill="#E2ECF1" sketch:type="MSShapeGroup"></path>
    </g>
</svg>