<?xml version="1.0" encoding="UTF-8" standalone="no"?>
<svg width="14px" height="22px" viewBox="0 0 14 22" version="1.1" xmlns="http://www.w3.org/2000/svg" xmlns:xlink="http://www.w3.org/1999/xlink" xmlns:sketch="http://www.bohemiancoding.com/sketch/ns">
    <!-- Generator: Sketch 3.3.2 (12043) - http://www.bohemiancoding.com/sketch -->
    <title>Slice 1</title>
    <desc>Created with Sketch.</desc>
    <defs></defs>
    <g id="Page-1" stroke="none" stroke-width="1" fill="none" fill-rule="evenodd" sketch:type="MSPage">
        <path d="M13.0349761,11.81541 C12.7206415,11.1839136 11.8498788,10.6585843 10.6927555,11.5701918 C9.12881993,12.8026067 6.61667265,12.8026067 6.61667265,12.8026067 C6.61667265,12.8026067 4.10445097,12.8026067 2.54044101,11.5701918 C1.38331767,10.6585843 0.512703818,11.1839136 0.198369213,11.81541 C-0.34972618,12.9163623 0.269494392,13.4485364 1.66685121,14.3455618 C2.86035552,15.1117198 4.50032658,15.3979317 5.559318,15.5049915 L4.67538677,16.3889227 C3.43010094,17.6341341 2.22818957,18.8361199 1.39425429,19.6701296 C0.895634045,20.168601 0.895634045,20.9770176 1.39425429,21.4757866 L1.5446885,21.6261464 C1.79340344,21.8748613 2.11912105,21.9994792 2.44513625,22 L2.44982337,22 C2.77576418,21.9994792 3.10155618,21.8747869 3.35027111,21.6261464 L6.6314036,18.3450139 C7.87661503,19.590151 9.0785264,20.7921367 9.91253608,21.626072 C10.4110819,22.1246179 11.2194984,22.1246179 11.7180443,21.626072 L11.8684785,21.4756378 C12.3672476,20.9769432 12.3670988,20.168601 11.8684785,19.6700552 L7.70058765,15.5022387 C8.76047186,15.3930214 10.3828848,15.1053959 11.5664197,14.3455618 C12.9637765,13.4485364 13.5829227,12.9163623 13.0349761,11.81541 L13.0349761,11.81541 Z M6.61667265,2.82863945 C8.12957068,2.82863945 9.35603363,4.0551768 9.35603363,5.56800043 C9.35603363,7.08089847 8.12957068,8.30728702 6.61667265,8.30728702 C5.10377462,8.30728702 3.87731167,7.08089847 3.87731167,5.56800043 C3.87731167,4.0551768 5.10377462,2.82863945 6.61667265,2.82863945 L6.61667265,2.82863945 Z M6.61667265,11.1360009 C9.69172067,11.1360009 12.1846731,8.64312285 12.1846731,5.56800043 C12.1846731,2.49295241 9.69172067,0 6.61667265,0 C3.54147583,0 1.04859782,2.49295241 1.04859782,5.56800043 C1.04859782,8.64312285 3.54147583,11.1360009 6.61667265,11.1360009 L6.61667265,11.1360009 Z" id="Fill-51" fill="#FFFFFF" sketch:type="MSShapeGroup"></path>
    </g>
</svg>