<?xml version="1.0" encoding="UTF-8" standalone="no"?>
<svg width="15px" height="20px" viewBox="0 0 15 20" version="1.1" xmlns="http://www.w3.org/2000/svg" xmlns:xlink="http://www.w3.org/1999/xlink" xmlns:sketch="http://www.bohemiancoding.com/sketch/ns">
    <!-- Generator: Sketch 3.3.2 (12043) - http://www.bohemiancoding.com/sketch -->
    <title>Untitled</title>
    <desc>Created with Sketch.</desc>
    <defs></defs>
    <g id="Page-1" stroke="none" stroke-width="1" fill="none" fill-rule="evenodd" sketch:type="MSPage">
        <path d="M1.99188419,0 C0.891796927,0 0,0.898212381 0,1.99079514 L0,18.0092049 C0,19.1086907 0.893397331,20 1.99188419,20 L13.0081158,20 C14.1082031,20 15,19.1017876 15,18.0092049 L15,1.99079514 C15,0.891309342 14.1066027,0 13.0081158,0 L1.99188419,0 Z M3.00964952,2.5 C2.72817786,2.5 2.5,2.71696091 2.5,3.00549656 L2.5,14.4945034 C2.5,14.7736815 2.72765279,15 3.00964952,15 L11.9903505,15 C12.2718221,15 12.5,14.7830391 12.5,14.4945034 L12.5,3.00549656 C12.5,2.72631852 12.2723472,2.5 11.9903505,2.5 L3.00964952,2.5 Z M7.5,18.75 C8.19035597,18.75 8.75,18.190356 8.75,17.5 C8.75,16.809644 8.19035597,16.25 7.5,16.25 C6.80964403,16.25 6.25,16.809644 6.25,17.5 C6.25,18.190356 6.80964403,18.75 7.5,18.75 Z" id="phone" fill="#FFFFFF" sketch:type="MSShapeGroup"></path>
    </g>
</svg>