<?xml version="1.0" encoding="UTF-8" standalone="no"?>
<svg width="15px" height="20px" viewBox="0 0 15 20" version="1.1" xmlns="http://www.w3.org/2000/svg" xmlns:xlink="http://www.w3.org/1999/xlink" xmlns:sketch="http://www.bohemiancoding.com/sketch/ns">
    <!-- Generator: Sketch 3.3.2 (12043) - http://www.bohemiancoding.com/sketch -->
    <title>Untitled</title>
    <desc>Created with Sketch.</desc>
    <defs></defs>
    <g id="Page-1" stroke="none" stroke-width="1" fill="none" fill-rule="evenodd" sketch:type="MSPage">
        <path d="M6.84754428,19.2480916 C7.20788562,19.6633592 7.79400889,19.6653569 8.15245572,19.2480916 C8.15245572,19.2480916 15,11.6421358 15,7.5 C15,3.35786417 11.6421358,0 7.5,0 C3.35786417,0 0,3.35786417 0,7.5 C0,11.6421358 6.84754428,19.2480916 6.84754428,19.2480916 Z M7.5,11.875 C9.9162459,11.875 11.875,9.9162459 11.875,7.5 C11.875,5.0837541 9.9162459,3.125 7.5,3.125 C5.0837541,3.125 3.125,5.0837541 3.125,7.5 C3.125,9.9162459 5.0837541,11.875 7.5,11.875 Z" id="pinpoint-1" fill="#FFFFFF" sketch:type="MSShapeGroup"></path>
    </g>
</svg>