<?xml version="1.0" encoding="UTF-8" standalone="no"?>
<svg width="13px" height="16px" viewBox="0 0 13 16" version="1.1" xmlns="http://www.w3.org/2000/svg" xmlns:xlink="http://www.w3.org/1999/xlink" xmlns:sketch="http://www.bohemiancoding.com/sketch/ns">
    <!-- Generator: Sketch 3.3.2 (12043) - http://www.bohemiancoding.com/sketch -->
    <title>Slice 1</title>
    <desc>Created with Sketch.</desc>
    <defs></defs>
    <g id="Page-1" stroke="none" stroke-width="1" fill="none" fill-rule="evenodd" sketch:type="MSPage">
        <path d="M0.0303714391,0 L7.2044404,0 C9.56510967,0 11.5745773,1.15644535 11.5724651,3.4949005 C11.5705715,5.44748542 10.8636526,6.20698989 9.41114031,7.06583884 C9.53532089,7.16816947 10.3676586,7.4164578 10.6471195,7.55418536 C11.0946794,7.77472425 11.3579714,7.99773947 11.6523631,8.29708387 C12.4764707,9.13495686 12.6300759,9.90094349 12.6300759,11.2152912 C12.6300759,14.2646711 9.68069593,15.7977368 6.84027446,15.7977368 L0,15.7977368 L0.0303714391,0 L0.0303714391,0 Z M3.92876779,4.15039918 L3.92825796,6.20189157 C5.77610876,6.20189157 7.51245195,6.44530008 7.51245195,4.44173193 C7.51245195,2.58681632 5.54814088,2.8924972 3.92694696,2.8924972 L3.92876779,4.15039918 L3.92876779,4.15039918 Z M3.9276753,12.8896533 C5.9524379,12.8896533 8.45382089,13.2231565 8.49788497,10.9243954 C8.54376988,8.52658125 5.92825729,8.95935605 3.92884063,8.95935605 L3.9276753,12.8896533 L3.9276753,12.8896533 Z" id="Fill-82" fill="#FFFFFF" sketch:type="MSShapeGroup"></path>
    </g>
</svg>