<?xml version="1.0" encoding="UTF-8" standalone="no"?>
<!DOCTYPE svg PUBLIC "-//W3C//DTD SVG 1.1//EN"
 "http://www.w3.org/Graphics/SVG/1.1/DTD/svg11.dtd">
<!-- Generated by graphviz version 2.38.0 (20140413.2041)
 -->
<!-- Title: controllers_diagram Pages: 1 -->
<svg width="678pt" height="643pt"
 viewBox="0.00 0.00 677.53 643.00" xmlns="http://www.w3.org/2000/svg" xmlns:xlink="http://www.w3.org/1999/xlink">
<g id="graph0" class="graph" transform="scale(1 1) rotate(0) translate(255.821 405.5)">
<title>controllers_diagram</title>
<polygon fill="none" stroke="none" points="-255.821,237.5 -255.821,-405.5 421.714,-405.5 421.714,237.5 -255.821,237.5"/>
<!-- _diagram_info -->
<g id="node1" class="node"><title>_diagram_info</title>
<text text-anchor="start" x="-225.688" y="174.9" font-family="Times,serif" font-size="13.00">Controllers diagram</text>
<text text-anchor="start" x="-225.688" y="187.9" font-family="Times,serif" font-size="13.00">Date: Apr 25 2016 &#45; 18:23</text>
<text text-anchor="start" x="-225.688" y="200.9" font-family="Times,serif" font-size="13.00">Migration version: 20151027151705</text>
<text text-anchor="start" x="-225.688" y="213.9" font-family="Times,serif" font-size="13.00">Generated by RailRoady 1.4.2</text>
<text text-anchor="start" x="-225.688" y="226.9" font-family="Times,serif" font-size="13.00">http://railroady.prestonlee.com</text>
</g>
<!-- ApplicationController -->
<g id="node2" class="node"><title>ApplicationController</title>
<path fill="none" stroke="black" d="M-239.821,125C-239.821,125 -124.179,125 -124.179,125 -118.179,125 -112.179,119 -112.179,113 -112.179,113 -112.179,49 -112.179,49 -112.179,43 -118.179,37 -124.179,37 -124.179,37 -239.821,37 -239.821,37 -245.821,37 -251.821,43 -251.821,49 -251.821,49 -251.821,113 -251.821,113 -251.821,119 -245.821,125 -239.821,125"/>
<text text-anchor="middle" x="-182" y="52.2" font-family="Times,serif" font-size="14.00">ApplicationController</text>
<polyline fill="none" stroke="black" points="-251.821,59 -112.179,59 "/>
<text text-anchor="start" x="-243.821" y="74.2" font-family="Times,serif" font-size="14.00">prepare_sidebar</text>
<polyline fill="none" stroke="black" points="-251.821,81 -112.179,81 "/>
<text text-anchor="start" x="-243.821" y="96.2" font-family="Times,serif" font-size="14.00">_layout_from_proc</text>
<polyline fill="none" stroke="black" points="-251.821,103 -112.179,103 "/>
<text text-anchor="start" x="-243.821" y="118.2" font-family="Times,serif" font-size="14.00">_layout</text>
</g>
<!-- ControlPanelController -->
<g id="node3" class="node"><title>ControlPanelController</title>
<path fill="none" stroke="black" d="M282.286,89C282.286,89 405.714,89 405.714,89 411.714,89 417.714,83 417.714,77 417.714,77 417.714,-1 417.714,-1 417.714,-7 411.714,-13 405.714,-13 405.714,-13 282.286,-13 282.286,-13 276.286,-13 270.286,-7 270.286,-1 270.286,-1 270.286,77 270.286,77 270.286,83 276.286,89 282.286,89"/>
<text text-anchor="middle" x="344" y="2.2" font-family="Times,serif" font-size="14.00">ControlPanelController</text>
<polyline fill="none" stroke="black" points="270.286,9 417.714,9 "/>
<text text-anchor="start" x="278.286" y="24.2" font-family="Times,serif" font-size="14.00">list</text>
<text text-anchor="start" x="278.286" y="38.2" font-family="Times,serif" font-size="14.00">root</text>
<polyline fill="none" stroke="black" points="270.286,45 417.714,45 "/>
<text text-anchor="start" x="278.286" y="60.2" font-family="Times,serif" font-size="14.00">_layout_from_proc</text>
<polyline fill="none" stroke="black" points="270.286,67 417.714,67 "/>
<text text-anchor="start" x="278.286" y="82.2" font-family="Times,serif" font-size="14.00">_layout</text>
</g>
<!-- CoursesController -->
<g id="node4" class="node"><title>CoursesController</title>
<path fill="none" stroke="black" d="M-222.042,-1C-222.042,-1 -121.958,-1 -121.958,-1 -115.958,-1 -109.958,-7 -109.958,-13 -109.958,-13 -109.958,-217 -109.958,-217 -109.958,-223 -115.958,-229 -121.958,-229 -121.958,-229 -222.042,-229 -222.042,-229 -228.042,-229 -234.042,-223 -234.042,-217 -234.042,-217 -234.042,-13 -234.042,-13 -234.042,-7 -228.042,-1 -222.042,-1"/>
<text text-anchor="middle" x="-172" y="-213.8" font-family="Times,serif" font-size="14.00">CoursesController</text>
<polyline fill="none" stroke="black" points="-234.042,-207 -109.958,-207 "/>
<text text-anchor="start" x="-226.042" y="-191.8" font-family="Times,serif" font-size="14.00">create</text>
<text text-anchor="start" x="-226.042" y="-177.8" font-family="Times,serif" font-size="14.00">destroy</text>
<text text-anchor="start" x="-226.042" y="-163.8" font-family="Times,serif" font-size="14.00">edit</text>
<text text-anchor="start" x="-226.042" y="-149.8" font-family="Times,serif" font-size="14.00">index</text>
<text text-anchor="start" x="-226.042" y="-135.8" font-family="Times,serif" font-size="14.00">new</text>
<text text-anchor="start" x="-226.042" y="-121.8" font-family="Times,serif" font-size="14.00">search</text>
<text text-anchor="start" x="-226.042" y="-107.8" font-family="Times,serif" font-size="14.00">show</text>
<text text-anchor="start" x="-226.042" y="-93.8" font-family="Times,serif" font-size="14.00">update</text>
<polyline fill="none" stroke="black" points="-234.042,-87 -109.958,-87 "/>
<text text-anchor="start" x="-226.042" y="-71.8" font-family="Times,serif" font-size="14.00">_layout_from_proc</text>
<polyline fill="none" stroke="black" points="-234.042,-65 -109.958,-65 "/>
<text text-anchor="start" x="-226.042" y="-49.8" font-family="Times,serif" font-size="14.00">_layout</text>
<text text-anchor="start" x="-226.042" y="-35.8" font-family="Times,serif" font-size="14.00">course_params</text>
<text text-anchor="start" x="-226.042" y="-21.8" font-family="Times,serif" font-size="14.00">redirect_url</text>
<text text-anchor="start" x="-226.042" y="-7.8" font-family="Times,serif" font-size="14.00">set_course</text>
</g>
<!-- FeedbacksController -->
<g id="node5" class="node"><title>FeedbacksController</title>
<path fill="none" stroke="black" d="M-60.3174,125C-60.3174,125 48.3174,125 48.3174,125 54.3174,125 60.3174,119 60.3174,113 60.3174,113 60.3174,-105 60.3174,-105 60.3174,-111 54.3174,-117 48.3174,-117 48.3174,-117 -60.3174,-117 -60.3174,-117 -66.3174,-117 -72.3174,-111 -72.3174,-105 -72.3174,-105 -72.3174,113 -72.3174,113 -72.3174,119 -66.3174,125 -60.3174,125"/>
<text text-anchor="middle" x="-6" y="-101.8" font-family="Times,serif" font-size="14.00">FeedbacksController</text>
<polyline fill="none" stroke="black" points="-72.3174,-95 60.3174,-95 "/>
<text text-anchor="start" x="-64.3174" y="-79.8" font-family="Times,serif" font-size="14.00">create</text>
<text text-anchor="start" x="-64.3174" y="-65.8" font-family="Times,serif" font-size="14.00">destroy</text>
<text text-anchor="start" x="-64.3174" y="-51.8" font-family="Times,serif" font-size="14.00">edit</text>
<text text-anchor="start" x="-64.3174" y="-37.8" font-family="Times,serif" font-size="14.00">index</text>
<text text-anchor="start" x="-64.3174" y="-23.8" font-family="Times,serif" font-size="14.00">new</text>
<text text-anchor="start" x="-64.3174" y="-9.8" font-family="Times,serif" font-size="14.00">publish</text>
<text text-anchor="start" x="-64.3174" y="4.2" font-family="Times,serif" font-size="14.00">show</text>
<text text-anchor="start" x="-64.3174" y="18.2" font-family="Times,serif" font-size="14.00">unpublish</text>
<text text-anchor="start" x="-64.3174" y="32.2" font-family="Times,serif" font-size="14.00">update</text>
<polyline fill="none" stroke="black" points="-72.3174,39 60.3174,39 "/>
<text text-anchor="start" x="-64.3174" y="54.2" font-family="Times,serif" font-size="14.00">_layout_from_proc</text>
<polyline fill="none" stroke="black" points="-72.3174,61 60.3174,61 "/>
<text text-anchor="start" x="-64.3174" y="76.2" font-family="Times,serif" font-size="14.00">_layout</text>
<text text-anchor="start" x="-64.3174" y="90.2" font-family="Times,serif" font-size="14.00">feedback_params</text>
<text text-anchor="start" x="-64.3174" y="104.2" font-family="Times,serif" font-size="14.00">redirect_url</text>
<text text-anchor="start" x="-64.3174" y="118.2" font-family="Times,serif" font-size="14.00">set_feedback</text>
</g>
<!-- HomepageControllerController -->
<g id="node6" class="node"><title>HomepageControllerController</title>
<path fill="none" stroke="black" d="M102.134,215C102.134,215 269.866,215 269.866,215 275.866,215 281.866,209 281.866,203 281.866,203 281.866,139 281.866,139 281.866,133 275.866,127 269.866,127 269.866,127 102.134,127 102.134,127 96.1343,127 90.1343,133 90.1343,139 90.1343,139 90.1343,203 90.1343,203 90.1343,209 96.1343,215 102.134,215"/>
<text text-anchor="middle" x="186" y="142.2" font-family="Times,serif" font-size="14.00">HomepageControllerController</text>
<polyline fill="none" stroke="black" points="90.1343,149 281.866,149 "/>
<text text-anchor="start" x="98.1343" y="164.2" font-family="Times,serif" font-size="14.00">show</text>
<polyline fill="none" stroke="black" points="90.1343,171 281.866,171 "/>
<text text-anchor="start" x="98.1343" y="186.2" font-family="Times,serif" font-size="14.00">_layout_from_proc</text>
<polyline fill="none" stroke="black" points="90.1343,193 281.866,193 "/>
<text text-anchor="start" x="98.1343" y="208.2" font-family="Times,serif" font-size="14.00">_layout</text>
</g>
<!-- HotOffersController -->
<g id="node7" class="node"><title>HotOffersController</title>
<path fill="none" stroke="black" d="M-60.0288,-145C-60.0288,-145 46.0288,-145 46.0288,-145 52.0288,-145 58.0288,-151 58.0288,-157 58.0288,-157 58.0288,-347 58.0288,-347 58.0288,-353 52.0288,-359 46.0288,-359 46.0288,-359 -60.0288,-359 -60.0288,-359 -66.0288,-359 -72.0288,-353 -72.0288,-347 -72.0288,-347 -72.0288,-157 -72.0288,-157 -72.0288,-151 -66.0288,-145 -60.0288,-145"/>
<text text-anchor="middle" x="-7" y="-343.8" font-family="Times,serif" font-size="14.00">HotOffersController</text>
<polyline fill="none" stroke="black" points="-72.0288,-337 58.0288,-337 "/>
<text text-anchor="start" x="-64.0288" y="-321.8" font-family="Times,serif" font-size="14.00">create</text>
<text text-anchor="start" x="-64.0288" y="-307.8" font-family="Times,serif" font-size="14.00">destroy</text>
<text text-anchor="start" x="-64.0288" y="-293.8" font-family="Times,serif" font-size="14.00">edit</text>
<text text-anchor="start" x="-64.0288" y="-279.8" font-family="Times,serif" font-size="14.00">index</text>
<text text-anchor="start" x="-64.0288" y="-265.8" font-family="Times,serif" font-size="14.00">new</text>
<text text-anchor="start" x="-64.0288" y="-251.8" font-family="Times,serif" font-size="14.00">show</text>
<text text-anchor="start" x="-64.0288" y="-237.8" font-family="Times,serif" font-size="14.00">update</text>
<polyline fill="none" stroke="black" points="-72.0288,-231 58.0288,-231 "/>
<text text-anchor="start" x="-64.0288" y="-215.8" font-family="Times,serif" font-size="14.00">_layout_from_proc</text>
<polyline fill="none" stroke="black" points="-72.0288,-209 58.0288,-209 "/>
<text text-anchor="start" x="-64.0288" y="-193.8" font-family="Times,serif" font-size="14.00">_layout</text>
<text text-anchor="start" x="-64.0288" y="-179.8" font-family="Times,serif" font-size="14.00">hot_offer_params</text>
<text text-anchor="start" x="-64.0288" y="-165.8" font-family="Times,serif" font-size="14.00">redirect_url</text>
<text text-anchor="start" x="-64.0288" y="-151.8" font-family="Times,serif" font-size="14.00">set_hot_offer</text>
</g>
<!-- NewsController -->
<g id="node8" class="node"><title>NewsController</title>
<path fill="none" stroke="black" d="M173.958,-163C173.958,-163 274.042,-163 274.042,-163 280.042,-163 286.042,-169 286.042,-175 286.042,-175 286.042,-379 286.042,-379 286.042,-385 280.042,-391 274.042,-391 274.042,-391 173.958,-391 173.958,-391 167.958,-391 161.958,-385 161.958,-379 161.958,-379 161.958,-175 161.958,-175 161.958,-169 167.958,-163 173.958,-163"/>
<text text-anchor="middle" x="224" y="-375.8" font-family="Times,serif" font-size="14.00">NewsController</text>
<polyline fill="none" stroke="black" points="161.958,-369 286.042,-369 "/>
<text text-anchor="start" x="169.958" y="-353.8" font-family="Times,serif" font-size="14.00">create</text>
<text text-anchor="start" x="169.958" y="-339.8" font-family="Times,serif" font-size="14.00">destroy</text>
<text text-anchor="start" x="169.958" y="-325.8" font-family="Times,serif" font-size="14.00">edit</text>
<text text-anchor="start" x="169.958" y="-311.8" font-family="Times,serif" font-size="14.00">feed</text>
<text text-anchor="start" x="169.958" y="-297.8" font-family="Times,serif" font-size="14.00">index</text>
<text text-anchor="start" x="169.958" y="-283.8" font-family="Times,serif" font-size="14.00">new</text>
<text text-anchor="start" x="169.958" y="-269.8" font-family="Times,serif" font-size="14.00">show</text>
<text text-anchor="start" x="169.958" y="-255.8" font-family="Times,serif" font-size="14.00">update</text>
<polyline fill="none" stroke="black" points="161.958,-249 286.042,-249 "/>
<text text-anchor="start" x="169.958" y="-233.8" font-family="Times,serif" font-size="14.00">_layout_from_proc</text>
<polyline fill="none" stroke="black" points="161.958,-227 286.042,-227 "/>
<text text-anchor="start" x="169.958" y="-211.8" font-family="Times,serif" font-size="14.00">_layout</text>
<text text-anchor="start" x="169.958" y="-197.8" font-family="Times,serif" font-size="14.00">news_params</text>
<text text-anchor="start" x="169.958" y="-183.8" font-family="Times,serif" font-size="14.00">redirect_url</text>
<text text-anchor="start" x="169.958" y="-169.8" font-family="Times,serif" font-size="14.00">set_news</text>
</g>
<!-- SignupsController -->
<g id="node9" class="node"><title>SignupsController</title>
<path fill="none" stroke="black" d="M-222.042,-271C-222.042,-271 -121.958,-271 -121.958,-271 -115.958,-271 -109.958,-277 -109.958,-283 -109.958,-283 -109.958,-389 -109.958,-389 -109.958,-395 -115.958,-401 -121.958,-401 -121.958,-401 -222.042,-401 -222.042,-401 -228.042,-401 -234.042,-395 -234.042,-389 -234.042,-389 -234.042,-283 -234.042,-283 -234.042,-277 -228.042,-271 -222.042,-271"/>
<text text-anchor="middle" x="-172" y="-385.8" font-family="Times,serif" font-size="14.00">SignupsController</text>
<polyline fill="none" stroke="black" points="-234.042,-379 -109.958,-379 "/>
<text text-anchor="start" x="-226.042" y="-363.8" font-family="Times,serif" font-size="14.00">create</text>
<text text-anchor="start" x="-226.042" y="-349.8" font-family="Times,serif" font-size="14.00">new</text>
<polyline fill="none" stroke="black" points="-234.042,-343 -109.958,-343 "/>
<text text-anchor="start" x="-226.042" y="-327.8" font-family="Times,serif" font-size="14.00">_layout_from_proc</text>
<polyline fill="none" stroke="black" points="-234.042,-321 -109.958,-321 "/>
<text text-anchor="start" x="-226.042" y="-305.8" font-family="Times,serif" font-size="14.00">_layout</text>
<text text-anchor="start" x="-226.042" y="-291.8" font-family="Times,serif" font-size="14.00">set_signup</text>
<text text-anchor="start" x="-226.042" y="-277.8" font-family="Times,serif" font-size="14.00">signup_params</text>
</g>
<!-- StaticPagesController -->
<g id="node10" class="node"><title>StaticPagesController</title>
<path fill="none" stroke="black" d="M101.955,89C101.955,89 216.045,89 216.045,89 222.045,89 228.045,83 228.045,77 228.045,77 228.045,-113 228.045,-113 228.045,-119 222.045,-125 216.045,-125 216.045,-125 101.955,-125 101.955,-125 95.9551,-125 89.9551,-119 89.9551,-113 89.9551,-113 89.9551,77 89.9551,77 89.9551,83 95.9551,89 101.955,89"/>
<text text-anchor="middle" x="159" y="-109.8" font-family="Times,serif" font-size="14.00">StaticPagesController</text>
<polyline fill="none" stroke="black" points="89.9551,-103 228.045,-103 "/>
<text text-anchor="start" x="97.9551" y="-87.8" font-family="Times,serif" font-size="14.00">create</text>
<text text-anchor="start" x="97.9551" y="-73.8" font-family="Times,serif" font-size="14.00">destroy</text>
<text text-anchor="start" x="97.9551" y="-59.8" font-family="Times,serif" font-size="14.00">edit</text>
<text text-anchor="start" x="97.9551" y="-45.8" font-family="Times,serif" font-size="14.00">index</text>
<text text-anchor="start" x="97.9551" y="-31.8" font-family="Times,serif" font-size="14.00">new</text>
<text text-anchor="start" x="97.9551" y="-17.8" font-family="Times,serif" font-size="14.00">show</text>
<text text-anchor="start" x="97.9551" y="-3.8" font-family="Times,serif" font-size="14.00">update</text>
<polyline fill="none" stroke="black" points="89.9551,3 228.045,3 "/>
<text text-anchor="start" x="97.9551" y="18.2" font-family="Times,serif" font-size="14.00">_layout_from_proc</text>
<polyline fill="none" stroke="black" points="89.9551,25 228.045,25 "/>
<text text-anchor="start" x="97.9551" y="40.2" font-family="Times,serif" font-size="14.00">_layout</text>
<text text-anchor="start" x="97.9551" y="54.2" font-family="Times,serif" font-size="14.00">redirect_url</text>
<text text-anchor="start" x="97.9551" y="68.2" font-family="Times,serif" font-size="14.00">set_static_page</text>
<text text-anchor="start" x="97.9551" y="82.2" font-family="Times,serif" font-size="14.00">static_page_params</text>
</g>
</g>
</svg>
