<?xml version="1.0" encoding="UTF-8" standalone="no"?>
<!DOCTYPE svg PUBLIC "-//W3C//DTD SVG 1.1//EN"
 "http://www.w3.org/Graphics/SVG/1.1/DTD/svg11.dtd">
<!-- Generated by graphviz version 2.38.0 (20140413.2041)
 -->
<!-- Title: models_diagram Pages: 1 -->
<svg width="1216pt" height="153pt"
 viewBox="0.00 0.00 1216.12 153.00" xmlns="http://www.w3.org/2000/svg" xmlns:xlink="http://www.w3.org/1999/xlink">
<g id="graph0" class="graph" transform="scale(1 1) rotate(0) translate(4 149)">
<title>models_diagram</title>
<polygon fill="none" stroke="none" points="-4,4 -4,-149 1212.12,-149 1212.12,4 -4,4"/>
<!-- _diagram_info -->
<g id="node1" class="node"><title>_diagram_info</title>
<text text-anchor="start" x="8" y="-130.6" font-family="Times,serif" font-size="13.00">Models diagram</text>
<text text-anchor="start" x="8" y="-117.6" font-family="Times,serif" font-size="13.00">Date: Apr 25 2016 &#45; 18:23</text>
<text text-anchor="start" x="8" y="-104.6" font-family="Times,serif" font-size="13.00">Migration version: 20151027151705</text>
<text text-anchor="start" x="8" y="-91.6" font-family="Times,serif" font-size="13.00">Generated by RailRoady 1.4.2</text>
<text text-anchor="start" x="8" y="-78.6" font-family="Times,serif" font-size="13.00">http://railroady.prestonlee.com</text>
</g>
<!-- Ckeditor::Asset -->
<g id="node2" class="node"><title>Ckeditor::Asset</title>
<ellipse fill="none" stroke="black" cx="290.688" cy="-108.5" rx="65.7408" ry="18"/>
<text text-anchor="middle" x="290.688" y="-104.3" font-family="Times,serif" font-size="14.00">Ckeditor::Asset</text>
</g>
<!-- Ckeditor::AttachmentFile -->
<g id="node3" class="node"><title>Ckeditor::AttachmentFile</title>
<ellipse fill="none" stroke="black" cx="475.688" cy="-108.5" rx="100.962" ry="18"/>
<text text-anchor="middle" x="475.688" y="-104.3" font-family="Times,serif" font-size="14.00">Ckeditor::AttachmentFile</text>
</g>
<!-- Ckeditor::Picture -->
<g id="node4" class="node"><title>Ckeditor::Picture</title>
<ellipse fill="none" stroke="black" cx="665.688" cy="-108.5" rx="71.0358" ry="18"/>
<text text-anchor="middle" x="665.688" y="-104.3" font-family="Times,serif" font-size="14.00">Ckeditor::Picture</text>
</g>
<!-- Course -->
<g id="node5" class="node"><title>Course</title>
<ellipse fill="none" stroke="black" cx="789.688" cy="-108.5" rx="35.3216" ry="18"/>
<text text-anchor="middle" x="789.688" y="-104.3" font-family="Times,serif" font-size="14.00">Course</text>
</g>
<!-- Feedback -->
<g id="node6" class="node"><title>Feedback</title>
<ellipse fill="none" stroke="black" cx="789.688" cy="-18" rx="43.9819" ry="18"/>
<text text-anchor="middle" x="789.688" y="-13.8" font-family="Times,serif" font-size="14.00">Feedback</text>
</g>
<!-- Course&#45;&gt;Feedback -->
<g id="edge1" class="edge"><title>Course&#45;&gt;Feedback</title>
<path fill="none" stroke="#f68fd8" d="M789.688,-82.189C789.688,-70.9711 789.688,-57.7517 789.688,-46.3113"/>
<ellipse fill="none" stroke="#f68fd8" cx="789.688" cy="-86.4363" rx="4" ry="4"/>
<polygon fill="#f68fd8" stroke="#f68fd8" points="789.688,-46.0113 794.188,-36.0113 789.688,-41.0113 789.688,-36.0113 789.688,-36.0113 789.688,-36.0113 789.688,-41.0113 785.188,-36.0113 789.688,-46.0113 789.688,-46.0113"/>
</g>
<!-- HotOffer -->
<g id="node7" class="node"><title>HotOffer</title>
<ellipse fill="none" stroke="black" cx="885.688" cy="-108.5" rx="42.2265" ry="18"/>
<text text-anchor="middle" x="885.688" y="-104.3" font-family="Times,serif" font-size="14.00">HotOffer</text>
</g>
<!-- News -->
<g id="node8" class="node"><title>News</title>
<ellipse fill="none" stroke="black" cx="976.688" cy="-108.5" rx="30.4949" ry="18"/>
<text text-anchor="middle" x="976.688" y="-104.3" font-family="Times,serif" font-size="14.00">News</text>
</g>
<!-- Signup -->
<g id="node9" class="node"><title>Signup</title>
<ellipse fill="none" stroke="black" cx="1059.69" cy="-108.5" rx="35.3389" ry="18"/>
<text text-anchor="middle" x="1059.69" y="-104.3" font-family="Times,serif" font-size="14.00">Signup</text>
</g>
<!-- StaticPage -->
<g id="node10" class="node"><title>StaticPage</title>
<ellipse fill="none" stroke="black" cx="1160.69" cy="-108.5" rx="47.3736" ry="18"/>
<text text-anchor="middle" x="1160.69" y="-104.3" font-family="Times,serif" font-size="14.00">StaticPage</text>
</g>
</g>
</svg>
