<?xml version="1.0" encoding="UTF-8" standalone="no"?>
<!DOCTYPE svg PUBLIC "-//W3C//DTD SVG 1.1//EN"
 "http://www.w3.org/Graphics/SVG/1.1/DTD/svg11.dtd">
<!-- Generated by graphviz version 2.38.0 (20140413.2041)
 -->
<!-- Title: models_diagram Pages: 1 -->
<svg width="1752pt" height="442pt"
 viewBox="0.00 0.00 1752.14 442.00" xmlns="http://www.w3.org/2000/svg" xmlns:xlink="http://www.w3.org/1999/xlink">
<g id="graph0" class="graph" transform="scale(1 1) rotate(0) translate(4 438)">
<title>models_diagram</title>
<polygon fill="none" stroke="none" points="-4,4 -4,-438 1748.14,-438 1748.14,4 -4,4"/>
<!-- _diagram_info -->
<g id="node1" class="node"><title>_diagram_info</title>
<text text-anchor="start" x="8" y="-328.6" font-family="Times,serif" font-size="13.00">Models diagram</text>
<text text-anchor="start" x="8" y="-315.6" font-family="Times,serif" font-size="13.00">Date: Apr 25 2016 &#45; 18:23</text>
<text text-anchor="start" x="8" y="-302.6" font-family="Times,serif" font-size="13.00">Migration version: 20151027151705</text>
<text text-anchor="start" x="8" y="-289.6" font-family="Times,serif" font-size="13.00">Generated by RailRoady 1.4.2</text>
<text text-anchor="start" x="8" y="-276.6" font-family="Times,serif" font-size="13.00">http://railroady.prestonlee.com</text>
</g>
<!-- Ckeditor::Asset -->
<g id="node2" class="node"><title>Ckeditor::Asset</title>
<path fill="none" stroke="black" d="M237.534,-214.5C237.534,-214.5 411.842,-214.5 411.842,-214.5 417.842,-214.5 423.842,-220.5 423.842,-226.5 423.842,-226.5 423.842,-386.5 423.842,-386.5 423.842,-392.5 417.842,-398.5 411.842,-398.5 411.842,-398.5 237.534,-398.5 237.534,-398.5 231.534,-398.5 225.534,-392.5 225.534,-386.5 225.534,-386.5 225.534,-226.5 225.534,-226.5 225.534,-220.5 231.534,-214.5 237.534,-214.5"/>
<text text-anchor="middle" x="324.688" y="-383.3" font-family="Times,serif" font-size="14.00">Ckeditor::Asset</text>
<polyline fill="none" stroke="black" points="225.534,-376.5 423.842,-376.5 "/>
<text text-anchor="start" x="233.534" y="-361.3" font-family="Times,serif" font-size="14.00">id :INTEGER</text>
<text text-anchor="start" x="233.534" y="-347.3" font-family="Times,serif" font-size="14.00">data_file_name :varchar(255)</text>
<text text-anchor="start" x="233.534" y="-333.3" font-family="Times,serif" font-size="14.00">data_content_type :varchar(255)</text>
<text text-anchor="start" x="233.534" y="-319.3" font-family="Times,serif" font-size="14.00">data_file_size :integer</text>
<text text-anchor="start" x="233.534" y="-305.3" font-family="Times,serif" font-size="14.00">assetable_id :integer</text>
<text text-anchor="start" x="233.534" y="-291.3" font-family="Times,serif" font-size="14.00">assetable_type :varchar(30)</text>
<text text-anchor="start" x="233.534" y="-277.3" font-family="Times,serif" font-size="14.00">type :varchar(30)</text>
<text text-anchor="start" x="233.534" y="-263.3" font-family="Times,serif" font-size="14.00">width :integer</text>
<text text-anchor="start" x="233.534" y="-249.3" font-family="Times,serif" font-size="14.00">height :integer</text>
<text text-anchor="start" x="233.534" y="-235.3" font-family="Times,serif" font-size="14.00">created_at :datetime</text>
<text text-anchor="start" x="233.534" y="-221.3" font-family="Times,serif" font-size="14.00">updated_at :datetime</text>
</g>
<!-- Ckeditor::AttachmentFile -->
<g id="node3" class="node"><title>Ckeditor::AttachmentFile</title>
<path fill="none" stroke="black" d="M453.534,-214.5C453.534,-214.5 627.842,-214.5 627.842,-214.5 633.842,-214.5 639.842,-220.5 639.842,-226.5 639.842,-226.5 639.842,-386.5 639.842,-386.5 639.842,-392.5 633.842,-398.5 627.842,-398.5 627.842,-398.5 453.534,-398.5 453.534,-398.5 447.534,-398.5 441.534,-392.5 441.534,-386.5 441.534,-386.5 441.534,-226.5 441.534,-226.5 441.534,-220.5 447.534,-214.5 453.534,-214.5"/>
<text text-anchor="middle" x="540.688" y="-383.3" font-family="Times,serif" font-size="14.00">Ckeditor::AttachmentFile</text>
<polyline fill="none" stroke="black" points="441.534,-376.5 639.842,-376.5 "/>
<text text-anchor="start" x="449.534" y="-361.3" font-family="Times,serif" font-size="14.00">id :INTEGER</text>
<text text-anchor="start" x="449.534" y="-347.3" font-family="Times,serif" font-size="14.00">data_file_name :varchar(255)</text>
<text text-anchor="start" x="449.534" y="-333.3" font-family="Times,serif" font-size="14.00">data_content_type :varchar(255)</text>
<text text-anchor="start" x="449.534" y="-319.3" font-family="Times,serif" font-size="14.00">data_file_size :integer</text>
<text text-anchor="start" x="449.534" y="-305.3" font-family="Times,serif" font-size="14.00">assetable_id :integer</text>
<text text-anchor="start" x="449.534" y="-291.3" font-family="Times,serif" font-size="14.00">assetable_type :varchar(30)</text>
<text text-anchor="start" x="449.534" y="-277.3" font-family="Times,serif" font-size="14.00">type :varchar(30)</text>
<text text-anchor="start" x="449.534" y="-263.3" font-family="Times,serif" font-size="14.00">width :integer</text>
<text text-anchor="start" x="449.534" y="-249.3" font-family="Times,serif" font-size="14.00">height :integer</text>
<text text-anchor="start" x="449.534" y="-235.3" font-family="Times,serif" font-size="14.00">created_at :datetime</text>
<text text-anchor="start" x="449.534" y="-221.3" font-family="Times,serif" font-size="14.00">updated_at :datetime</text>
</g>
<!-- Ckeditor::Picture -->
<g id="node4" class="node"><title>Ckeditor::Picture</title>
<path fill="none" stroke="black" d="M669.534,-214.5C669.534,-214.5 843.842,-214.5 843.842,-214.5 849.842,-214.5 855.842,-220.5 855.842,-226.5 855.842,-226.5 855.842,-386.5 855.842,-386.5 855.842,-392.5 849.842,-398.5 843.842,-398.5 843.842,-398.5 669.534,-398.5 669.534,-398.5 663.534,-398.5 657.534,-392.5 657.534,-386.5 657.534,-386.5 657.534,-226.5 657.534,-226.5 657.534,-220.5 663.534,-214.5 669.534,-214.5"/>
<text text-anchor="middle" x="756.688" y="-383.3" font-family="Times,serif" font-size="14.00">Ckeditor::Picture</text>
<polyline fill="none" stroke="black" points="657.534,-376.5 855.842,-376.5 "/>
<text text-anchor="start" x="665.534" y="-361.3" font-family="Times,serif" font-size="14.00">id :INTEGER</text>
<text text-anchor="start" x="665.534" y="-347.3" font-family="Times,serif" font-size="14.00">data_file_name :varchar(255)</text>
<text text-anchor="start" x="665.534" y="-333.3" font-family="Times,serif" font-size="14.00">data_content_type :varchar(255)</text>
<text text-anchor="start" x="665.534" y="-319.3" font-family="Times,serif" font-size="14.00">data_file_size :integer</text>
<text text-anchor="start" x="665.534" y="-305.3" font-family="Times,serif" font-size="14.00">assetable_id :integer</text>
<text text-anchor="start" x="665.534" y="-291.3" font-family="Times,serif" font-size="14.00">assetable_type :varchar(30)</text>
<text text-anchor="start" x="665.534" y="-277.3" font-family="Times,serif" font-size="14.00">type :varchar(30)</text>
<text text-anchor="start" x="665.534" y="-263.3" font-family="Times,serif" font-size="14.00">width :integer</text>
<text text-anchor="start" x="665.534" y="-249.3" font-family="Times,serif" font-size="14.00">height :integer</text>
<text text-anchor="start" x="665.534" y="-235.3" font-family="Times,serif" font-size="14.00">created_at :datetime</text>
<text text-anchor="start" x="665.534" y="-221.3" font-family="Times,serif" font-size="14.00">updated_at :datetime</text>
</g>
<!-- Course -->
<g id="node5" class="node"><title>Course</title>
<path fill="none" stroke="black" d="M885.661,-179.5C885.661,-179.5 1123.71,-179.5 1123.71,-179.5 1129.71,-179.5 1135.71,-185.5 1135.71,-191.5 1135.71,-191.5 1135.71,-421.5 1135.71,-421.5 1135.71,-427.5 1129.71,-433.5 1123.71,-433.5 1123.71,-433.5 885.661,-433.5 885.661,-433.5 879.661,-433.5 873.661,-427.5 873.661,-421.5 873.661,-421.5 873.661,-191.5 873.661,-191.5 873.661,-185.5 879.661,-179.5 885.661,-179.5"/>
<text text-anchor="middle" x="1004.69" y="-418.3" font-family="Times,serif" font-size="14.00">Course</text>
<polyline fill="none" stroke="black" points="873.661,-411.5 1135.71,-411.5 "/>
<text text-anchor="start" x="881.661" y="-396.3" font-family="Times,serif" font-size="14.00">id :INTEGER</text>
<text text-anchor="start" x="881.661" y="-382.3" font-family="Times,serif" font-size="14.00">title :varchar(255)</text>
<text text-anchor="start" x="881.661" y="-368.3" font-family="Times,serif" font-size="14.00">short_descr :text</text>
<text text-anchor="start" x="881.661" y="-354.3" font-family="Times,serif" font-size="14.00">full_descr :text</text>
<text text-anchor="start" x="881.661" y="-340.3" font-family="Times,serif" font-size="14.00">start_date :date</text>
<text text-anchor="start" x="881.661" y="-326.3" font-family="Times,serif" font-size="14.00">full_price :decimal</text>
<text text-anchor="start" x="881.661" y="-312.3" font-family="Times,serif" font-size="14.00">timegroup :integer</text>
<text text-anchor="start" x="881.661" y="-298.3" font-family="Times,serif" font-size="14.00">created_at :datetime</text>
<text text-anchor="start" x="881.661" y="-284.3" font-family="Times,serif" font-size="14.00">updated_at :datetime</text>
<text text-anchor="start" x="881.661" y="-270.3" font-family="Times,serif" font-size="14.00">featured_image_file_name :varchar(255)</text>
<text text-anchor="start" x="881.661" y="-256.3" font-family="Times,serif" font-size="14.00">featured_image_content_type :varchar(255)</text>
<text text-anchor="start" x="881.661" y="-242.3" font-family="Times,serif" font-size="14.00">featured_image_file_size :integer</text>
<text text-anchor="start" x="881.661" y="-228.3" font-family="Times,serif" font-size="14.00">featured_image_updated_at :datetime</text>
<text text-anchor="start" x="881.661" y="-214.3" font-family="Times,serif" font-size="14.00">duration :float</text>
<text text-anchor="start" x="881.661" y="-200.3" font-family="Times,serif" font-size="14.00">advance_payment :integer</text>
<text text-anchor="start" x="881.661" y="-186.3" font-family="Times,serif" font-size="14.00">monthly_payment :integer</text>
</g>
<!-- Feedback -->
<g id="node6" class="node"><title>Feedback</title>
<path fill="none" stroke="black" d="M931.127,-0.5C931.127,-0.5 1078.25,-0.5 1078.25,-0.5 1084.25,-0.5 1090.25,-6.5 1090.25,-12.5 1090.25,-12.5 1090.25,-130.5 1090.25,-130.5 1090.25,-136.5 1084.25,-142.5 1078.25,-142.5 1078.25,-142.5 931.127,-142.5 931.127,-142.5 925.127,-142.5 919.127,-136.5 919.127,-130.5 919.127,-130.5 919.127,-12.5 919.127,-12.5 919.127,-6.5 925.127,-0.5 931.127,-0.5"/>
<text text-anchor="middle" x="1004.69" y="-127.3" font-family="Times,serif" font-size="14.00">Feedback</text>
<polyline fill="none" stroke="black" points="919.127,-120.5 1090.25,-120.5 "/>
<text text-anchor="start" x="927.127" y="-105.3" font-family="Times,serif" font-size="14.00">id :INTEGER</text>
<text text-anchor="start" x="927.127" y="-91.3" font-family="Times,serif" font-size="14.00">name :varchar(255)</text>
<text text-anchor="start" x="927.127" y="-77.3" font-family="Times,serif" font-size="14.00">content :text</text>
<text text-anchor="start" x="927.127" y="-63.3" font-family="Times,serif" font-size="14.00">course_id :integer</text>
<text text-anchor="start" x="927.127" y="-49.3" font-family="Times,serif" font-size="14.00">created_at :datetime</text>
<text text-anchor="start" x="927.127" y="-35.3" font-family="Times,serif" font-size="14.00">updated_at :datetime</text>
<text text-anchor="start" x="927.127" y="-21.3" font-family="Times,serif" font-size="14.00">is_for_hr_services :boolean</text>
<text text-anchor="start" x="927.127" y="-7.3" font-family="Times,serif" font-size="14.00">published :boolean</text>
</g>
<!-- Course&#45;&gt;Feedback -->
<g id="edge1" class="edge"><title>Course&#45;&gt;Feedback</title>
<path fill="none" stroke="#2c479f" d="M1004.69,-171.178C1004.69,-164.893 1004.69,-158.678 1004.69,-152.611"/>
<ellipse fill="none" stroke="#2c479f" cx="1004.69" cy="-175.453" rx="4" ry="4"/>
<polygon fill="#2c479f" stroke="#2c479f" points="1004.69,-152.551 1009.19,-142.551 1004.69,-147.551 1004.69,-142.551 1004.69,-142.551 1004.69,-142.551 1004.69,-147.551 1000.19,-142.551 1004.69,-152.551 1004.69,-152.551"/>
</g>
<!-- HotOffer -->
<g id="node7" class="node"><title>HotOffer</title>
<path fill="none" stroke="black" d="M1166.18,-249.5C1166.18,-249.5 1275.19,-249.5 1275.19,-249.5 1281.19,-249.5 1287.19,-255.5 1287.19,-261.5 1287.19,-261.5 1287.19,-351.5 1287.19,-351.5 1287.19,-357.5 1281.19,-363.5 1275.19,-363.5 1275.19,-363.5 1166.18,-363.5 1166.18,-363.5 1160.18,-363.5 1154.18,-357.5 1154.18,-351.5 1154.18,-351.5 1154.18,-261.5 1154.18,-261.5 1154.18,-255.5 1160.18,-249.5 1166.18,-249.5"/>
<text text-anchor="middle" x="1220.69" y="-348.3" font-family="Times,serif" font-size="14.00">HotOffer</text>
<polyline fill="none" stroke="black" points="1154.18,-341.5 1287.19,-341.5 "/>
<text text-anchor="start" x="1162.18" y="-326.3" font-family="Times,serif" font-size="14.00">id :INTEGER</text>
<text text-anchor="start" x="1162.18" y="-312.3" font-family="Times,serif" font-size="14.00">content :text(255)</text>
<text text-anchor="start" x="1162.18" y="-298.3" font-family="Times,serif" font-size="14.00">start_date :date</text>
<text text-anchor="start" x="1162.18" y="-284.3" font-family="Times,serif" font-size="14.00">end_date :date</text>
<text text-anchor="start" x="1162.18" y="-270.3" font-family="Times,serif" font-size="14.00">created_at :datetime</text>
<text text-anchor="start" x="1162.18" y="-256.3" font-family="Times,serif" font-size="14.00">updated_at :datetime</text>
</g>
<!-- News -->
<g id="node8" class="node"><title>News</title>
<path fill="none" stroke="black" d="M1317.18,-249.5C1317.18,-249.5 1426.19,-249.5 1426.19,-249.5 1432.19,-249.5 1438.19,-255.5 1438.19,-261.5 1438.19,-261.5 1438.19,-351.5 1438.19,-351.5 1438.19,-357.5 1432.19,-363.5 1426.19,-363.5 1426.19,-363.5 1317.18,-363.5 1317.18,-363.5 1311.18,-363.5 1305.18,-357.5 1305.18,-351.5 1305.18,-351.5 1305.18,-261.5 1305.18,-261.5 1305.18,-255.5 1311.18,-249.5 1317.18,-249.5"/>
<text text-anchor="middle" x="1371.69" y="-348.3" font-family="Times,serif" font-size="14.00">News</text>
<polyline fill="none" stroke="black" points="1305.18,-341.5 1438.19,-341.5 "/>
<text text-anchor="start" x="1313.18" y="-326.3" font-family="Times,serif" font-size="14.00">id :INTEGER</text>
<text text-anchor="start" x="1313.18" y="-312.3" font-family="Times,serif" font-size="14.00">content :text</text>
<text text-anchor="start" x="1313.18" y="-298.3" font-family="Times,serif" font-size="14.00">published :datetime</text>
<text text-anchor="start" x="1313.18" y="-284.3" font-family="Times,serif" font-size="14.00">created_at :datetime</text>
<text text-anchor="start" x="1313.18" y="-270.3" font-family="Times,serif" font-size="14.00">updated_at :datetime</text>
<text text-anchor="start" x="1313.18" y="-256.3" font-family="Times,serif" font-size="14.00">title :varchar(255)</text>
</g>
<!-- Signup -->
<g id="node9" class="node"><title>Signup</title>
<path fill="none" stroke="black" d="M1468.18,-242.5C1468.18,-242.5 1577.19,-242.5 1577.19,-242.5 1583.19,-242.5 1589.19,-248.5 1589.19,-254.5 1589.19,-254.5 1589.19,-358.5 1589.19,-358.5 1589.19,-364.5 1583.19,-370.5 1577.19,-370.5 1577.19,-370.5 1468.18,-370.5 1468.18,-370.5 1462.18,-370.5 1456.18,-364.5 1456.18,-358.5 1456.18,-358.5 1456.18,-254.5 1456.18,-254.5 1456.18,-248.5 1462.18,-242.5 1468.18,-242.5"/>
<text text-anchor="middle" x="1522.69" y="-355.3" font-family="Times,serif" font-size="14.00">Signup</text>
<polyline fill="none" stroke="black" points="1456.18,-348.5 1589.19,-348.5 "/>
<text text-anchor="start" x="1464.18" y="-333.3" font-family="Times,serif" font-size="14.00">id :INTEGER</text>
<text text-anchor="start" x="1464.18" y="-319.3" font-family="Times,serif" font-size="14.00">course :integer(255)</text>
<text text-anchor="start" x="1464.18" y="-305.3" font-family="Times,serif" font-size="14.00">name :varchar(255)</text>
<text text-anchor="start" x="1464.18" y="-291.3" font-family="Times,serif" font-size="14.00">email :varchar(255)</text>
<text text-anchor="start" x="1464.18" y="-277.3" font-family="Times,serif" font-size="14.00">created_at :datetime</text>
<text text-anchor="start" x="1464.18" y="-263.3" font-family="Times,serif" font-size="14.00">updated_at :datetime</text>
<text text-anchor="start" x="1464.18" y="-249.3" font-family="Times,serif" font-size="14.00">phone :varchar(255)</text>
</g>
<!-- StaticPage -->
<g id="node10" class="node"><title>StaticPage</title>
<path fill="none" stroke="black" d="M1619.24,-242.5C1619.24,-242.5 1732.14,-242.5 1732.14,-242.5 1738.14,-242.5 1744.14,-248.5 1744.14,-254.5 1744.14,-254.5 1744.14,-358.5 1744.14,-358.5 1744.14,-364.5 1738.14,-370.5 1732.14,-370.5 1732.14,-370.5 1619.24,-370.5 1619.24,-370.5 1613.24,-370.5 1607.24,-364.5 1607.24,-358.5 1607.24,-358.5 1607.24,-254.5 1607.24,-254.5 1607.24,-248.5 1613.24,-242.5 1619.24,-242.5"/>
<text text-anchor="middle" x="1675.69" y="-355.3" font-family="Times,serif" font-size="14.00">StaticPage</text>
<polyline fill="none" stroke="black" points="1607.24,-348.5 1744.14,-348.5 "/>
<text text-anchor="start" x="1615.24" y="-333.3" font-family="Times,serif" font-size="14.00">id :INTEGER</text>
<text text-anchor="start" x="1615.24" y="-319.3" font-family="Times,serif" font-size="14.00">title :varchar(255)</text>
<text text-anchor="start" x="1615.24" y="-305.3" font-family="Times,serif" font-size="14.00">content :text</text>
<text text-anchor="start" x="1615.24" y="-291.3" font-family="Times,serif" font-size="14.00">published :datetime</text>
<text text-anchor="start" x="1615.24" y="-277.3" font-family="Times,serif" font-size="14.00">created_at :datetime</text>
<text text-anchor="start" x="1615.24" y="-263.3" font-family="Times,serif" font-size="14.00">updated_at :datetime</text>
<text text-anchor="start" x="1615.24" y="-249.3" font-family="Times,serif" font-size="14.00">subtitle :varchar(255)</text>
</g>
</g>
</svg>
